<?xml version="1.0" encoding="UTF-8" standalone="no"?>
<!-- Created with Inkscape (http://www.inkscape.org/) -->

<svg
   xmlns:dc="http://purl.org/dc/elements/1.1/"
   xmlns:cc="http://creativecommons.org/ns#"
   xmlns:rdf="http://www.w3.org/1999/02/22-rdf-syntax-ns#"
   xmlns:svg="http://www.w3.org/2000/svg"
   xmlns="http://www.w3.org/2000/svg"
   xmlns:sodipodi="http://sodipodi.sourceforge.net/DTD/sodipodi-0.dtd"
   xmlns:inkscape="http://www.inkscape.org/namespaces/inkscape"
   width="135"
   height="110"
   id="svg2"
   version="1.1"
   inkscape:version="0.91 r13725"
   sodipodi:docname="mobile.svg">
  <defs
     id="defs4" />
  <sodipodi:namedview
     id="base"
     pagecolor="#ffffff"
     bordercolor="#666666"
     borderopacity="1.0"
     inkscape:pageopacity="0.0"
     inkscape:pageshadow="2"
     inkscape:zoom="2.3033895"
     inkscape:cx="142.04089"
     inkscape:cy="56.602712"
     inkscape:document-units="px"
     inkscape:current-layer="svg2"
     showgrid="false"
     inkscape:window-width="1433"
     inkscape:window-height="824"
     inkscape:window-x="0"
     inkscape:window-y="0"
     inkscape:window-maximized="0"
     showguides="true"
     inkscape:guide-bbox="true" />
  <metadata
     id="metadata7">
    <rdf:RDF>
      <cc:Work
         rdf:about="">
        <dc:format>image/svg+xml</dc:format>
        <dc:type
           rdf:resource="http://purl.org/dc/dcmitype/StillImage" />
        <dc:title></dc:title>
      </cc:Work>
    </rdf:RDF>
  </metadata>
  <g
     inkscape:label="Layer 1"
     inkscape:groupmode="layer"
     id="layer1"
     transform="translate(0,-942.36219)" />
  <g
     inkscape:groupmode="layer"
     id="layer2"
     inkscape:label="Phone"
     transform="translate(0,-942.36219)" />
  <g
     transform="translate(1494.1738,-1441.4384)"
     style="font-style:normal;font-variant:normal;font-weight:bold;font-stretch:condensed;font-size:8px;line-height:125%;font-family:'Arial Narrow';-inkscape-font-specification:'Arial Narrow Bold Condensed';text-align:center;letter-spacing:0px;word-spacing:0px;text-anchor:middle;fill:#000000;fill-opacity:1;stroke:none"
     id="flowRoot12332" />
  <g
     transform="matrix(1.2809392,0,0,1.2809392,1418.5886,-1629.2536)"
     style="font-style:normal;font-variant:normal;font-weight:bold;font-stretch:condensed;font-size:8px;line-height:125%;font-family:'Arial Narrow';-inkscape-font-specification:'Arial Narrow Bold Condensed';text-align:center;letter-spacing:0px;word-spacing:0px;text-anchor:middle;fill:#000000;fill-opacity:1;stroke:none"
     id="flowRoot12022-8" />
  <g
     transform="translate(0,-942.36219)"
     style="font-style:normal;font-variant:normal;font-weight:bold;font-stretch:condensed;font-size:10.24751377px;line-height:125%;font-family:'Arial Narrow';-inkscape-font-specification:'Arial Narrow Bold Condensed';text-align:center;letter-spacing:0px;word-spacing:0px;text-anchor:middle;fill:#000000;fill-opacity:1;stroke:none"
     id="flowRoot12272" />
  <path
     style="fill:none;stroke:#000000;stroke-width:1.5;stroke-linecap:square;stroke-linejoin:miter;stroke-miterlimit:4;stroke-dasharray:none;stroke-opacity:1"
     d="m 14.6785,6.9141679 23.662974,0 c 3.548202,0 6.404696,2.8564944 6.404696,6.4046961 l 0,7.685635 c 0,3.548202 -2.856494,6.404696 -6.404696,6.404696 l -23.662974,0 c -3.548202,0 -6.4046963,-2.856494 -6.4046963,-6.404696 l 0,-7.685635 c 0,-3.5482017 2.8564943,-6.4046961 6.4046963,-6.4046961 z"
     id="rect12032" />
  <g
     transform="matrix(1.2809392,0,0,1.2809392,-54.3894,-582.6332)"
     style="font-style:normal;font-variant:normal;font-weight:bold;font-stretch:condensed;font-size:8px;line-height:125%;font-family:'Arial Narrow';-inkscape-font-specification:'Arial Narrow Bold Condensed';text-align:center;letter-spacing:0px;word-spacing:0px;text-anchor:middle;fill:#000000;fill-opacity:1;stroke:none"
     id="flowRoot12034">
    <path
       d="m 56.492187,471.83993 -1.123046,0 0,-5.1709 q -0.629883,0.70801 -1.455079,1.04004 l 0,-1.24512 q 0.46875,-0.19043 0.97168,-0.67871 0.50293,-0.49316 0.698242,-1.13281 l 0.908203,0 0,7.1875 z"
       style="font-size:10px;text-align:center;text-anchor:middle"
       id="path12343" />
  </g>
  <path
     style="fill:none;stroke:#000000;stroke-width:1.5;stroke-linecap:square;stroke-linejoin:miter;stroke-miterlimit:4;stroke-dasharray:none;stroke-opacity:1"
     d="m 96.658602,6.9141679 23.662978,0 c 3.5482,0 6.40469,2.8564944 6.40469,6.4046961 l 0,7.685635 c 0,3.548202 -2.85649,6.404696 -6.40469,6.404696 l -23.662978,0 c -3.548201,0 -6.404696,-2.856494 -6.404696,-6.404696 l 0,-7.685635 c 0,-3.5482017 2.856495,-6.4046961 6.404696,-6.4046961 z"
     id="rect12080" />
  <g
     transform="matrix(1.2809392,0,0,1.2809392,27.5907,-582.6332)"
     style="font-style:normal;font-variant:normal;font-weight:bold;font-stretch:condensed;font-size:8px;line-height:125%;font-family:'Arial Narrow';-inkscape-font-specification:'Arial Narrow Bold Condensed';text-align:center;letter-spacing:0px;word-spacing:0px;text-anchor:middle;fill:#000000;fill-opacity:1;stroke:none"
     id="flowRoot12082">
    <path
       d="m 53.572266,469.94051 1.088867,-0.16113 q 0.04395,0.50781 0.27832,0.77637 0.234375,0.26855 0.551758,0.26855 0.34668,0 0.585937,-0.31738 0.239258,-0.31738 0.239258,-0.87891 0,-0.52246 -0.229492,-0.82031 -0.229492,-0.29785 -0.556641,-0.29785 -0.214843,0 -0.512695,0.10254 l 0.12207,-1.11817 q 0.434571,0.01 0.688477,-0.23437 0.249023,-0.24414 0.249023,-0.68848 0,-0.37109 -0.180664,-0.58105 -0.180664,-0.20996 -0.463867,-0.20996 -0.283203,0 -0.493164,0.24414 -0.205078,0.23925 -0.244141,0.71289 l -1.040039,-0.21485 q 0.161133,-0.98144 0.629883,-1.42578 0.46875,-0.44433 1.181641,-0.44433 0.800781,0 1.269531,0.57129 0.473633,0.57128 0.473633,1.26464 0,0.46875 -0.214844,0.84473 -0.209961,0.37598 -0.634765,0.65918 0.493164,0.13184 0.800781,0.58106 0.3125,0.44921 0.3125,1.12304 0,0.98145 -0.585938,1.62598 -0.581054,0.63965 -1.386718,0.63965 -0.771485,0 -1.308594,-0.542 -0.532227,-0.54199 -0.620117,-1.47949 z"
       style="font-size:10px;text-align:center;text-anchor:middle"
       id="path12339" />
  </g>
  <g
     transform="matrix(1.2809392,0,0,1.2809392,36.4708,-581.018)"
     style="font-style:normal;font-variant:normal;font-weight:bold;font-stretch:condensed;font-size:8px;line-height:125%;font-family:'Arial Narrow';-inkscape-font-specification:'Arial Narrow Bold Condensed';text-align:center;letter-spacing:0px;word-spacing:0px;text-anchor:middle;fill:#000000;fill-opacity:1;stroke:none"
     id="flowRoot12090">
    <path
       d="m 58.135742,469.80163 -0.839844,0 0,-0.60938 q -0.207031,0.35157 -0.488281,0.52735 -0.28125,0.17578 -0.578125,0.17578 -0.570312,0 -0.996094,-0.56641 -0.421875,-0.57031 -0.421875,-1.625 0,-1.0625 0.414063,-1.60156 0.414062,-0.54297 1.019531,-0.54297 0.285156,0 0.53125,0.14453 0.25,0.14453 0.457031,0.4336 l 0,-2.0625 0.902344,0 0,5.72656 z m -2.402344,-2.16406 q 0,0.5625 0.09375,0.83984 0.09766,0.27344 0.273438,0.41406 0.179687,0.13672 0.402344,0.13672 0.296875,0 0.515625,-0.32031 0.21875,-0.32031 0.21875,-0.96484 0,-0.71485 -0.214844,-1.02735 -0.210938,-0.3164 -0.539063,-0.3164 -0.3125,0 -0.53125,0.30859 -0.21875,0.30859 -0.21875,0.92969 z"
       style=""
       id="path12332" />
    <path
       d="m 61.00293,468.48132 0.894531,0.18359 q -0.179688,0.625 -0.558594,0.92969 -0.378906,0.30078 -0.921875,0.30078 -0.753906,0 -1.164062,-0.50391 -0.484375,-0.58593 -0.484375,-1.64062 0,-1.03906 0.488281,-1.66406 0.414062,-0.52735 1.070312,-0.52735 0.730469,0 1.144532,0.53906 0.476562,0.61719 0.476562,1.82032 l -0.0039,0.125 -2.253906,0 q 0.0078,0.49218 0.21875,0.76172 0.214843,0.26953 0.515625,0.26953 0.433593,0 0.578125,-0.59375 z m 0.05078,-1.10938 q -0.01172,-0.48437 -0.207031,-0.72656 -0.195313,-0.24609 -0.464844,-0.24609 -0.285156,0 -0.480469,0.2539 -0.199219,0.25781 -0.195312,0.71875 l 1.347656,0 z"
       style=""
       id="path12334" />
    <path
       d="m 62.276367,465.65319 0.5,0 0,-0.3125 q 0,-0.5664 0.105469,-0.82031 0.109375,-0.25391 0.347656,-0.39844 0.242188,-0.14453 0.59375,-0.14453 0.382813,0 0.75,0.14063 l -0.117187,0.76562 q -0.21875,-0.0625 -0.417969,-0.0625 -0.191406,0 -0.277344,0.10938 -0.08594,0.10937 -0.08594,0.42968 l 0,0.29297 0.671875,0 0,0.86328 -0.671875,0 0,3.28516 -0.898438,0 0,-3.28516 -0.5,0 0,-0.86328 z"
       style=""
       id="path12336" />
  </g>
  <path
     style="fill:none;stroke:#000000;stroke-width:1.5;stroke-linecap:square;stroke-linejoin:miter;stroke-miterlimit:4;stroke-dasharray:none;stroke-opacity:1"
     d="m 55.668612,6.9141679 23.662974,0 c 3.548202,0 6.404696,2.8564944 6.404696,6.4046961 l 0,7.685635 c 0,3.548202 -2.856494,6.404696 -6.404696,6.404696 l -23.662974,0 c -3.548202,0 -6.404696,-2.856494 -6.404696,-6.404696 l 0,-7.685635 c 0,-3.5482017 2.856494,-6.4046961 6.404696,-6.4046961 z"
     id="rect12100" />
  <g
     transform="matrix(1.2809392,0,0,1.2809392,-13.3993,-582.6332)"
     style="font-style:normal;font-variant:normal;font-weight:bold;font-stretch:condensed;font-size:8px;line-height:125%;font-family:'Arial Narrow';-inkscape-font-specification:'Arial Narrow Bold Condensed';text-align:center;letter-spacing:0px;word-spacing:0px;text-anchor:middle;fill:#000000;fill-opacity:1;stroke:none"
     id="flowRoot12102">
    <path
       d="m 57.415039,470.56551 0,1.27442 -3.945312,0 q 0.06348,-0.72266 0.385742,-1.37207 0.327148,-0.6543 1.264648,-1.71387 0.742188,-0.84473 0.913086,-1.14258 0.253906,-0.43457 0.253906,-0.87402 0,-0.46875 -0.209961,-0.70801 -0.209961,-0.23926 -0.551757,-0.23926 -0.747071,0 -0.805664,1.11817 l -1.118165,-0.13672 q 0.10254,-1.09375 0.605469,-1.60645 0.507813,-0.51269 1.347656,-0.51269 0.922852,0 1.391602,0.60058 0.46875,0.60059 0.46875,1.37696 0,0.43945 -0.12207,0.85449 -0.117188,0.41015 -0.366211,0.83008 -0.249024,0.41504 -0.830078,1.06445 -0.541993,0.61035 -0.688477,0.80566 -0.141601,0.19532 -0.229492,0.38086 l 2.236328,0 z"
       style="font-size:10px;text-align:center;text-anchor:middle"
       id="path12328" />
  </g>
  <g
     transform="matrix(1.2809392,0,0,1.2809392,-4.5192,-581.018)"
     style="font-style:normal;font-variant:normal;font-weight:bold;font-stretch:condensed;font-size:8px;line-height:125%;font-family:'Arial Narrow';-inkscape-font-specification:'Arial Narrow Bold Condensed';text-align:center;letter-spacing:0px;word-spacing:0px;text-anchor:middle;fill:#000000;fill-opacity:1;stroke:none"
     id="flowRoot12110">
    <path
       d="m 54.967773,466.91882 -0.816406,-0.17969 q 0.148438,-0.62891 0.488281,-0.90234 0.34375,-0.27735 0.984375,-0.27735 0.570313,0 0.871094,0.16016 0.300781,0.16015 0.429688,0.4375 0.128906,0.27344 0.128906,1 l -0.0078,1.28125 q 0,0.53906 0.04297,0.80469 0.04297,0.26171 0.160156,0.55859 l -0.890625,0 -0.117187,-0.45313 q -0.230469,0.27344 -0.496094,0.41016 -0.261719,0.13672 -0.558594,0.13672 -0.496093,0 -0.8125,-0.33203 -0.316406,-0.33594 -0.316406,-0.89063 0,-0.35156 0.128906,-0.61328 0.128907,-0.26172 0.363282,-0.41797 0.234375,-0.15625 0.75,-0.27734 0.625,-0.14453 0.871093,-0.26953 0,-0.34375 -0.05078,-0.44922 -0.04687,-0.10938 -0.179687,-0.17578 -0.128907,-0.0703 -0.367188,-0.0703 -0.242187,0 -0.382812,0.10937 -0.136719,0.10938 -0.222657,0.41016 z m 1.203125,0.89062 q -0.171875,0.0703 -0.535156,0.16406 -0.417969,0.10938 -0.546875,0.24219 -0.128906,0.13281 -0.128906,0.34375 0,0.23828 0.140625,0.40235 0.144531,0.16015 0.359375,0.16015 0.191406,0 0.378906,-0.1289 0.1875,-0.13282 0.257813,-0.3125 0.07422,-0.17969 0.07422,-0.65235 l 0,-0.21875 z"
       style=""
       id="path12321" />
    <path
       d="m 57.893555,469.80163 0,-5.72656 0.902343,0 0,2.0625 q 0.207032,-0.28907 0.453125,-0.4336 0.25,-0.14453 0.535157,-0.14453 0.601562,0 1.015625,0.54297 0.417968,0.54297 0.417968,1.60156 0,1.05469 -0.425781,1.625 -0.425781,0.56641 -1,0.56641 -0.292969,0 -0.578125,-0.17969 -0.285156,-0.17969 -0.484375,-0.52344 l 0,0.60938 -0.835937,0 z m 0.894531,-2.16406 q 0,0.53515 0.101562,0.8164 0.101563,0.28125 0.289063,0.42969 0.1875,0.14453 0.394531,0.14453 0.296875,0 0.507813,-0.30859 0.210937,-0.3125 0.210937,-0.98438 0,-0.70703 -0.214844,-1.01953 -0.210937,-0.3164 -0.539062,-0.3164 -0.3125,0 -0.53125,0.30468 -0.21875,0.30469 -0.21875,0.9336 z"
       style=""
       id="path12323" />
    <path
       d="m 64.901367,466.87975 -0.886719,0.19532 q -0.09766,-0.65235 -0.613281,-0.65235 -0.332031,0 -0.535156,0.28125 -0.203125,0.28125 -0.203125,0.94922 0,0.73828 0.203125,1.04297 0.203125,0.30469 0.542969,0.30469 0.253906,0 0.417968,-0.17188 0.164063,-0.17578 0.234375,-0.61718 l 0.886719,0.18359 q -0.273437,1.5 -1.574219,1.5 -0.832031,0 -1.234375,-0.63281 -0.402343,-0.63282 -0.402343,-1.52344 0,-1.06641 0.453125,-1.62109 0.457031,-0.5586 1.195312,-0.5586 0.597656,0 0.972656,0.31641 0.378907,0.3164 0.542969,1.0039 z"
       style=""
       id="path12325" />
  </g>
  <path
     style="fill:none;stroke:#000000;stroke-width:1.5;stroke-linecap:square;stroke-linejoin:miter;stroke-miterlimit:4;stroke-dasharray:none;stroke-opacity:1"
     d="m 96.658602,32.139717 23.662978,0 c 3.5482,0 6.40469,2.856495 6.40469,6.404696 l 0,7.685636 c 0,3.548201 -2.85649,6.404696 -6.40469,6.404696 l -23.662978,0 c -3.548201,0 -6.404696,-2.856495 -6.404696,-6.404696 l 0,-7.685636 c 0,-3.548201 2.856495,-6.404696 6.404696,-6.404696 z"
     id="rect12120" />
  <g
     transform="matrix(1.2809392,0,0,1.2809392,27.5907,-557.40765)"
     style="font-style:normal;font-variant:normal;font-weight:bold;font-stretch:condensed;font-size:8px;line-height:125%;font-family:'Arial Narrow';-inkscape-font-specification:'Arial Narrow Bold Condensed';text-align:center;letter-spacing:0px;word-spacing:0px;text-anchor:middle;fill:#000000;fill-opacity:1;stroke:none"
     id="flowRoot12122">
    <path
       d="m 57.424805,466.43465 -1.088868,0.14649 q -0.07813,-0.80078 -0.639648,-0.80078 -0.366211,0 -0.610352,0.40039 -0.239257,0.40039 -0.302734,1.61621 0.209961,-0.30274 0.46875,-0.4541 0.258789,-0.15137 0.571289,-0.15137 0.688477,0 1.201172,0.64453 0.512695,0.63965 0.512695,1.7041 0,1.13281 -0.541992,1.77735 -0.541992,0.64453 -1.342773,0.64453 -0.878907,0 -1.459961,-0.83496 -0.576172,-0.83985 -0.576172,-2.77832 0,-1.96778 0.600586,-2.83204 0.600586,-0.86425 1.542969,-0.86425 0.649414,0 1.09375,0.44433 0.449218,0.43946 0.571289,1.33789 z m -2.543946,2.99317 q 0,0.67871 0.249024,1.04004 0.253906,0.35644 0.576172,0.35644 0.3125,0 0.517578,-0.29785 0.209961,-0.29785 0.209961,-0.97656 0,-0.70313 -0.22461,-1.02539 -0.224609,-0.32227 -0.55664,-0.32227 -0.322266,0 -0.546875,0.30762 -0.22461,0.30762 -0.22461,0.91797 z"
       style="font-size:10px;text-align:center;text-anchor:middle"
       id="path12317" />
  </g>
  <g
     transform="matrix(1.2809392,0,0,1.2809392,36.4708,-555.79245)"
     style="font-style:normal;font-variant:normal;font-weight:bold;font-stretch:condensed;font-size:8px;line-height:125%;font-family:'Arial Narrow';-inkscape-font-specification:'Arial Narrow Bold Condensed';text-align:center;letter-spacing:0px;word-spacing:0px;text-anchor:middle;fill:#000000;fill-opacity:1;stroke:none"
     id="flowRoot12130">
    <path
       d="m 52.936523,465.65319 0.828125,0 0,0.56641 q 0.222657,-0.33203 0.488282,-0.4961 0.265625,-0.16406 0.574218,-0.16406 0.328125,0 0.566407,0.16406 0.242187,0.16407 0.394531,0.4961 0.226562,-0.33203 0.484375,-0.4961 0.261719,-0.16406 0.554687,-0.16406 0.347657,0 0.597657,0.16797 0.253906,0.16406 0.382812,0.47266 0.132813,0.30859 0.132813,0.94922 l 0,2.65234 -0.902344,0 0,-2.37109 q 0,-0.6211 -0.109375,-0.82422 -0.109375,-0.20703 -0.367188,-0.20703 -0.300781,0 -0.484375,0.28906 -0.183593,0.28515 -0.183593,1.12109 l 0,1.99219 -0.902344,0 0,-2.27344 q 0,-0.67578 -0.07422,-0.87109 -0.09766,-0.25781 -0.394531,-0.25781 -0.199219,0 -0.367188,0.13281 -0.167968,0.13281 -0.242187,0.39062 -0.07422,0.25391 -0.07422,0.86328 l 0,2.01563 -0.902344,0 0,-4.14844 z"
       style=""
       id="path12310" />
    <path
       d="m 61.928711,469.80163 -0.902344,0 0,-2.11719 q 0,-0.63672 -0.05078,-0.84765 -0.05078,-0.21094 -0.191406,-0.32422 -0.136719,-0.11328 -0.3125,-0.11328 -0.226563,0 -0.410157,0.14843 -0.183593,0.14453 -0.257812,0.40235 -0.07422,0.25781 -0.07422,0.97265 l 0,1.87891 -0.902344,0 0,-4.14844 0.835938,0 0,0.60938 q 0.222656,-0.35157 0.5,-0.52735 0.28125,-0.17578 0.621094,-0.17578 0.394531,0 0.664062,0.20703 0.273438,0.20313 0.375,0.52735 0.105469,0.32031 0.105469,0.92968 l 0,2.57813 z"
       style=""
       id="path12312" />
    <path
       d="m 62.639648,467.66882 q 0,-0.60938 0.242188,-1.10938 0.242187,-0.5 0.632812,-0.75 0.390625,-0.25 0.878907,-0.25 0.820312,0 1.289062,0.64453 0.46875,0.64063 0.46875,1.5 0,0.64063 -0.246094,1.15625 -0.242187,0.51563 -0.640625,0.77735 -0.394531,0.25781 -0.867187,0.25781 -0.757813,0 -1.257813,-0.57813 -0.5,-0.57812 -0.5,-1.64843 z m 0.921875,0.0586 q 0,0.62891 0.246094,0.95313 0.246094,0.32031 0.59375,0.32031 0.339844,0 0.582031,-0.32422 0.242188,-0.32422 0.242188,-0.95703 0,-0.61719 -0.246094,-0.94141 -0.246094,-0.32422 -0.589844,-0.32422 -0.339843,0 -0.585937,0.32422 -0.242188,0.32422 -0.242188,0.94922 z"
       style=""
       id="path12314" />
  </g>
  <path
     style="fill:none;stroke:#000000;stroke-width:1.5;stroke-linecap:square;stroke-linejoin:miter;stroke-miterlimit:4;stroke-dasharray:none;stroke-opacity:1"
     d="m 14.6785,32.139717 23.662974,0 c 3.548202,0 6.404696,2.856495 6.404696,6.404696 l 0,7.685636 c 0,3.548201 -2.856494,6.404696 -6.404696,6.404696 l -23.662974,0 c -3.548202,0 -6.4046963,-2.856495 -6.4046963,-6.404696 l 0,-7.685636 c 0,-3.548201 2.8564943,-6.404696 6.4046963,-6.404696 z"
     id="rect12140" />
  <g
     style="font-style:normal;font-variant:normal;font-weight:bold;font-stretch:condensed;font-size:10.24751377px;line-height:125%;font-family:'Arial Narrow';-inkscape-font-specification:'Arial Narrow Bold Condensed';text-align:center;letter-spacing:0px;word-spacing:0px;text-anchor:middle;fill:#000000;fill-opacity:1;stroke:none"
     id="flowRoot12142">
    <path
       d="m 17.11158,46.990225 0,-1.845103 -3.077256,0 0,-1.538628 3.258639,-5.823019 1.21339,0 0,5.816765 0.931933,0 0,1.544882 -0.931933,0 0,1.845103 -1.394773,0 z m 0,-3.389985 0,-3.133548 -1.726265,3.133548 1.726265,0 z"
       style="font-size:12.80939198px;text-align:center;text-anchor:middle"
       id="path12306" />
  </g>
  <g
     transform="matrix(1.2809392,0,0,1.2809392,-45.5093,-555.79245)"
     style="font-style:normal;font-variant:normal;font-weight:bold;font-stretch:condensed;font-size:8px;line-height:125%;font-family:'Arial Narrow';-inkscape-font-specification:'Arial Narrow Bold Condensed';text-align:center;letter-spacing:0px;word-spacing:0px;text-anchor:middle;fill:#000000;fill-opacity:1;stroke:none"
     id="flowRoot12150">
    <path
       d="m 54.928711,470.07507 1.03125,0.15234 q 0.02344,0.22656 0.140625,0.32031 0.121094,0.0977 0.378906,0.0977 0.296875,0 0.480469,-0.0977 0.128906,-0.0703 0.199219,-0.23437 0.07031,-0.16406 0.07031,-0.57813 l 0,-0.60547 q -0.203125,0.33594 -0.457031,0.50391 -0.253906,0.16797 -0.5625,0.16797 -0.566406,0 -0.953125,-0.51172 -0.445313,-0.58594 -0.445313,-1.58594 0,-1.0625 0.417969,-1.60156 0.421875,-0.54297 1.019531,-0.54297 0.316407,0 0.574219,0.16797 0.261719,0.16797 0.464844,0.50781 l 0,-0.58203 0.84375,0 0,3.72266 q 0,0.89453 -0.164063,1.29687 -0.164062,0.40235 -0.507812,0.60547 -0.339844,0.20703 -0.945313,0.20703 -0.558593,0 -0.894531,-0.14843 -0.335937,-0.14844 -0.515625,-0.44532 -0.175781,-0.29297 -0.175781,-0.67968 l 0,-0.13672 z m 0.804687,-2.4336 q 0,0.66407 0.210938,0.96875 0.214844,0.30469 0.515625,0.30469 0.324219,0 0.554687,-0.30859 0.230469,-0.3086 0.230469,-0.9375 0,-0.64844 -0.222656,-0.95703 -0.21875,-0.3125 -0.542969,-0.3125 -0.320312,0 -0.535156,0.30468 -0.210938,0.30469 -0.210938,0.9375 z"
       style=""
       id="path12299" />
    <path
       d="m 59.928711,464.07507 0,2.10547 q 0.214844,-0.3125 0.472656,-0.46485 0.261719,-0.15625 0.566406,-0.15625 0.40625,0 0.679688,0.21485 0.273437,0.21484 0.390625,0.60937 0.08594,0.28906 0.08594,0.98438 l 0,2.43359 -0.898437,0 0,-2.19141 q 0,-0.76172 -0.09766,-0.95312 -0.136719,-0.25781 -0.464844,-0.25781 -0.347656,0 -0.542969,0.28125 -0.191406,0.27734 -0.191406,1.04296 l 0,2.07813 -0.902344,0 0,-5.72656 0.902344,0 z"
       style=""
       id="path12301" />
    <path
       d="m 63.030273,465.09069 0,-1.01562 0.902344,0 0,1.01562 -0.902344,0 z m 0,4.71094 0,-4.14844 0.902344,0 0,4.14844 -0.902344,0 z"
       style=""
       id="path12303" />
  </g>
  <path
     style="fill:none;stroke:#000000;stroke-width:1.5;stroke-linecap:square;stroke-linejoin:miter;stroke-miterlimit:4;stroke-dasharray:none;stroke-opacity:1"
     d="m 55.668612,32.139717 23.662974,0 c 3.548202,0 6.404696,2.856495 6.404696,6.404696 l 0,7.685636 c 0,3.548201 -2.856494,6.404696 -6.404696,6.404696 l -23.662974,0 c -3.548202,0 -6.404696,-2.856495 -6.404696,-6.404696 l 0,-7.685636 c 0,-3.548201 2.856494,-6.404696 6.404696,-6.404696 z"
     id="rect12160" />
  <g
     style="font-style:normal;font-variant:normal;font-weight:bold;font-stretch:condensed;font-size:10.24751377px;line-height:125%;font-family:'Arial Narrow';-inkscape-font-specification:'Arial Narrow Bold Condensed';text-align:center;letter-spacing:0px;word-spacing:0px;text-anchor:middle;fill:#000000;fill-opacity:1;stroke:none"
     id="flowRoot12162">
    <path
       d="m 55.29976,44.632246 1.438555,-0.181383 q 0.05629,0.60044 0.369021,0.944443 0.312729,0.344002 0.688004,0.344002 0.444076,0 0.763059,-0.437821 0.318984,-0.444076 0.318984,-1.357245 0,-0.863133 -0.318984,-1.275936 -0.312729,-0.412802 -0.800587,-0.412802 -0.619204,0 -1.113316,0.66924 l -1.169607,-0.206401 0.738041,-4.772249 3.809043,0 0,1.644956 -2.714491,0 -0.231419,1.557392 q 0.487857,-0.293966 0.988224,-0.293966 0.888151,0 1.507355,0.700514 0.781824,0.894406 0.781824,2.357979 0,1.207135 -0.669241,2.220378 -0.662986,1.013243 -1.901394,1.013243 -1.000734,0 -1.676229,-0.650477 -0.669241,-0.656732 -0.806842,-1.863867 z"
       style="font-size:12.80939198px;text-align:center;text-anchor:middle"
       id="path12295" />
  </g>
  <g
     transform="matrix(1.2809392,0,0,1.2809392,-4.5192,-555.79245)"
     style="font-style:normal;font-variant:normal;font-weight:bold;font-stretch:condensed;font-size:8px;line-height:125%;font-family:'Arial Narrow';-inkscape-font-specification:'Arial Narrow Bold Condensed';text-align:center;letter-spacing:0px;word-spacing:0px;text-anchor:middle;fill:#000000;fill-opacity:1;stroke:none"
     id="flowRoot12170">
    <path
       d="m 56.260742,465.09069 0,-1.01562 0.902344,0 0,1.01562 -0.902344,0 z m 0.902344,0.5625 0,4.01953 q 0,0.84766 -0.09375,1.16016 -0.09375,0.3125 -0.335938,0.48047 -0.242187,0.17187 -0.597656,0.17187 -0.269531,0 -0.625,-0.11718 l 0.15625,-0.9375 q 0.128906,0.0351 0.222656,0.0351 0.234375,0 0.324219,-0.1875 0.04687,-0.10156 0.04687,-0.66797 l 0,-3.95703 0.902344,0 z"
       style=""
       id="path12288" />
    <path
       d="m 58.077148,469.80163 0,-5.72656 0.902344,0 0,3.03906 1.050781,-1.46094 1.109375,0 -1.164062,1.51563 1.246094,2.63281 -0.96875,0 -0.859375,-1.86328 -0.414063,0.53515 0,1.32813 -0.902344,0 z"
       style=""
       id="path12290" />
    <path
       d="m 61.764648,469.80163 0,-5.72656 0.902344,0 0,5.72656 -0.902344,0 z"
       style=""
       id="path12292" />
  </g>
  <path
     style="fill:none;stroke:#000000;stroke-width:1.5;stroke-linecap:square;stroke-linejoin:miter;stroke-miterlimit:4;stroke-dasharray:none;stroke-opacity:1"
     d="m 14.6785,57.365269 23.662974,0 c 3.548202,0 6.404696,2.856494 6.404696,6.404696 l 0,7.685635 c 0,3.548202 -2.856494,6.404696 -6.404696,6.404696 l -23.662974,0 c -3.548202,0 -6.4046963,-2.856494 -6.4046963,-6.404696 l 0,-7.685635 c 0,-3.548202 2.8564943,-6.404696 6.4046963,-6.404696 z"
     id="rect12242" />
  <g
     transform="translate(-1464.0979,105.87345)"
     style="font-style:normal;font-variant:normal;font-weight:bold;font-stretch:condensed;font-size:10.24751377px;line-height:125%;font-family:'Arial Narrow';-inkscape-font-specification:'Arial Narrow Bold Condensed';text-align:center;letter-spacing:0px;word-spacing:0px;text-anchor:middle;fill:#000000;fill-opacity:1;stroke:none"
     id="flowRoot12244">
    <path
       d="m 1478.3822,-41.069897 0,-1.632447 4.9286,0 0,1.275936 q -0.6067,0.731786 -1.2322,2.082777 -0.6192,1.344736 -0.9632,2.889619 -0.3377,1.538628 -0.3377,2.7958 l -1.3885,0 q 0.05,-1.951431 0.6504,-3.896607 0.6005,-1.945177 1.62,-3.515078 l -3.2774,0 z"
       style="font-size:12.80939198px;text-align:center;text-anchor:middle"
       id="path12284" />
  </g>
  <g
     transform="matrix(1.2809392,0,0,1.2809392,-45.5093,-530.5669)"
     style="font-style:normal;font-variant:normal;font-weight:bold;font-stretch:condensed;font-size:8px;line-height:125%;font-family:'Arial Narrow';-inkscape-font-specification:'Arial Narrow Bold Condensed';text-align:center;letter-spacing:0px;word-spacing:0px;text-anchor:middle;fill:#000000;fill-opacity:1;stroke:none"
     id="flowRoot12252">
    <path
       d="m 52.78418,465.65319 0.839843,0 0,0.60938 q 0.171875,-0.32813 0.453125,-0.51563 0.28125,-0.1875 0.605469,-0.1875 0.582031,0 1,0.55469 0.421875,0.55469 0.421875,1.57422 0,1.07031 -0.421875,1.64062 -0.421875,0.56641 -1.003906,0.56641 -0.269531,0 -0.503906,-0.12891 -0.230469,-0.13281 -0.488282,-0.47656 l 0,2.08984 -0.902343,0 0,-5.72656 z m 0.890625,2.00391 q 0,0.70312 0.226562,1.03515 0.230469,0.33204 0.554688,0.33204 0.308593,0 0.519531,-0.30469 0.210937,-0.3086 0.210937,-1.00391 0,-0.66015 -0.21875,-0.97265 -0.214843,-0.31641 -0.527343,-0.31641 -0.328125,0 -0.546875,0.30859 -0.21875,0.30469 -0.21875,0.92188 z"
       style=""
       id="path12275" />
    <path
       d="m 59.049805,471.37975 0,-2.08593 q -0.183594,0.28906 -0.449219,0.44531 -0.265625,0.15625 -0.558594,0.15625 -0.570312,0 -0.984375,-0.57031 -0.410156,-0.57032 -0.410156,-1.64453 0,-1.01563 0.417969,-1.56641 0.421875,-0.55469 1.027343,-0.55469 0.324219,0 0.578125,0.17578 0.257813,0.17578 0.449219,0.53125 l 0,-0.61328 0.828125,0 0,5.72656 -0.898437,0 z m 0.03125,-3.70312 q 0,-0.64453 -0.214844,-0.94922 -0.214844,-0.30859 -0.535156,-0.30859 -0.324219,0 -0.542969,0.3164 -0.21875,0.3125 -0.21875,1.00782 0,0.68359 0.210937,0.98437 0.214844,0.30078 0.519532,0.30078 0.308593,0 0.542968,-0.33594 0.238282,-0.33593 0.238282,-1.01562 z"
       style=""
       id="path12277" />
    <path
       d="m 61.706055,469.80163 -0.902344,0 0,-4.14844 0.835937,0 0,0.58985 q 0.214844,-0.41407 0.382813,-0.54688 0.171875,-0.13672 0.394531,-0.13672 0.308594,0 0.589844,0.20703 l -0.28125,0.95703 q -0.222656,-0.17968 -0.421875,-0.17968 -0.1875,0 -0.332031,0.14062 -0.140625,0.13672 -0.203125,0.5 -0.0625,0.36328 -0.0625,1.33594 l 0,1.28125 z"
       style=""
       id="path12279" />
    <path
       d="m 63.088867,468.61804 0.902344,-0.16797 q 0.117187,0.65234 0.726562,0.65234 0.324219,0 0.484375,-0.125 0.160157,-0.125 0.160157,-0.32422 0,-0.13672 -0.07031,-0.21484 -0.07422,-0.0781 -0.292969,-0.13672 -1.109375,-0.29297 -1.410156,-0.55859 -0.375,-0.33204 -0.375,-0.91016 0,-0.57813 0.367188,-0.92578 0.367187,-0.34766 1.066406,-0.34766 0.667969,0 1.015625,0.26172 0.347656,0.25781 0.488281,0.83594 l -0.847656,0.1914 q -0.113281,-0.5 -0.640625,-0.5 -0.332031,0 -0.472656,0.0977 -0.140625,0.0937 -0.140625,0.24609 0,0.13672 0.128906,0.22657 0.128906,0.0937 0.800781,0.28125 0.753906,0.21093 1.023438,0.51172 0.265625,0.30078 0.265625,0.80078 0,0.60156 -0.414063,0.99218 -0.410156,0.39063 -1.136719,0.39063 -0.660156,0 -1.078125,-0.32422 -0.417968,-0.32812 -0.550781,-0.95312 z"
       style=""
       id="path12281" />
  </g>
  <path
     style="fill:none;stroke:#000000;stroke-width:1.5;stroke-linecap:square;stroke-linejoin:miter;stroke-miterlimit:4;stroke-dasharray:none;stroke-opacity:1"
     d="m 14.6785,82.590805 23.662974,0 c 3.548202,0 6.404696,2.856494 6.404696,6.404696 l 0,7.685636 c 0,3.548203 -2.856494,6.404693 -6.404696,6.404693 l -23.662974,0 c -3.548202,0 -6.4046963,-2.85649 -6.4046963,-6.404693 l 0,-7.685636 c 0,-3.548202 2.8564943,-6.404696 6.4046963,-6.404696 z"
     id="rect12262" />
  <g
     transform="matrix(1.2809392,0,0,1.2809392,-58.1251,-508.85663)"
     style="font-style:normal;font-variant:normal;font-weight:bold;font-stretch:condensed;font-size:10px;line-height:125%;font-family:'Arial Narrow';-inkscape-font-specification:'Arial Narrow Bold Condensed';text-align:center;letter-spacing:0px;word-spacing:0px;text-anchor:middle;fill:#000000;fill-opacity:1;stroke:none"
     id="flowRoot12264">
    <path
       d="m 57.457764,472.71597 -1.059571,-0.99976 q 0.333252,-0.46143 0.649414,-0.84595 l 0.675049,-0.80322 q -0.170898,-0.0342 -1.008301,-0.28198 -0.581054,-0.17945 -0.777587,-0.2649 l 0.410156,-1.5039 q 0.888672,0.44433 1.640625,0.99975 -0.170899,-1.37573 -0.162354,-2.27294 l 1.239014,0 q 0,0.60668 -0.187988,2.29003 l 0.606689,-0.33325 q 0.640869,-0.35034 1.16211,-0.59814 l 0.375976,1.54663 q -0.786133,0.21362 -1.802978,0.4187 l 1.239013,1.72607 -1.068115,0.86304 -0.957031,-1.90552 q -0.393067,0.88013 -0.974121,1.96534 z"
       style="font-size:17.5px;text-align:center;text-anchor:middle"
       id="path12271" />
  </g>
  <path
     style="fill:none;stroke:#000000;stroke-width:1.5;stroke-linecap:square;stroke-linejoin:miter;stroke-miterlimit:4;stroke-dasharray:none;stroke-opacity:1"
     d="m 96.658602,57.365269 23.662978,0 c 3.5482,0 6.40469,2.856494 6.40469,6.404696 l 0,7.685635 c 0,3.548202 -2.85649,6.404696 -6.40469,6.404696 l -23.662978,0 c -3.548201,0 -6.404696,-2.856494 -6.404696,-6.404696 l 0,-7.685635 c 0,-3.548202 2.856495,-6.404696 6.404696,-6.404696 z"
     id="rect12282" />
  <g
     transform="translate(-1464.0979,105.87345)"
     style="font-style:normal;font-variant:normal;font-weight:bold;font-stretch:condensed;font-size:10.24751377px;line-height:125%;font-family:'Arial Narrow';-inkscape-font-specification:'Arial Narrow Bold Condensed';text-align:center;letter-spacing:0px;word-spacing:0px;text-anchor:middle;fill:#000000;fill-opacity:1;stroke:none"
     id="flowRoot12284">
    <path
       d="m 1560.3939,-35.778517 1.3948,-0.187638 q 0.1001,1.019498 0.8131,1.019498 0.4816,0 0.7881,-0.506622 0.3064,-0.512876 0.394,-2.070268 -0.269,0.38153 -0.6067,0.575422 -0.3378,0.193893 -0.7506,0.193893 -0.8568,0 -1.5198,-0.819351 -0.6568,-0.819351 -0.6568,-2.176596 0,-1.451064 0.6943,-2.282924 0.6943,-0.83186 1.7138,-0.83186 1.1383,0 1.8763,1.075789 0.7381,1.069534 0.7381,3.552605 0,2.526852 -0.7693,3.633914 -0.7693,1.107062 -1.9952,1.107062 -0.8507,0 -1.4073,-0.556658 -0.5504,-0.562913 -0.7068,-1.726266 z m 3.2649,-3.840316 q 0,-0.863133 -0.3252,-1.325972 -0.3253,-0.462839 -0.7381,-0.462839 -0.4003,0 -0.6692,0.381529 -0.2627,0.38153 -0.2627,1.269681 0,0.888152 0.2877,1.300954 0.294,0.412803 0.7193,0.412803 0.4065,0 0.6942,-0.394039 0.294,-0.394039 0.294,-1.182117 z"
       style="font-size:12.80939198px;text-align:center;text-anchor:middle"
       id="path12267" />
  </g>
  <g
     transform="translate(-1464.0979,105.87345)"
     style="font-style:normal;font-variant:normal;font-weight:bold;font-stretch:condensed;font-size:10.24751377px;line-height:125%;font-family:'Arial Narrow';-inkscape-font-specification:'Arial Narrow Bold Condensed';text-align:center;letter-spacing:0px;word-spacing:0px;text-anchor:middle;fill:#000000;fill-opacity:1;stroke:none"
     id="flowRoot12292">
    <path
       d="m 1568.0919,-34.653913 -1.381,-5.313897 1.1209,0 0.8155,3.482554 0.7506,-3.482554 1.1108,0 0.7255,3.482554 0.8357,-3.482554 1.1358,0 -1.401,5.313897 -1.1058,0 -0.7506,-3.417506 -0.7405,3.417506 -1.1159,0 z"
       style=""
       id="path12258" />
    <path
       d="m 1573.2657,-34.653913 1.5712,-2.737007 -1.5061,-2.57689 1.411,0 0.7706,1.461072 0.8106,-1.461072 1.351,0 -1.4761,2.516846 1.6162,2.797051 -1.4161,0 -0.8856,-1.646208 -0.9007,1.646208 -1.346,0 z"
       style=""
       id="path12260" />
    <path
       d="m 1577.9542,-39.96781 1.2309,0 1.0357,3.772767 1.0208,-3.772767 1.1909,0 -1.5362,5.11375 -0.2952,0.99573 q -0.1951,0.560411 -0.3903,0.820602 -0.1901,0.26019 -0.4903,0.400293 -0.2952,0.140103 -0.7306,0.140103 -0.3352,0 -0.6554,-0.08506 l -0.1001,-1.100807 q 0.2702,0.06505 0.4853,0.06505 0.3303,0 0.5404,-0.220161 0.2152,-0.220162 0.3503,-0.800587 l -1.6562,-5.328908 z"
       style=""
       id="path12262" />
    <path
       d="m 1582.7227,-34.653913 0,-1.095804 1.6362,-2.286677 q 0.4003,-0.560411 0.5904,-0.795583 -0.2001,0.01501 -0.5304,0.02002 l -1.5361,0.01001 0,-1.165855 3.6026,0 0,0.99573 -1.6662,2.341717 -0.5854,0.775569 q 0.4803,-0.03503 0.5954,-0.03503 l 1.7863,0 0,1.235907 -3.8928,0 z"
       style=""
       id="path12264" />
  </g>
  <path
     style="fill:none;stroke:#000000;stroke-width:1.5;stroke-linecap:square;stroke-linejoin:miter;stroke-miterlimit:4;stroke-dasharray:none;stroke-opacity:1"
     d="m 55.668612,57.365269 23.662974,0 c 3.548202,0 6.404696,2.856494 6.404696,6.404696 l 0,7.685635 c 0,3.548202 -2.856494,6.404696 -6.404696,6.404696 l -23.662974,0 c -3.548202,0 -6.404696,-2.856494 -6.404696,-6.404696 l 0,-7.685635 c 0,-3.548202 2.856494,-6.404696 6.404696,-6.404696 z"
     id="rect12302" />
  <g
     transform="matrix(1.2809392,0,0,1.2809392,-13.3993,-532.1821)"
     style="font-style:normal;font-variant:normal;font-weight:bold;font-stretch:condensed;font-size:8px;line-height:125%;font-family:'Arial Narrow';-inkscape-font-specification:'Arial Narrow Bold Condensed';text-align:center;letter-spacing:0px;word-spacing:0px;text-anchor:middle;fill:#000000;fill-opacity:1;stroke:none"
     id="flowRoot12304">
    <path
       d="m 54.583008,467.97762 q -0.415039,-0.21484 -0.625,-0.58594 -0.209961,-0.37109 -0.209961,-0.89355 0,-0.84473 0.478515,-1.34277 0.478516,-0.50293 1.289063,-0.50293 0.859375,0 1.308594,0.53711 0.449218,0.53222 0.449218,1.29882 0,0.52247 -0.219726,0.90821 -0.214844,0.38086 -0.59082,0.58105 0.502929,0.24414 0.751953,0.68848 0.249023,0.43945 0.249023,1.08398 0,0.66407 -0.249023,1.17188 -0.244141,0.50781 -0.678711,0.77637 -0.434571,0.26855 -0.976563,0.26855 -0.849609,0 -1.40625,-0.58594 -0.551758,-0.59082 -0.551758,-1.58691 0,-0.64453 0.253907,-1.1084 0.253906,-0.46387 0.727539,-0.70801 z m 0.229492,-1.38183 q 0,0.41992 0.195312,0.64453 0.200196,0.22461 0.50293,0.22461 0.307617,0 0.507813,-0.22461 0.200195,-0.22461 0.200195,-0.64453 0,-0.40528 -0.200195,-0.62989 -0.195313,-0.22461 -0.493164,-0.22461 -0.3125,0 -0.512696,0.2295 -0.200195,0.22461 -0.200195,0.625 z m -0.102539,3.0664 q 0,0.57617 0.244141,0.88867 0.24414,0.3125 0.585937,0.3125 0.341797,0 0.571289,-0.29785 0.234375,-0.29785 0.234375,-0.89355 0,-0.5127 -0.239258,-0.81055 -0.234375,-0.29785 -0.581054,-0.29785 -0.341797,0 -0.581055,0.30273 -0.234375,0.29786 -0.234375,0.7959 z"
       style="font-size:10px;text-align:center;text-anchor:middle"
       id="path12254" />
  </g>
  <g
     style="font-style:normal;font-variant:normal;font-weight:bold;font-stretch:condensed;font-size:10.24751377px;line-height:125%;font-family:'Arial Narrow';-inkscape-font-specification:'Arial Narrow Bold Condensed';text-align:center;letter-spacing:0px;word-spacing:0px;text-anchor:middle;fill:#000000;fill-opacity:1;stroke:none"
     id="flowRoot12312">
    <path
       d="m 67.932665,65.905237 0,1.120822 -0.785576,0 0,2.14157 q 0,0.69551 0.03503,0.805591 0.07005,0.200147 0.285209,0.200147 0.160118,0 0.460338,-0.135099 l 0.100073,1.090799 q -0.400293,0.210154 -0.905664,0.210154 -0.440323,0 -0.705517,-0.210154 -0.265194,-0.210154 -0.35526,-0.605444 -0.07005,-0.290212 -0.07005,-1.180865 l 0,-2.316699 -0.530389,0 0,-1.120822 0.530389,0 0,-1.055774 1.155848,-0.820602 0,1.876376 0.785576,0 z"
       style=""
       id="path12247" />
    <path
       d="m 71.605358,71.219133 0,-0.795583 q -0.240176,0.430316 -0.630463,0.675495 -0.390286,0.240176 -0.815598,0.240176 -0.430315,0 -0.770565,-0.225165 -0.340249,-0.225165 -0.510374,-0.640469 -0.165121,-0.415305 -0.165121,-1.205884 l 0,-3.362466 1.155848,0 0,2.44179 q 0,1.045767 0.05004,1.330976 0.05504,0.280206 0.235173,0.43532 0.180132,0.155113 0.435319,0.155113 0.290213,0 0.535392,-0.200146 0.24518,-0.205151 0.320235,-0.520382 0.08006,-0.320235 0.08006,-1.401027 l 0,-2.241644 1.150844,0 0,5.313896 -1.070785,0 z"
       style=""
       id="path12249" />
    <path
       d="m 75.082908,71.219133 -1.756288,-5.313896 1.210888,0 0.820602,2.711989 0.235172,0.905664 0.24518,-0.905664 0.830609,-2.711989 1.180866,0 -1.73127,5.313896 -1.035759,0 z"
       style=""
       id="path12251" />
  </g>
  <path
     style="fill:none;stroke:#000000;stroke-width:1.5;stroke-linecap:square;stroke-linejoin:miter;stroke-miterlimit:4;stroke-dasharray:none;stroke-opacity:1"
     d="m 96.658602,82.590805 23.662978,0 c 3.5482,0 6.40469,2.856494 6.40469,6.404696 l 0,7.685636 c 0,3.548203 -2.85649,6.404693 -6.40469,6.404693 l -23.662978,0 c -3.548201,0 -6.404696,-2.85649 -6.404696,-6.404693 l 0,-7.685636 c 0,-3.548202 2.856495,-6.404696 6.404696,-6.404696 z"
     id="rect12322" />
  <g
     transform="matrix(1.2809392,0,0,1.2809392,27.5908,-506.95655)"
     style="font-style:normal;font-variant:normal;font-weight:bold;font-stretch:condensed;font-size:8px;line-height:125%;font-family:'Arial Narrow';-inkscape-font-specification:'Arial Narrow Bold Condensed';text-align:center;letter-spacing:0px;word-spacing:0px;text-anchor:middle;fill:#000000;fill-opacity:1;stroke:none"
     id="flowRoot12324">
    <path
       d="m 53.879883,470.0577 -0.541992,0 0,-1.07422 0.722656,0 0.239258,-1.44043 -0.961914,0 0,-1.0791 1.142578,0 0.3125,-1.9043 0.898437,0 -0.3125,1.9043 0.878906,0 0.3125,-1.9043 0.927735,0 -0.322266,1.9043 0.556641,0 0,1.0791 -0.732422,0 -0.244141,1.44043 0.976563,0 0,1.07422 -1.152344,0 -0.322266,1.9043 -0.893554,0 0.3125,-1.9043 -0.888672,0 -0.317383,1.9043 -0.90332,0 0.3125,-1.9043 z m 1.318359,-2.51465 -0.234375,1.44043 0.888672,0 0.234375,-1.44043 -0.888672,0 z"
       style="font-size:10px;text-align:center;text-anchor:middle"
       id="path12243" />
  </g>
  <path
     style="fill:none;stroke:#000000;stroke-width:1.5;stroke-linecap:square;stroke-linejoin:miter;stroke-miterlimit:4;stroke-dasharray:none;stroke-opacity:1"
     d="m 55.668612,82.590805 23.662974,0 c 3.548202,0 6.404696,2.856494 6.404696,6.404696 l 0,7.685636 c 0,3.548203 -2.856494,6.404693 -6.404696,6.404693 l -23.662974,0 c -3.548202,0 -6.404696,-2.85649 -6.404696,-6.404693 l 0,-7.685636 c 0,-3.548202 2.856494,-6.404696 6.404696,-6.404696 z"
     id="rect12342" />
  <g
     transform="matrix(1.2809392,0,0,1.2809392,-13.3993,-506.95656)"
     style="font-style:normal;font-variant:normal;font-weight:bold;font-stretch:condensed;font-size:8px;line-height:125%;font-family:'Arial Narrow';-inkscape-font-specification:'Arial Narrow Bold Condensed';text-align:center;letter-spacing:0px;word-spacing:0px;text-anchor:middle;fill:#000000;fill-opacity:1;stroke:none"
     id="flowRoot12344">
    <path
       d="m 55.515625,464.65243 q 0.854492,0 1.381836,0.81543 0.527344,0.81054 0.527344,2.84179 0,2.02637 -0.527344,2.8418 -0.527344,0.81055 -1.376953,0.81055 -0.854492,0 -1.381836,-0.80567 -0.527344,-0.80566 -0.527344,-2.86133 0,-2.0166 0.527344,-2.82714 0.527344,-0.81543 1.376953,-0.81543 z m 0,1.13769 q -0.332031,0 -0.532227,0.43946 -0.195312,0.43945 -0.195312,2.08007 0,1.64063 0.195312,2.08008 0.200196,0.43457 0.532227,0.43457 0.336914,0 0.532227,-0.43945 0.195312,-0.43945 0.195312,-2.0752 0,-1.64062 -0.195312,-2.08007 -0.195313,-0.43946 -0.532227,-0.43946 z"
       style="font-size:10px;text-align:center;text-anchor:middle"
       id="path12239" />
  </g>
  <g
     transform="matrix(1.2809392,0,0,1.2809392,1459.5787,-1553.577)"
     style="font-style:normal;font-variant:normal;font-weight:bold;font-stretch:condensed;font-size:8px;line-height:125%;font-family:'Arial Narrow';-inkscape-font-specification:'Arial Narrow Bold Condensed';text-align:center;letter-spacing:0px;word-spacing:0px;text-anchor:middle;fill:#000000;fill-opacity:1;stroke:none"
     id="flowRoot12352" />
</svg>
