<?xml version="1.0" encoding="UTF-8" standalone="no"?>
<!-- Created with Inkscape (http://www.inkscape.org/) -->

<svg
   xmlns:dc="http://purl.org/dc/elements/1.1/"
   xmlns:cc="http://creativecommons.org/ns#"
   xmlns:rdf="http://www.w3.org/1999/02/22-rdf-syntax-ns#"
   xmlns:svg="http://www.w3.org/2000/svg"
   xmlns="http://www.w3.org/2000/svg"
   xmlns:sodipodi="http://sodipodi.sourceforge.net/DTD/sodipodi-0.dtd"
   xmlns:inkscape="http://www.inkscape.org/namespaces/inkscape"
   width="140"
   height="305"
   id="svg2"
   version="1.1"
   inkscape:version="0.91 r13725"
   sodipodi:docname="mobile-keypad.svg">
  <defs
     id="defs4">
    <inkscape:path-effect
       effect="powerstroke"
       id="path-effect4269"
       is_visible="true"
       offset_points="0,1"
       sort_points="true"
       interpolator_type="Linear"
       interpolator_beta="0.2"
       start_linecap_type="zerowidth"
       linejoin_type="round"
       miter_limit="4"
       end_linecap_type="zerowidth"
       cusp_linecap_type="round" />
  </defs>
  <sodipodi:namedview
     id="base"
     pagecolor="#ffffff"
     bordercolor="#666666"
     borderopacity="1.0"
     inkscape:pageopacity="0.0"
     inkscape:pageshadow="2"
     inkscape:zoom="2.3033895"
     inkscape:cx="157.02616"
     inkscape:cy="169.89993"
     inkscape:document-units="px"
     inkscape:current-layer="svg2"
     showgrid="false"
     inkscape:window-width="1433"
     inkscape:window-height="824"
     inkscape:window-x="0"
     inkscape:window-y="0"
     inkscape:window-maximized="0"
     showguides="true"
     inkscape:guide-bbox="true" />
  <metadata
     id="metadata7">
    <rdf:RDF>
      <cc:Work
         rdf:about="">
        <dc:format>image/svg+xml</dc:format>
        <dc:type
           rdf:resource="http://purl.org/dc/dcmitype/StillImage" />
        <dc:title></dc:title>
      </cc:Work>
    </rdf:RDF>
  </metadata>
  <g
     inkscape:label="Layer 1"
     inkscape:groupmode="layer"
     id="layer1"
     transform="translate(0,-747.36219)" />
  <g
     inkscape:groupmode="layer"
     id="layer2"
     inkscape:label="Phone"
     transform="translate(0,-747.36219)" />
  <g
     transform="translate(1494.1738,-1246.4384)"
     style="font-style:normal;font-variant:normal;font-weight:bold;font-stretch:condensed;font-size:8px;line-height:125%;font-family:'Arial Narrow';-inkscape-font-specification:'Arial Narrow Bold Condensed';text-align:center;letter-spacing:0px;word-spacing:0px;text-anchor:middle;fill:#000000;fill-opacity:1;stroke:none"
     id="flowRoot12332" />
  <g
     transform="matrix(1.2809392,0,0,1.2809392,1418.5886,-1434.2536)"
     style="font-style:normal;font-variant:normal;font-weight:bold;font-stretch:condensed;font-size:8px;line-height:125%;font-family:'Arial Narrow';-inkscape-font-specification:'Arial Narrow Bold Condensed';text-align:center;letter-spacing:0px;word-spacing:0px;text-anchor:middle;fill:#000000;fill-opacity:1;stroke:none"
     id="flowRoot12022-8" />
  <g
     transform="translate(0,-747.36219)"
     style="font-style:normal;font-variant:normal;font-weight:bold;font-stretch:condensed;font-size:10.24751377px;line-height:125%;font-family:'Arial Narrow';-inkscape-font-specification:'Arial Narrow Bold Condensed';text-align:center;letter-spacing:0px;word-spacing:0px;text-anchor:middle;fill:#000000;fill-opacity:1;stroke:none"
     id="flowRoot12272" />
  <g
     transform="matrix(1.2809392,0,0,1.2809392,1459.5787,-1358.577)"
     style="font-style:normal;font-variant:normal;font-weight:bold;font-stretch:condensed;font-size:8px;line-height:125%;font-family:'Arial Narrow';-inkscape-font-specification:'Arial Narrow Bold Condensed';text-align:center;letter-spacing:0px;word-spacing:0px;text-anchor:middle;fill:#000000;fill-opacity:1;stroke:none"
     id="flowRoot12352" />
  <path
     inkscape:connector-curvature="0"
     style="fill:none;stroke:#000000;stroke-width:1.5;stroke-linecap:square;stroke-linejoin:miter;stroke-miterlimit:4;stroke-dasharray:none;stroke-opacity:1"
     d="m 17.178464,197.60922 23.662974,0 c 3.548202,0 6.404696,2.85649 6.404696,6.40469 l 0,7.68564 c 0,3.5482 -2.856494,6.4047 -6.404696,6.4047 l -23.662974,0 c -3.548202,0 -6.404697,-2.8565 -6.404697,-6.4047 l 0,-7.68564 c 0,-3.5482 2.856495,-6.40469 6.404697,-6.40469 z"
     id="rect12032" />
  <path
     id="path12343"
     style="font-style:normal;font-variant:normal;font-weight:bold;font-stretch:condensed;font-size:10px;line-height:125%;font-family:'Arial Narrow';-inkscape-font-specification:'Arial Narrow Bold Condensed';text-align:center;letter-spacing:0px;word-spacing:0px;text-anchor:middle;fill:#000000;fill-opacity:1;stroke:none"
     d="m 20.473621,212.46011 -1.438554,0 0,-6.62361 q -0.806842,0.90692 -1.863868,1.33223 l 0,-1.59492 q 0.600441,-0.24393 1.244663,-0.86939 0.644223,-0.63171 0.894406,-1.45106 l 1.163353,0 0,9.20675 z"
     inkscape:connector-curvature="0" />
  <path
     inkscape:connector-curvature="0"
     style="fill:none;stroke:#000000;stroke-width:1.5;stroke-linecap:square;stroke-linejoin:miter;stroke-miterlimit:4;stroke-dasharray:none;stroke-opacity:1"
     d="m 99.158566,197.60922 23.662974,0 c 3.5482,0 6.40469,2.85649 6.40469,6.40469 l 0,7.68564 c 0,3.5482 -2.85649,6.4047 -6.40469,6.4047 l -23.662974,0 c -3.548201,0 -6.404696,-2.8565 -6.404696,-6.4047 l 0,-7.68564 c 0,-3.5482 2.856495,-6.40469 6.404696,-6.40469 z"
     id="rect12080" />
  <path
     id="path12339"
     style="font-style:normal;font-variant:normal;font-weight:bold;font-stretch:condensed;font-size:10px;line-height:125%;font-family:'Arial Narrow';-inkscape-font-specification:'Arial Narrow Bold Condensed';text-align:center;letter-spacing:0px;word-spacing:0px;text-anchor:middle;fill:#000000;fill-opacity:1;stroke:none"
     d="m 98.71348,210.02707 1.39477,-0.2064 q 0.0563,0.65048 0.35651,0.99449 0.30022,0.34399 0.70677,0.34399 0.44408,0 0.75055,-0.40654 0.30648,-0.40655 0.30648,-1.12583 0,-0.66924 -0.29397,-1.05077 -0.29396,-0.38153 -0.71302,-0.38153 -0.2752,0 -0.65673,0.13135 l 0.15636,-1.43231 q 0.55666,0.0128 0.8819,-0.30021 0.31898,-0.31273 0.31898,-0.8819 0,-0.47535 -0.23142,-0.74429 -0.23142,-0.26895 -0.59418,-0.26895 -0.36277,0 -0.63172,0.31273 -0.26269,0.30646 -0.31273,0.91317 l -1.332224,-0.27521 q 0.206402,-1.25717 0.806842,-1.82634 0.600442,-0.56916 1.513612,-0.56916 1.02575,0 1.62619,0.73179 0.6067,0.73177 0.6067,1.61993 0,0.60044 -0.27521,1.08204 -0.26894,0.48161 -0.81309,0.84437 0.63171,0.16888 1.02575,0.74431 0.40029,0.57541 0.40029,1.43854 0,1.25718 -0.75055,2.08278 -0.74429,0.81936 -1.7763,0.81936 -0.98822,0 -1.676228,-0.69427 -0.681751,-0.69426 -0.794332,-1.89514 z"
     inkscape:connector-curvature="0" />
  <path
     style="font-style:normal;font-variant:normal;font-weight:bold;font-stretch:condensed;font-size:medium;line-height:125%;font-family:'Arial Narrow';-inkscape-font-specification:'Arial Narrow Bold Condensed';text-align:center;letter-spacing:0px;word-spacing:0px;text-anchor:middle;fill:#000000;fill-opacity:1;stroke:none"
     id="path12332"
     d="m 113.43911,211.46437 -1.07578,0 0,-0.78057 q -0.2652,0.45034 -0.62546,0.6755 -0.36027,0.22516 -0.74055,0.22516 -0.73053,0 -1.27593,-0.72553 -0.5404,-0.73054 -0.5404,-2.08153 0,-1.361 0.53039,-2.0515 0.53039,-0.69551 1.30596,-0.69551 0.36527,0 0.6805,0.18513 0.32023,0.18513 0.58543,0.55542 l 0,-2.64194 1.15584,0 0,7.33537 z m -3.07725,-2.77203 q 0,0.72053 0.12009,1.07579 0.12509,0.35026 0.35025,0.53038 0.23017,0.17513 0.51538,0.17513 0.38028,0 0.66049,-0.41029 0.2802,-0.4103 0.2802,-1.2359 0,-0.91568 -0.2752,-1.31598 -0.2702,-0.40529 -0.69051,-0.40529 -0.40029,0 -0.6805,0.39529 -0.2802,0.39528 -0.2802,1.19087 z"
     inkscape:connector-curvature="0" />
  <path
     style="font-style:normal;font-variant:normal;font-weight:bold;font-stretch:condensed;font-size:medium;line-height:125%;font-family:'Arial Narrow';-inkscape-font-specification:'Arial Narrow Bold Condensed';text-align:center;letter-spacing:0px;word-spacing:0px;text-anchor:middle;fill:#000000;fill-opacity:1;stroke:none"
     id="path12334"
     d="m 117.11181,209.77314 1.14584,0.23516 q -0.23017,0.80059 -0.71553,1.19088 -0.48535,0.38528 -1.18086,0.38528 -0.96571,0 -1.4911,-0.64548 -0.62045,-0.75054 -0.62045,-2.10153 0,-1.33097 0.62546,-2.13156 0.53039,-0.6755 1.371,-0.6755 0.93569,0 1.46608,0.6905 0.61045,0.79058 0.61045,2.33172 l -0.005,0.16012 -2.88712,0 q 0.01,0.63045 0.28021,0.97571 0.2752,0.34525 0.66048,0.34525 0.55541,0 0.74055,-0.76055 z m 0.065,-1.42105 q -0.015,-0.62045 -0.26519,-0.93068 -0.25018,-0.31523 -0.59544,-0.31523 -0.36526,0 -0.61545,0.32523 -0.25519,0.33024 -0.25018,0.92068 l 1.72626,0 z"
     inkscape:connector-curvature="0" />
  <path
     style="font-style:normal;font-variant:normal;font-weight:bold;font-stretch:condensed;font-size:medium;line-height:125%;font-family:'Arial Narrow';-inkscape-font-specification:'Arial Narrow Bold Condensed';text-align:center;letter-spacing:0px;word-spacing:0px;text-anchor:middle;fill:#000000;fill-opacity:1;stroke:none"
     id="path12336"
     d="m 118.743,206.15047 0.64047,0 0,-0.40029 q 0,-0.72552 0.1351,-1.05077 0.14011,-0.32524 0.44533,-0.51037 0.31023,-0.18514 0.76056,-0.18514 0.49036,0 0.9607,0.18014 l -0.15011,0.98071 q -0.2802,-0.0801 -0.53539,-0.0801 -0.24518,0 -0.35526,0.14011 -0.11009,0.1401 -0.11009,0.5504 l 0,0.37527 0.86063,0 0,1.10581 -0.86063,0 0,4.20809 -1.15084,0 0,-4.20809 -0.64047,0 0,-1.10581 z"
     inkscape:connector-curvature="0" />
  <path
     inkscape:connector-curvature="0"
     style="fill:none;stroke:#000000;stroke-width:1.5;stroke-linecap:square;stroke-linejoin:miter;stroke-miterlimit:4;stroke-dasharray:none;stroke-opacity:1"
     d="m 58.168576,197.60922 23.662974,0 c 3.548202,0 6.404696,2.85649 6.404696,6.40469 l 0,7.68564 c 0,3.5482 -2.856494,6.4047 -6.404696,6.4047 l -23.662974,0 c -3.548202,0 -6.404696,-2.8565 -6.404696,-6.4047 l 0,-7.68564 c 0,-3.5482 2.856494,-6.40469 6.404696,-6.40469 z"
     id="rect12100" />
  <path
     id="path12328"
     style="font-style:normal;font-variant:normal;font-weight:bold;font-stretch:condensed;font-size:10px;line-height:125%;font-family:'Arial Narrow';-inkscape-font-specification:'Arial Narrow Bold Condensed';text-align:center;letter-spacing:0px;word-spacing:0px;text-anchor:middle;fill:#000000;fill-opacity:1;stroke:none"
     d="m 62.645838,210.82766 0,1.63245 -5.053705,0 q 0.08131,-0.92568 0.494112,-1.75754 0.419057,-0.83811 1.619938,-2.19536 0.950697,-1.08205 1.169607,-1.46357 0.325238,-0.55666 0.325238,-1.11957 0,-0.60044 -0.268947,-0.90692 -0.268947,-0.30648 -0.706767,-0.30648 -0.956953,0 -1.032007,1.43231 l -1.432301,-0.17513 q 0.131347,-1.40103 0.775569,-2.05776 0.650478,-0.65673 1.726265,-0.65673 1.182118,0 1.782558,0.76931 0.60044,0.76932 0.60044,1.7638 0,0.56291 -0.156364,1.09455 -0.150111,0.52538 -0.469094,1.06328 -0.318985,0.53164 -1.06328,1.3635 -0.69426,0.78182 -0.881897,1.032 -0.181382,0.25019 -0.293965,0.48786 l 2.8646,0 z"
     inkscape:connector-curvature="0" />
  <path
     style="font-style:normal;font-variant:normal;font-weight:bold;font-stretch:condensed;font-size:medium;line-height:125%;font-family:'Arial Narrow';-inkscape-font-specification:'Arial Narrow Bold Condensed';text-align:center;letter-spacing:0px;word-spacing:0px;text-anchor:middle;fill:#000000;fill-opacity:1;stroke:none"
     id="path12321"
     d="m 68.391139,207.77167 -1.045766,-0.23017 q 0.19014,-0.8056 0.625458,-1.15584 0.440323,-0.35527 1.260924,-0.35527 0.730537,0 1.115819,0.20515 0.385282,0.20514 0.550404,0.56041 0.165121,0.35026 0.165121,1.28094 l -0.01,1.64121 q 0,0.6905 0.05504,1.03075 0.05504,0.33524 0.20515,0.71552 l -1.140836,0 -0.150109,-0.58043 q -0.295217,0.35026 -0.635467,0.52539 -0.335246,0.17513 -0.715525,0.17513 -0.635465,0 -1.040763,-0.42531 -0.405297,-0.43032 -0.405297,-1.14084 0,-0.45033 0.165121,-0.78558 0.165122,-0.33524 0.465342,-0.53539 0.30022,-0.20015 0.960705,-0.35526 0.800587,-0.18513 1.115817,-0.34525 0,-0.44032 -0.06505,-0.57542 -0.06004,-0.14011 -0.230168,-0.22516 -0.165122,-0.09 -0.470346,-0.09 -0.310227,0 -0.490359,0.14009 -0.175128,0.14011 -0.28521,0.52539 z m 1.54113,1.14083 q -0.220161,0.0901 -0.685502,0.21015 -0.535393,0.14011 -0.700514,0.31023 -0.165121,0.17012 -0.165121,0.44032 0,0.30523 0.180132,0.51539 0.185136,0.20514 0.460338,0.20514 0.245179,0 0.485355,-0.16511 0.240177,-0.17013 0.330243,-0.40029 0.09507,-0.23018 0.09507,-0.83562 l 0,-0.28021 z"
     inkscape:connector-curvature="0" />
  <path
     style="font-style:normal;font-variant:normal;font-weight:bold;font-stretch:condensed;font-size:medium;line-height:125%;font-family:'Arial Narrow';-inkscape-font-specification:'Arial Narrow Bold Condensed';text-align:center;letter-spacing:0px;word-spacing:0px;text-anchor:middle;fill:#000000;fill-opacity:1;stroke:none"
     id="path12323"
     d="m 72.138888,211.46437 0,-7.33537 1.155846,0 0,2.64194 q 0.265196,-0.37029 0.580426,-0.55542 0.320235,-0.18513 0.685504,-0.18513 0.770564,0 1.300953,0.69551 0.535392,0.69551 0.535392,2.0515 0,1.35099 -0.5454,2.08153 -0.545399,0.72553 -1.280939,0.72553 -0.375275,0 -0.740543,-0.23017 -0.365267,-0.23017 -0.620455,-0.67049 l 0,0.78057 -1.070784,0 z m 1.14584,-2.77203 q 0,0.6855 0.130094,1.04576 0.130096,0.36027 0.370273,0.55041 0.240176,0.18513 0.50537,0.18513 0.380279,0 0.650477,-0.39528 0.270198,-0.40029 0.270198,-1.26093 0,-0.90566 -0.275202,-1.30596 -0.270198,-0.40529 -0.690506,-0.40529 -0.400293,0 -0.680499,0.39028 -0.280205,0.39029 -0.280205,1.19588 z"
     inkscape:connector-curvature="0" />
  <path
     style="font-style:normal;font-variant:normal;font-weight:bold;font-stretch:condensed;font-size:medium;line-height:125%;font-family:'Arial Narrow';-inkscape-font-specification:'Arial Narrow Bold Condensed';text-align:center;letter-spacing:0px;word-spacing:0px;text-anchor:middle;fill:#000000;fill-opacity:1;stroke:none"
     id="path12325"
     d="m 81.115469,207.72162 -1.135833,0.2502 q -0.125097,-0.83562 -0.785576,-0.83562 -0.425311,0 -0.685502,0.36026 -0.260191,0.36026 -0.260191,1.21589 0,0.94569 0.260191,1.33598 0.260191,0.39029 0.69551,0.39029 0.325238,0 0.535392,-0.22016 0.210154,-0.22517 0.30022,-0.79057 l 1.135833,0.23516 q -0.350256,1.92141 -2.016479,1.92141 -1.065781,0 -1.581159,-0.81059 -0.515377,-0.8106 -0.515377,-1.95143 0,-1.36601 0.580425,-2.07652 0.585429,-0.71553 1.531122,-0.71553 0.765561,0 1.245914,0.4053 0.485356,0.40529 0.69551,1.28593 z"
     inkscape:connector-curvature="0" />
  <path
     inkscape:connector-curvature="0"
     style="fill:none;stroke:#000000;stroke-width:1.5;stroke-linecap:square;stroke-linejoin:miter;stroke-miterlimit:4;stroke-dasharray:none;stroke-opacity:1"
     d="m 99.158566,222.83477 23.662974,0 c 3.5482,0 6.40469,2.85649 6.40469,6.40469 l 0,7.68564 c 0,3.5482 -2.85649,6.4047 -6.40469,6.4047 l -23.662974,0 c -3.548201,0 -6.404696,-2.8565 -6.404696,-6.4047 l 0,-7.68564 c 0,-3.5482 2.856495,-6.40469 6.404696,-6.40469 z"
     id="rect12120" />
  <path
     id="path12317"
     style="font-style:normal;font-variant:normal;font-weight:bold;font-stretch:condensed;font-size:10px;line-height:125%;font-family:'Arial Narrow';-inkscape-font-specification:'Arial Narrow Bold Condensed';text-align:center;letter-spacing:0px;word-spacing:0px;text-anchor:middle;fill:#000000;fill-opacity:1;stroke:none"
     d="m 103.64835,230.76183 -1.39478,0.18764 q -0.10008,-1.02575 -0.81935,-1.02575 -0.46909,0 -0.78182,0.51288 -0.30647,0.51287 -0.38778,2.07026 0.26894,-0.38779 0.60044,-0.58167 0.33149,-0.1939 0.73178,-0.1939 0.8819,0 1.53863,0.82561 0.65673,0.81935 0.65673,2.18285 0,1.45106 -0.69426,2.27667 -0.69426,0.82561 -1.72001,0.82561 -1.12582,0 -1.870118,-1.06954 -0.738042,-1.07579 -0.738042,-3.55886 0,-2.5206 0.769315,-3.62767 0.769315,-1.10705 1.976445,-1.10705 0.83186,0 1.40103,0.56916 0.57542,0.56292 0.73179,1.71376 z m -3.25864,3.83407 q 0,0.86938 0.31898,1.33222 0.32524,0.45658 0.73804,0.45658 0.4003,0 0.66299,-0.38153 0.26895,-0.38152 0.26895,-1.25091 0,-0.90067 -0.28772,-1.31346 -0.28771,-0.41281 -0.71302,-0.41281 -0.4128,0 -0.70051,0.39404 -0.28771,0.39404 -0.28771,1.17587 z"
     inkscape:connector-curvature="0" />
  <path
     style="font-style:normal;font-variant:normal;font-weight:bold;font-stretch:condensed;font-size:medium;line-height:125%;font-family:'Arial Narrow';-inkscape-font-specification:'Arial Narrow Bold Condensed';text-align:center;letter-spacing:0px;word-spacing:0px;text-anchor:middle;fill:#000000;fill-opacity:1;stroke:none"
     id="path12310"
     d="m 106.77923,231.37602 1.06078,0 0,0.72554 q 0.28521,-0.42531 0.62546,-0.63547 0.34025,-0.21015 0.73554,-0.21015 0.42031,0 0.72553,0.21015 0.31023,0.21016 0.50537,0.63547 0.29021,-0.42531 0.62046,-0.63547 0.33524,-0.21015 0.71052,-0.21015 0.44532,0 0.76556,0.21516 0.32524,0.21015 0.49036,0.60544 0.17012,0.39529 0.17012,1.2159 l 0,3.39748 -1.15585,0 0,-3.03722 q 0,-0.79559 -0.1401,-1.05577 -0.1401,-0.2652 -0.47034,-0.2652 -0.38529,0 -0.62046,0.37027 -0.23517,0.36526 -0.23517,1.43605 l 0,2.55187 -1.15585,0 0,-2.91213 q 0,-0.86564 -0.0951,-1.11582 -0.1251,-0.33024 -0.50537,-0.33024 -0.25519,0 -0.47035,0.17012 -0.21515,0.17013 -0.31022,0.50037 -0.0951,0.32524 -0.0951,1.1058 l 0,2.5819 -1.15585,0 0,-5.3139 z"
     inkscape:connector-curvature="0" />
  <path
     style="font-style:normal;font-variant:normal;font-weight:bold;font-stretch:condensed;font-size:medium;line-height:125%;font-family:'Arial Narrow';-inkscape-font-specification:'Arial Narrow Bold Condensed';text-align:center;letter-spacing:0px;word-spacing:0px;text-anchor:middle;fill:#000000;fill-opacity:1;stroke:none"
     id="path12312"
     d="m 118.29768,236.68992 -1.15585,0 0,-2.71199 q 0,-0.8156 -0.065,-1.08579 -0.065,-0.2702 -0.24518,-0.4153 -0.17512,-0.14511 -0.40029,-0.14511 -0.29021,0 -0.52539,0.19013 -0.23517,0.18514 -0.33024,0.51539 -0.0951,0.33024 -0.0951,1.2459 l 0,2.40677 -1.15585,0 0,-5.3139 1.07079,0 0,0.78058 q 0.28521,-0.45034 0.64047,-0.6755 0.36026,-0.22516 0.79558,-0.22516 0.50537,0 0.85063,0.26519 0.35025,0.2602 0.48035,0.6755 0.1351,0.4103 0.1351,1.19087 l 0,3.30242 z"
     inkscape:connector-curvature="0" />
  <path
     style="font-style:normal;font-variant:normal;font-weight:bold;font-stretch:condensed;font-size:medium;line-height:125%;font-family:'Arial Narrow';-inkscape-font-specification:'Arial Narrow Bold Condensed';text-align:center;letter-spacing:0px;word-spacing:0px;text-anchor:middle;fill:#000000;fill-opacity:1;stroke:none"
     id="path12314"
     d="m 119.20834,233.95792 q 0,-0.78057 0.31023,-1.42104 0.31023,-0.64047 0.8106,-0.96071 0.50036,-0.32023 1.12582,-0.32023 1.05077,0 1.65121,0.8256 0.60044,0.82061 0.60044,1.92141 0,0.82061 -0.31523,1.48109 -0.31023,0.66049 -0.8206,0.99573 -0.50537,0.33024 -1.11081,0.33024 -0.97072,0 -1.61119,-0.74055 -0.64047,-0.74053 -0.64047,-2.11154 z m 1.18087,0.0751 q 0,0.80559 0.31523,1.2209 0.31523,0.4103 0.76056,0.4103 0.43532,0 0.74555,-0.41531 0.31022,-0.41531 0.31022,-1.2259 0,-0.79058 -0.31523,-1.20589 -0.31523,-0.4153 -0.75555,-0.4153 -0.43532,0 -0.75055,0.4153 -0.31023,0.41531 -0.31023,1.2159 z"
     inkscape:connector-curvature="0" />
  <path
     inkscape:connector-curvature="0"
     style="fill:none;stroke:#000000;stroke-width:1.5;stroke-linecap:square;stroke-linejoin:miter;stroke-miterlimit:4;stroke-dasharray:none;stroke-opacity:1"
     d="m 17.178464,222.83477 23.662974,0 c 3.548202,0 6.404696,2.85649 6.404696,6.40469 l 0,7.68564 c 0,3.5482 -2.856494,6.4047 -6.404696,6.4047 l -23.662974,0 c -3.548202,0 -6.404697,-2.8565 -6.404697,-6.4047 l 0,-7.68564 c 0,-3.5482 2.856495,-6.40469 6.404697,-6.40469 z"
     id="rect12140" />
  <path
     id="path12306"
     style="font-style:normal;font-variant:normal;font-weight:bold;font-stretch:condensed;font-size:12.80939198px;line-height:125%;font-family:'Arial Narrow';-inkscape-font-specification:'Arial Narrow Bold Condensed';text-align:center;letter-spacing:0px;word-spacing:0px;text-anchor:middle;fill:#000000;fill-opacity:1;stroke:none"
     d="m 19.611544,237.68528 0,-1.84511 -3.077256,0 0,-1.53863 3.258639,-5.82302 1.21339,0 0,5.81677 0.931933,0 0,1.54488 -0.931933,0 0,1.84511 -1.394773,0 z m 0,-3.38999 0,-3.13355 -1.726265,3.13355 1.726265,0 z"
     inkscape:connector-curvature="0" />
  <path
     style="font-style:normal;font-variant:normal;font-weight:bold;font-stretch:condensed;font-size:medium;line-height:125%;font-family:'Arial Narrow';-inkscape-font-specification:'Arial Narrow Bold Condensed';text-align:center;letter-spacing:0px;word-spacing:0px;text-anchor:middle;fill:#000000;fill-opacity:1;stroke:none"
     id="path12299"
     d="m 27.351003,237.04018 1.320969,0.19514 q 0.03002,0.29021 0.180132,0.4103 0.155114,0.12515 0.485355,0.12515 0.380279,0 0.615452,-0.12515 0.165121,-0.0901 0.255187,-0.30021 0.09006,-0.21015 0.09006,-0.74055 l 0,-0.77557 q -0.260191,0.43032 -0.585429,0.64547 -0.325238,0.21516 -0.720528,0.21516 -0.725532,0 -1.220895,-0.65548 -0.570419,-0.75055 -0.570419,-2.03149 0,-1.361 0.535393,-2.0515 0.540396,-0.69551 1.305957,-0.69551 0.405298,0 0.73554,0.21516 0.335246,0.21516 0.595436,0.65047 l 0,-0.74555 1.080793,0 0,4.76851 q 0,1.14583 -0.210155,1.66121 -0.210153,0.51538 -0.650476,0.77557 -0.43532,0.26519 -1.210889,0.26519 -0.715523,0 -1.145839,-0.19013 -0.430315,-0.19014 -0.660485,-0.57043 -0.225164,-0.37527 -0.225164,-0.87063 l 0,-0.17513 z m 1.030755,-3.11729 q 0,0.85063 0.270199,1.24091 0.275202,0.39029 0.660484,0.39029 0.415305,0 0.710521,-0.39529 0.295216,-0.39529 0.295216,-1.20088 0,-0.83061 -0.285208,-1.22589 -0.280206,-0.4003 -0.695511,-0.4003 -0.4103,0 -0.685502,0.39028 -0.270199,0.39029 -0.270199,1.20088 z"
     inkscape:connector-curvature="0" />
  <path
     style="font-style:normal;font-variant:normal;font-weight:bold;font-stretch:condensed;font-size:medium;line-height:125%;font-family:'Arial Narrow';-inkscape-font-specification:'Arial Narrow Bold Condensed';text-align:center;letter-spacing:0px;word-spacing:0px;text-anchor:middle;fill:#000000;fill-opacity:1;stroke:none"
     id="path12301"
     d="m 33.755699,229.35455 0,2.69698 q 0.275202,-0.4003 0.605444,-0.59545 0.335246,-0.20014 0.725531,-0.20014 0.520382,0 0.870639,0.27521 0.350257,0.27519 0.500367,0.78056 0.110084,0.37027 0.110084,1.26093 l 0,3.11728 -1.150843,0 0,-2.80706 q 0,-0.97572 -0.125097,-1.22089 -0.175128,-0.33024 -0.595436,-0.33024 -0.445327,0 -0.695511,0.36027 -0.245179,0.35525 -0.245179,1.33597 l 0,2.66195 -1.155848,0 0,-7.33537 1.155848,0 z"
     inkscape:connector-curvature="0" />
  <path
     style="font-style:normal;font-variant:normal;font-weight:bold;font-stretch:condensed;font-size:medium;line-height:125%;font-family:'Arial Narrow';-inkscape-font-specification:'Arial Narrow Bold Condensed';text-align:center;letter-spacing:0px;word-spacing:0px;text-anchor:middle;fill:#000000;fill-opacity:1;stroke:none"
     id="path12303"
     d="m 37.728611,230.6555 0,-1.30095 1.155848,0 0,1.30095 -1.155848,0 z m 0,6.03442 0,-5.3139 1.155848,0 0,5.3139 -1.155848,0 z"
     inkscape:connector-curvature="0" />
  <path
     inkscape:connector-curvature="0"
     style="fill:none;stroke:#000000;stroke-width:1.5;stroke-linecap:square;stroke-linejoin:miter;stroke-miterlimit:4;stroke-dasharray:none;stroke-opacity:1"
     d="m 58.168576,222.83477 23.662974,0 c 3.548202,0 6.404696,2.85649 6.404696,6.40469 l 0,7.68564 c 0,3.5482 -2.856494,6.4047 -6.404696,6.4047 l -23.662974,0 c -3.548202,0 -6.404696,-2.8565 -6.404696,-6.4047 l 0,-7.68564 c 0,-3.5482 2.856494,-6.40469 6.404696,-6.40469 z"
     id="rect12160" />
  <path
     id="path12295"
     style="font-style:normal;font-variant:normal;font-weight:bold;font-stretch:condensed;font-size:12.80939198px;line-height:125%;font-family:'Arial Narrow';-inkscape-font-specification:'Arial Narrow Bold Condensed';text-align:center;letter-spacing:0px;word-spacing:0px;text-anchor:middle;fill:#000000;fill-opacity:1;stroke:none"
     d="m 57.799724,235.3273 1.438555,-0.18139 q 0.05629,0.60044 0.369021,0.94445 0.312729,0.344 0.688004,0.344 0.444076,0 0.763059,-0.43782 0.318984,-0.44408 0.318984,-1.35725 0,-0.86313 -0.318984,-1.27593 -0.312729,-0.41281 -0.800587,-0.41281 -0.619204,0 -1.113316,0.66924 l -1.169607,-0.2064 0.738041,-4.77225 3.809043,0 0,1.64496 -2.714491,0 -0.231419,1.55739 q 0.487857,-0.29396 0.988224,-0.29396 0.888151,0 1.507355,0.70051 0.781824,0.89441 0.781824,2.35798 0,1.20713 -0.669241,2.22038 -0.662986,1.01324 -1.901394,1.01324 -1.000734,0 -1.676229,-0.65048 -0.669241,-0.65673 -0.806842,-1.86386 z"
     inkscape:connector-curvature="0" />
  <path
     style="font-style:normal;font-variant:normal;font-weight:bold;font-stretch:condensed;font-size:medium;line-height:125%;font-family:'Arial Narrow';-inkscape-font-specification:'Arial Narrow Bold Condensed';text-align:center;letter-spacing:0px;word-spacing:0px;text-anchor:middle;fill:#000000;fill-opacity:1;stroke:none"
     id="path12288"
     d="m 70.047354,230.6555 0,-1.30095 1.155847,0 0,1.30095 -1.155847,0 z m 1.155847,0.72052 0,5.14878 q 0,1.0858 -0.120088,1.48609 -0.120088,0.4003 -0.430316,0.61546 -0.310227,0.22015 -0.765561,0.22015 -0.345253,0 -0.800587,-0.1501 l 0.200147,-1.20088 q 0.165121,0.045 0.285209,0.045 0.30022,0 0.415305,-0.24018 0.06004,-0.13009 0.06004,-0.85562 l 0,-5.06872 1.155848,0 z"
     inkscape:connector-curvature="0" />
  <path
     style="font-style:normal;font-variant:normal;font-weight:bold;font-stretch:condensed;font-size:medium;line-height:125%;font-family:'Arial Narrow';-inkscape-font-specification:'Arial Narrow Bold Condensed';text-align:center;letter-spacing:0px;word-spacing:0px;text-anchor:middle;fill:#000000;fill-opacity:1;stroke:none"
     id="path12290"
     d="m 72.374059,236.68992 0,-7.33537 1.155848,0 0,3.89285 1.345987,-1.87138 1.421042,0 -1.491093,1.94143 1.596171,3.37247 -1.24091,0 -1.100807,-2.38674 -0.53039,0.68549 0,1.70125 -1.155848,0 z"
     inkscape:connector-curvature="0" />
  <path
     style="font-style:normal;font-variant:normal;font-weight:bold;font-stretch:condensed;font-size:medium;line-height:125%;font-family:'Arial Narrow';-inkscape-font-specification:'Arial Narrow Bold Condensed';text-align:center;letter-spacing:0px;word-spacing:0px;text-anchor:middle;fill:#000000;fill-opacity:1;stroke:none"
     id="path12292"
     d="m 77.097523,236.68992 0,-7.33537 1.155847,0 0,7.33537 -1.155847,0 z"
     inkscape:connector-curvature="0" />
  <path
     inkscape:connector-curvature="0"
     style="fill:none;stroke:#000000;stroke-width:1.5;stroke-linecap:square;stroke-linejoin:miter;stroke-miterlimit:4;stroke-dasharray:none;stroke-opacity:1"
     d="m 17.178464,248.06032 23.662974,0 c 3.548202,0 6.404696,2.85649 6.404696,6.40469 l 0,7.68564 c 0,3.5482 -2.856494,6.4047 -6.404696,6.4047 l -23.662974,0 c -3.548202,0 -6.404697,-2.8565 -6.404697,-6.4047 l 0,-7.68563 c 0,-3.54821 2.856495,-6.4047 6.404697,-6.4047 z"
     id="rect12242" />
  <path
     id="path12284"
     style="font-style:normal;font-variant:normal;font-weight:bold;font-stretch:condensed;font-size:12.80939198px;line-height:125%;font-family:'Arial Narrow';-inkscape-font-specification:'Arial Narrow Bold Condensed';text-align:center;letter-spacing:0px;word-spacing:0px;text-anchor:middle;fill:#000000;fill-opacity:1;stroke:none"
     d="m 16.7843,255.4986 0,-1.63244 4.9286,0 0,1.27593 q -0.6067,0.73179 -1.2322,2.08278 -0.6192,1.34473 -0.9632,2.88962 -0.3377,1.53863 -0.3377,2.7958 l -1.3885,0 q 0.05,-1.95143 0.6504,-3.89661 0.6005,-1.94518 1.62,-3.51508 l -3.2774,0 z"
     inkscape:connector-curvature="0" />
  <path
     style="font-style:normal;font-variant:normal;font-weight:bold;font-stretch:condensed;font-size:medium;line-height:125%;font-family:'Arial Narrow';-inkscape-font-specification:'Arial Narrow Bold Condensed';text-align:center;letter-spacing:0px;word-spacing:0px;text-anchor:middle;fill:#000000;fill-opacity:1;stroke:none"
     id="path12275"
     d="m 24.603989,256.60157 1.075788,0 0,0.78058 q 0.220162,-0.42031 0.580426,-0.66049 0.360264,-0.24017 0.775569,-0.24017 0.745546,0 1.280939,0.71052 0.540396,0.71052 0.540396,2.01648 0,1.371 -0.540396,2.10154 -0.540396,0.72553 -1.285943,0.72553 -0.345252,0 -0.645473,-0.16512 -0.295216,-0.17013 -0.625459,-0.61045 l 0,2.67696 -1.155847,0 0,-7.33538 z m 1.140837,2.56689 q 0,0.90066 0.290212,1.32597 0.295217,0.42532 0.710522,0.42532 0.395288,0 0.665487,-0.39029 0.270198,-0.3953 0.270198,-1.28595 0,-0.84561 -0.280206,-1.2459 -0.275201,-0.40531 -0.675494,-0.40531 -0.420308,0 -0.700514,0.39529 -0.280205,0.39029 -0.280205,1.18087 z"
     inkscape:connector-curvature="0" />
  <path
     style="font-style:normal;font-variant:normal;font-weight:bold;font-stretch:condensed;font-size:medium;line-height:125%;font-family:'Arial Narrow';-inkscape-font-specification:'Arial Narrow Bold Condensed';text-align:center;letter-spacing:0px;word-spacing:0px;text-anchor:middle;fill:#000000;fill-opacity:1;stroke:none"
     id="path12277"
     d="m 32.629874,263.93695 0,-2.67195 q -0.235173,0.37027 -0.575422,0.57042 -0.34025,0.20014 -0.715525,0.20014 -0.730535,0 -1.260925,-0.73053 -0.525385,-0.73055 -0.525385,-2.10654 0,-1.30096 0.535393,-2.00648 0.540396,-0.71052 1.315964,-0.71052 0.415305,0 0.740543,0.22516 0.330243,0.22516 0.575422,0.6805 l 0,-0.78558 1.060778,0 0,7.33538 -1.150843,0 z m 0.04003,-4.74347 q 0,-0.82561 -0.275202,-1.21589 -0.275202,-0.39529 -0.685502,-0.39529 -0.415305,0 -0.69551,0.40529 -0.280206,0.40029 -0.280206,1.29096 0,0.87563 0.270198,1.26091 0.275202,0.38528 0.665489,0.38528 0.395288,0 0.695509,-0.43031 0.305224,-0.43031 0.305224,-1.30095 z"
     inkscape:connector-curvature="0" />
  <path
     style="font-style:normal;font-variant:normal;font-weight:bold;font-stretch:condensed;font-size:medium;line-height:125%;font-family:'Arial Narrow';-inkscape-font-specification:'Arial Narrow Bold Condensed';text-align:center;letter-spacing:0px;word-spacing:0px;text-anchor:middle;fill:#000000;fill-opacity:1;stroke:none"
     id="path12279"
     d="m 36.032369,261.91547 -1.155848,0 0,-5.3139 1.070784,0 0,0.75557 q 0.275202,-0.5304 0.490361,-0.70052 0.220161,-0.17513 0.50537,-0.17513 0.39529,0 0.755554,0.26519 l -0.360264,1.2259 q -0.285209,-0.23016 -0.540396,-0.23016 -0.240176,0 -0.425312,0.18012 -0.180132,0.17513 -0.260191,0.64047 -0.08006,0.46534 -0.08006,1.71126 l 0,1.6412 z"
     inkscape:connector-curvature="0" />
  <path
     style="font-style:normal;font-variant:normal;font-weight:bold;font-stretch:condensed;font-size:medium;line-height:125%;font-family:'Arial Narrow';-inkscape-font-specification:'Arial Narrow Bold Condensed';text-align:center;letter-spacing:0px;word-spacing:0px;text-anchor:middle;fill:#000000;fill-opacity:1;stroke:none"
     id="path12281"
     d="m 37.803667,260.39937 1.155848,-0.21516 q 0.150109,0.83561 0.930681,0.83561 0.415305,0 0.620455,-0.16012 0.205152,-0.16012 0.205152,-0.41531 0,-0.17513 -0.09006,-0.27519 -0.09507,-0.10005 -0.375276,-0.17513 -1.421042,-0.37528 -1.806324,-0.71552 -0.480352,-0.42533 -0.480352,-1.16586 0,-0.74055 0.470346,-1.18587 0.470344,-0.44533 1.366001,-0.44533 0.855627,0 1.300954,0.33524 0.445326,0.33024 0.625458,1.07079 l -1.085796,0.24517 q -0.145106,-0.64047 -0.820602,-0.64047 -0.425311,0 -0.605443,0.12515 -0.180132,0.12003 -0.180132,0.31523 0,0.17513 0.165121,0.29022 0.16512,0.12002 1.025751,0.36027 0.965708,0.27018 1.310962,0.65548 0.34025,0.38528 0.34025,1.02575 0,0.77056 -0.53039,1.27092 -0.525385,0.50037 -1.456068,0.50037 -0.845619,0 -1.381012,-0.4153 -0.535392,-0.4203 -0.705517,-1.22089 z"
     inkscape:connector-curvature="0" />
  <path
     inkscape:connector-curvature="0"
     style="fill:none;stroke:#000000;stroke-width:1.5;stroke-linecap:square;stroke-linejoin:miter;stroke-miterlimit:4;stroke-dasharray:none;stroke-opacity:1"
     d="m 17.178464,273.28586 23.662974,0 c 3.548202,0 6.404696,2.85649 6.404696,6.40469 l 0,7.68564 c 0,3.5482 -2.856494,6.40469 -6.404696,6.40469 l -23.662974,0 c -3.548202,0 -6.404697,-2.85649 -6.404697,-6.40469 l 0,-7.68564 c 0,-3.5482 2.856495,-6.40469 6.404697,-6.40469 z"
     id="rect12262" />
  <path
     id="path12271"
     style="font-style:normal;font-variant:normal;font-weight:bold;font-stretch:condensed;font-size:17.5px;line-height:125%;font-family:'Arial Narrow';-inkscape-font-specification:'Arial Narrow Bold Condensed';text-align:center;letter-spacing:0px;word-spacing:0px;text-anchor:middle;fill:#000000;fill-opacity:1;stroke:none"
     d="M 17.974766,287.35884 16.61752,286.0782 q 0.426876,-0.59106 0.83186,-1.08361 l 0.864697,-1.02887 q -0.21891,-0.0438 -1.291572,-0.3612 -0.744295,-0.22987 -0.996042,-0.33932 l 0.525385,-1.92641 q 1.138335,0.56916 2.101541,1.28062 -0.218912,-1.76222 -0.207966,-2.9115 l 1.587102,0 q 0,0.77712 -0.240802,2.93339 l 0.777132,-0.42687 q 0.820914,-0.44876 1.488592,-0.76618 l 0.481603,1.98114 q -1.006989,0.27363 -2.309505,0.53633 l 1.5871,2.21099 -1.36819,1.1055 -1.225899,-2.44085 q -0.503495,1.12739 -1.24779,2.51748 z"
     inkscape:connector-curvature="0" />
  <path
     inkscape:connector-curvature="0"
     style="fill:none;stroke:#000000;stroke-width:1.5;stroke-linecap:square;stroke-linejoin:miter;stroke-miterlimit:4;stroke-dasharray:none;stroke-opacity:1"
     d="m 99.158566,248.06032 23.662974,0 c 3.5482,0 6.40469,2.85649 6.40469,6.40469 l 0,7.68564 c 0,3.5482 -2.85649,6.4047 -6.40469,6.4047 l -23.662974,0 c -3.548201,0 -6.404696,-2.8565 -6.404696,-6.4047 l 0,-7.68563 c 0,-3.54821 2.856495,-6.4047 6.404696,-6.4047 z"
     id="rect12282" />
  <path
     id="path12267"
     style="font-style:normal;font-variant:normal;font-weight:bold;font-stretch:condensed;font-size:12.80939198px;line-height:125%;font-family:'Arial Narrow';-inkscape-font-specification:'Arial Narrow Bold Condensed';text-align:center;letter-spacing:0px;word-spacing:0px;text-anchor:middle;fill:#000000;fill-opacity:1;stroke:none"
     d="m 98.796,260.78998 1.3948,-0.18764 q 0.1001,1.0195 0.8131,1.0195 0.4816,0 0.7881,-0.50662 0.3064,-0.51288 0.394,-2.07027 -0.269,0.38153 -0.6067,0.57542 -0.3378,0.1939 -0.7506,0.1939 -0.8568,0 -1.5198,-0.81935 -0.6568,-0.81935 -0.6568,-2.1766 0,-1.45106 0.6943,-2.28292 0.6943,-0.83186 1.7138,-0.83186 1.1383,0 1.8763,1.07579 0.7381,1.06953 0.7381,3.5526 0,2.52685 -0.7693,3.63391 -0.7693,1.10707 -1.9952,1.10707 -0.8507,0 -1.4073,-0.55666 -0.5504,-0.56291 -0.7068,-1.72627 z m 3.2649,-3.84031 q 0,-0.86314 -0.3252,-1.32598 -0.3253,-0.46283 -0.7381,-0.46283 -0.4003,0 -0.6692,0.38152 -0.2627,0.38153 -0.2627,1.26969 0,0.88815 0.2877,1.30095 0.294,0.4128 0.7193,0.4128 0.4065,0 0.6942,-0.39404 0.294,-0.39404 0.294,-1.18211 z"
     inkscape:connector-curvature="0" />
  <path
     style="font-style:normal;font-variant:normal;font-weight:bold;font-stretch:condensed;font-size:medium;line-height:125%;font-family:'Arial Narrow';-inkscape-font-specification:'Arial Narrow Bold Condensed';text-align:center;letter-spacing:0px;word-spacing:0px;text-anchor:middle;fill:#000000;fill-opacity:1;stroke:none"
     id="path12258"
     d="m 106.494,261.91459 -1.381,-5.3139 1.1209,0 0.8155,3.48255 0.7506,-3.48255 1.1108,0 0.7255,3.48255 0.8357,-3.48255 1.1358,0 -1.401,5.3139 -1.1058,0 -0.7506,-3.41751 -0.7405,3.41751 -1.1159,0 z"
     inkscape:connector-curvature="0" />
  <path
     style="font-style:normal;font-variant:normal;font-weight:bold;font-stretch:condensed;font-size:medium;line-height:125%;font-family:'Arial Narrow';-inkscape-font-specification:'Arial Narrow Bold Condensed';text-align:center;letter-spacing:0px;word-spacing:0px;text-anchor:middle;fill:#000000;fill-opacity:1;stroke:none"
     id="path12260"
     d="m 111.6678,261.91459 1.5712,-2.73701 -1.5061,-2.57689 1.411,0 0.7706,1.46107 0.8106,-1.46107 1.351,0 -1.4761,2.51685 1.6162,2.79705 -1.4161,0 -0.8856,-1.64621 -0.9007,1.64621 -1.346,0 z"
     inkscape:connector-curvature="0" />
  <path
     style="font-style:normal;font-variant:normal;font-weight:bold;font-stretch:condensed;font-size:medium;line-height:125%;font-family:'Arial Narrow';-inkscape-font-specification:'Arial Narrow Bold Condensed';text-align:center;letter-spacing:0px;word-spacing:0px;text-anchor:middle;fill:#000000;fill-opacity:1;stroke:none"
     id="path12262"
     d="m 116.3563,256.60069 1.2309,0 1.0357,3.77277 1.0208,-3.77277 1.1909,0 -1.5362,5.11375 -0.2952,0.99573 q -0.1951,0.56041 -0.3903,0.8206 -0.1901,0.26019 -0.4903,0.40029 -0.2952,0.14011 -0.7306,0.14011 -0.3352,0 -0.6554,-0.0851 l -0.1001,-1.10081 q 0.2702,0.0651 0.4853,0.0651 0.3303,0 0.5404,-0.22016 0.2152,-0.22016 0.3503,-0.80059 l -1.6562,-5.32891 z"
     inkscape:connector-curvature="0" />
  <path
     style="font-style:normal;font-variant:normal;font-weight:bold;font-stretch:condensed;font-size:medium;line-height:125%;font-family:'Arial Narrow';-inkscape-font-specification:'Arial Narrow Bold Condensed';text-align:center;letter-spacing:0px;word-spacing:0px;text-anchor:middle;fill:#000000;fill-opacity:1;stroke:none"
     id="path12264"
     d="m 121.1248,261.91459 0,-1.09581 1.6362,-2.28667 q 0.4003,-0.56042 0.5904,-0.79559 -0.2001,0.015 -0.5304,0.02 l -1.5361,0.01 0,-1.16585 3.6026,0 0,0.99573 -1.6662,2.34171 -0.5854,0.77557 q 0.4803,-0.035 0.5954,-0.035 l 1.7863,0 0,1.23591 -3.8928,0 z"
     inkscape:connector-curvature="0" />
  <path
     inkscape:connector-curvature="0"
     style="fill:none;stroke:#000000;stroke-width:1.5;stroke-linecap:square;stroke-linejoin:miter;stroke-miterlimit:4;stroke-dasharray:none;stroke-opacity:1"
     d="m 58.168576,248.06032 23.662974,0 c 3.548202,0 6.404696,2.85649 6.404696,6.40469 l 0,7.68564 c 0,3.5482 -2.856494,6.4047 -6.404696,6.4047 l -23.662974,0 c -3.548202,0 -6.404696,-2.8565 -6.404696,-6.4047 l 0,-7.68563 c 0,-3.54821 2.856494,-6.4047 6.404696,-6.4047 z"
     id="rect12302" />
  <path
     id="path12254"
     style="font-style:normal;font-variant:normal;font-weight:bold;font-stretch:condensed;font-size:10px;line-height:125%;font-family:'Arial Narrow';-inkscape-font-specification:'Arial Narrow Bold Condensed';text-align:center;letter-spacing:0px;word-spacing:0px;text-anchor:middle;fill:#000000;fill-opacity:1;stroke:none"
     d="m 59.018179,257.96383 q -0.53164,-0.2752 -0.800587,-0.75056 -0.268948,-0.47534 -0.268948,-1.14458 0,-1.08205 0.612949,-1.72001 0.61295,-0.64422 1.651211,-0.64422 1.100807,0 1.67623,0.68801 0.575421,0.68174 0.575421,1.66371 0,0.66925 -0.281456,1.16336 -0.275202,0.48786 -0.756805,0.74429 0.644222,0.31273 0.963207,0.8819 0.318983,0.56291 0.318983,1.38851 0,0.85063 -0.318983,1.50111 -0.31273,0.65047 -0.869388,0.99448 -0.556659,0.344 -1.250918,0.344 -1.088297,0 -1.801321,-0.75056 -0.706768,-0.7568 -0.706768,-2.03273 0,-0.8256 0.325239,-1.41979 0.325239,-0.59419 0.931934,-0.90692 z m 0.293965,-1.77004 q 0,0.53789 0.250183,0.8256 0.256439,0.28771 0.644222,0.28771 0.394039,0 0.650478,-0.28771 0.256438,-0.28771 0.256438,-0.8256 0,-0.51914 -0.256438,-0.80685 -0.250184,-0.28771 -0.631713,-0.28771 -0.400294,0 -0.656732,0.29397 -0.256438,0.28771 -0.256438,0.80059 z m -0.131346,3.92787 q 0,0.73804 0.312729,1.13833 0.312729,0.4003 0.75055,0.4003 0.437821,0 0.731787,-0.38153 0.30022,-0.38153 0.30022,-1.14459 0,-0.65673 -0.306475,-1.03826 -0.30022,-0.38153 -0.744295,-0.38153 -0.437821,0 -0.744296,0.38778 -0.30022,0.38154 -0.30022,1.0195 z"
     inkscape:connector-curvature="0" />
  <path
     style="font-style:normal;font-variant:normal;font-weight:bold;font-stretch:condensed;font-size:medium;line-height:125%;font-family:'Arial Narrow';-inkscape-font-specification:'Arial Narrow Bold Condensed';text-align:center;letter-spacing:0px;word-spacing:0px;text-anchor:middle;fill:#000000;fill-opacity:1;stroke:none"
     id="path12247"
     d="m 70.432629,256.60029 0,1.12082 -0.785576,0 0,2.14157 q 0,0.69551 0.03503,0.80559 0.07005,0.20015 0.285209,0.20015 0.160118,0 0.460338,-0.1351 l 0.100073,1.0908 q -0.400293,0.21015 -0.905664,0.21015 -0.440323,0 -0.705517,-0.21015 -0.265194,-0.21016 -0.35526,-0.60545 -0.07005,-0.29021 -0.07005,-1.18086 l 0,-2.3167 -0.530389,0 0,-1.12082 0.530389,0 0,-1.05578 1.155848,-0.8206 0,1.87638 0.785576,0 z"
     inkscape:connector-curvature="0" />
  <path
     style="font-style:normal;font-variant:normal;font-weight:bold;font-stretch:condensed;font-size:medium;line-height:125%;font-family:'Arial Narrow';-inkscape-font-specification:'Arial Narrow Bold Condensed';text-align:center;letter-spacing:0px;word-spacing:0px;text-anchor:middle;fill:#000000;fill-opacity:1;stroke:none"
     id="path12249"
     d="m 74.105322,261.91418 0,-0.79558 q -0.240176,0.43032 -0.630463,0.6755 -0.390286,0.24017 -0.815598,0.24017 -0.430315,0 -0.770565,-0.22516 -0.340249,-0.22517 -0.510374,-0.64047 -0.165121,-0.41531 -0.165121,-1.20589 l 0,-3.36246 1.155848,0 0,2.44179 q 0,1.04576 0.05004,1.33097 0.05504,0.28021 0.235173,0.43532 0.180132,0.15512 0.435319,0.15512 0.290213,0 0.535392,-0.20015 0.24518,-0.20515 0.320235,-0.52038 0.08006,-0.32024 0.08006,-1.40103 l 0,-2.24164 1.150844,0 0,5.31389 -1.070785,0 z"
     inkscape:connector-curvature="0" />
  <path
     style="font-style:normal;font-variant:normal;font-weight:bold;font-stretch:condensed;font-size:medium;line-height:125%;font-family:'Arial Narrow';-inkscape-font-specification:'Arial Narrow Bold Condensed';text-align:center;letter-spacing:0px;word-spacing:0px;text-anchor:middle;fill:#000000;fill-opacity:1;stroke:none"
     id="path12251"
     d="m 77.582872,261.91418 -1.756288,-5.31389 1.210888,0 0.820602,2.71199 0.235172,0.90566 0.24518,-0.90566 0.830609,-2.71199 1.180866,0 -1.73127,5.31389 -1.035759,0 z"
     inkscape:connector-curvature="0" />
  <path
     inkscape:connector-curvature="0"
     style="fill:none;stroke:#000000;stroke-width:1.5;stroke-linecap:square;stroke-linejoin:miter;stroke-miterlimit:4;stroke-dasharray:none;stroke-opacity:1"
     d="m 99.158566,273.28586 23.662974,0 c 3.5482,0 6.40469,2.85649 6.40469,6.40469 l 0,7.68564 c 0,3.5482 -2.85649,6.40469 -6.40469,6.40469 l -23.662974,0 c -3.548201,0 -6.404696,-2.85649 -6.404696,-6.40469 l 0,-7.68564 c 0,-3.5482 2.856495,-6.40469 6.404696,-6.40469 z"
     id="rect12322" />
  <path
     id="path12243"
     style="font-style:normal;font-variant:normal;font-weight:bold;font-stretch:condensed;font-size:10px;line-height:125%;font-family:'Arial Narrow';-inkscape-font-specification:'Arial Narrow Bold Condensed';text-align:center;letter-spacing:0px;word-spacing:0px;text-anchor:middle;fill:#000000;fill-opacity:1;stroke:none"
     d="m 99.107618,285.85383 -0.694259,0 0,-1.37601 0.925679,0 0.306475,-1.8451 -1.232154,0 0,-1.38226 1.463573,0 0.400298,-2.43929 1.15084,0 -0.40029,2.43929 1.12582,0 0.40029,-2.43929 1.18838,0 -0.41281,2.43929 0.71303,0 0,1.38226 -0.93819,0 -0.31273,1.8451 1.25092,0 0,1.37601 -1.47609,0 -0.4128,2.4393 -1.14459,0 0.4003,-2.4393 -1.13834,0 -0.406547,2.4393 -1.157098,0 0.400293,-2.4393 z m 1.688742,-3.22111 -0.30022,1.8451 1.13833,0 0.30022,-1.8451 -1.13833,0 z"
     inkscape:connector-curvature="0" />
  <path
     inkscape:connector-curvature="0"
     style="fill:none;stroke:#000000;stroke-width:1.5;stroke-linecap:square;stroke-linejoin:miter;stroke-miterlimit:4;stroke-dasharray:none;stroke-opacity:1"
     d="m 58.168576,273.28586 23.662974,0 c 3.548202,0 6.404696,2.85649 6.404696,6.40469 l 0,7.68564 c 0,3.5482 -2.856494,6.40469 -6.404696,6.40469 l -23.662974,0 c -3.548202,0 -6.404696,-2.85649 -6.404696,-6.40469 l 0,-7.68564 c 0,-3.5482 2.856494,-6.40469 6.404696,-6.40469 z"
     id="rect12342" />
  <path
     id="path12239"
     style="font-style:normal;font-variant:normal;font-weight:bold;font-stretch:condensed;font-size:10px;line-height:125%;font-family:'Arial Narrow';-inkscape-font-specification:'Arial Narrow Bold Condensed';text-align:center;letter-spacing:0px;word-spacing:0px;text-anchor:middle;fill:#000000;fill-opacity:1;stroke:none"
     d="m 60.212804,278.93 q 1.094553,0 1.770048,1.04452 0.675496,1.03825 0.675496,3.64016 0,2.59566 -0.675496,3.64017 -0.675495,1.03827 -1.763793,1.03827 -1.094552,0 -1.770048,-1.03202 -0.675495,-1.032 -0.675495,-3.66519 0,-2.58314 0.675495,-3.62139 0.675496,-1.04452 1.763793,-1.04452 z m 0,1.45731 q -0.425311,0 -0.68175,0.56293 -0.250183,0.5629 -0.250183,2.66444 0,2.10155 0.250183,2.66445 0.256439,0.55666 0.68175,0.55666 0.431567,0 0.681751,-0.56291 0.250182,-0.56291 0.250182,-2.6582 0,-2.10154 -0.250182,-2.66444 -0.250184,-0.56293 -0.681751,-0.56293 z"
     inkscape:connector-curvature="0" />
  <path
     style="display:inline;fill:none;stroke:#000000;stroke-width:1.5;stroke-linecap:square;stroke-linejoin:miter;stroke-miterlimit:4;stroke-dasharray:none;stroke-opacity:1"
     d="m 53.392947,144.66826 33.214118,0 c 3.548201,0 6.404696,2.85649 6.404696,6.40469 l 0,33.73421 c 0,3.5482 -2.856495,6.4047 -6.404696,6.4047 l -33.214118,0 c -3.548202,0 -6.404696,-2.8565 -6.404696,-6.4047 l 0,-33.73421 c 0,-3.5482 2.856494,-6.40469 6.404696,-6.40469 z"
     id="rect12032-0" />
  <path
     style="display:inline;fill:none;stroke:#000000;stroke-width:1.5;stroke-linecap:square;stroke-linejoin:miter;stroke-miterlimit:4;stroke-dasharray:none;stroke-opacity:1"
     d="m 17.178463,144.88533 18.670333,0 c 3.548202,0 6.404696,2.85649 6.404696,6.4047 l 0,33.30006 c 0,3.5482 -2.856494,6.4047 -6.404696,6.4047 l -18.670333,0 c -3.548201,0 -6.404696,-2.8565 -6.404696,-6.4047 l 0,-33.30006 c 0,-3.54821 2.856495,-6.4047 6.404696,-6.4047 z"
     id="rect4216" />
  <path
     style="fill:#00b400;fill-opacity:1"
     d="m 15.470717,170.71121 c -0.447302,-0.94398 -0.422546,-1.7519 -0.29438,-2.77929 0.118706,-0.95156 0.669701,-1.85732 1.52543,-2.32191 2.231059,-1.21129 4.573115,-1.50774 7.06362,-1.59172 3.597738,-0.12132 7.295033,0.0474 10.714845,1.26761 1.171297,0.41795 2.533283,0.9158 3.12824,2.04922 0.573008,1.09161 0.276988,2.48002 -0.06064,3.70048 -0.238969,0.86382 -0.922869,0.93079 -1.836938,0.81676 -1.581331,-0.19727 -3.177514,-0.4334 -4.273042,-1.05765 -0.809839,-0.46146 -0.767245,-1.41887 -1.010487,-2.24175 -0.08435,-0.28535 -0.331394,-0.55492 -0.73076,-0.59774 -2.318889,-0.24859 -4.078269,-0.32087 -6.408566,-0.23388 -0.398664,0.0149 -0.678,0.32429 -0.779702,0.58386 -0.320819,0.81882 -0.326855,1.89033 -1.261888,2.18176 -1.581194,0.49281 -3.259067,0.87602 -4.907277,0.81186 -0.374034,-0.0146 -0.717476,-0.26899 -0.868455,-0.58761 z"
     id="path4242"
     inkscape:connector-curvature="0"
     sodipodi:nodetypes="ssssssssssssssss" />
  <path
     style="display:inline;fill:none;stroke:#000000;stroke-width:1.5;stroke-linecap:square;stroke-linejoin:miter;stroke-miterlimit:4;stroke-dasharray:none;stroke-opacity:1"
     d="m 104.1512,144.88533 18.67033,0 c 3.54821,0 6.4047,2.85649 6.4047,6.4047 l 0,33.30006 c 0,3.5482 -2.85649,6.4047 -6.4047,6.4047 l -18.67033,0 c -3.5482,0 -6.404694,-2.8565 -6.404694,-6.4047 l 0,-33.30006 c 0,-3.54821 2.856494,-6.4047 6.404694,-6.4047 z"
     id="rect4259" />
  <path
     style="color:#000000;font-style:normal;font-variant:normal;font-weight:normal;font-stretch:normal;font-size:medium;line-height:normal;font-family:sans-serif;text-indent:0;text-align:start;text-decoration:none;text-decoration-line:none;text-decoration-style:solid;text-decoration-color:#000000;letter-spacing:normal;word-spacing:normal;text-transform:none;direction:ltr;block-progression:tb;writing-mode:lr-tb;baseline-shift:baseline;text-anchor:start;white-space:normal;clip-rule:nonzero;display:inline;overflow:visible;visibility:visible;opacity:1;isolation:auto;mix-blend-mode:normal;color-interpolation:sRGB;color-interpolation-filters:linearRGB;solid-color:#000000;solid-opacity:1;fill:#b70000;fill-opacity:1;fill-rule:evenodd;stroke:none;stroke-width:2;stroke-linecap:butt;stroke-linejoin:round;stroke-miterlimit:4;stroke-dasharray:none;stroke-dashoffset:0;stroke-opacity:1;marker:none;color-rendering:auto;image-rendering:auto;shape-rendering:auto;text-rendering:auto;enable-background:accumulate"
     d="m 117.8984,157.8513 -10.13086,18.11328 1.74609,0.97461 10.12891,-18.11133 -1.74414,-0.97656 z"
     id="path4271"
     inkscape:connector-curvature="0" />
  <path
     style="fill:#b70000;fill-opacity:1"
     d="m 110.73824,164.01732 c -2.4905,0.084 -4.83339,0.38051 -7.06445,1.59179 -0.85572,0.4646 -1.40668,1.37071 -1.52539,2.32227 -0.12816,1.02739 -0.15238,1.83532 0.29492,2.7793 0.15098,0.31862 0.49511,0.57333 0.86914,0.58789 1.64821,0.0642 3.32505,-0.31969 4.90625,-0.8125 0.93503,-0.29143 0.94091,-1.36282 1.26172,-2.18164 0.10171,-0.25958 0.38258,-0.56911 0.78125,-0.58399 0.76109,-0.0284 0.70796,-0.0335 1.38663,-0.0273 l 2.08079,-3.68246 c -0.96542,-0.0362 -1.98663,-0.0264 -2.99086,0.007 z m 6.66302,0.2912 -2.0591,3.51995 c 0.64786,0.0437 0.60546,0.0489 1.32772,0.12635 0.39937,0.0428 0.64617,0.3123 0.73047,0.59765 0.24324,0.82288 0.19993,1.78073 1.00977,2.24219 1.09553,0.62425 2.6921,0.86132 4.27343,1.05859 0.91407,0.11403 1.59892,0.0455 1.83789,-0.81836 0.33759,-1.22045 0.63356,-2.60761 0.0606,-3.69922 -0.59496,-1.13342 -1.9576,-1.63088 -3.12891,-2.04882 -1.80034,-0.6084 -2.44582,-0.79867 -4.05187,-0.97833 z"
     id="path4273"
     inkscape:connector-curvature="0"
     sodipodi:nodetypes="cssssscscccccccsscccc" />
  <path
     style="display:inline;fill:none;stroke:#000000;stroke-width:1.5;stroke-linecap:square;stroke-linejoin:miter;stroke-miterlimit:4;stroke-dasharray:none;stroke-opacity:1"
     d="m 17.576163,17.154629 104.847677,0 c 3.5482,0 6.40469,2.856494 6.40469,6.404696 l 0,108.406695 c 0,3.5482 -2.85649,6.4047 -6.40469,6.4047 l -104.847677,0 c -3.548202,0 -6.404696,-2.8565 -6.404696,-6.4047 l 0,-108.406695 c 0,-3.548202 2.856494,-6.404696 6.404696,-6.404696 z"
     id="rect12032-0-0" />
  <path
     style="display:inline;fill:none;stroke:#000000;stroke-width:1.5;stroke-linecap:square;stroke-linejoin:miter;stroke-miterlimit:4;stroke-dasharray:none;stroke-opacity:1"
     d="m 15.839589,4.6292233 108.320821,0 c 6.43438,0 11.61441,7.8908137 11.61441,17.6924077 l 0,260.356729 c 0,9.8016 -5.18003,17.69241 -11.61441,17.69241 l -108.320821,0 c -6.4343817,0 -11.6144074,-7.89081 -11.6144074,-17.69241 l 0,-260.356729 c 0,-9.801594 5.1800257,-17.6924077 11.6144074,-17.6924077 z"
     id="rect4242" />
</svg>
