<?xml version="1.0" encoding="UTF-8" standalone="no"?>
<!-- Created with Inkscape (http://www.inkscape.org/) -->

<svg
   xmlns:dc="http://purl.org/dc/elements/1.1/"
   xmlns:cc="http://creativecommons.org/ns#"
   xmlns:rdf="http://www.w3.org/1999/02/22-rdf-syntax-ns#"
   xmlns:svg="http://www.w3.org/2000/svg"
   xmlns="http://www.w3.org/2000/svg"
   xmlns:sodipodi="http://sodipodi.sourceforge.net/DTD/sodipodi-0.dtd"
   xmlns:inkscape="http://www.inkscape.org/namespaces/inkscape"
   width="135"
   height="180"
   id="svg2"
   version="1.1"
   inkscape:version="0.91 r13725"
   sodipodi:docname="numpad-mobile.svg">
  <defs
     id="defs4" />
  <sodipodi:namedview
     id="base"
     pagecolor="#ffffff"
     bordercolor="#666666"
     borderopacity="1.0"
     inkscape:pageopacity="0.0"
     inkscape:pageshadow="2"
     inkscape:zoom="2.3033895"
     inkscape:cx="187.02918"
     inkscape:cy="108.88621"
     inkscape:document-units="px"
     inkscape:current-layer="layer2"
     showgrid="false"
     inkscape:window-width="1433"
     inkscape:window-height="824"
     inkscape:window-x="0"
     inkscape:window-y="0"
     inkscape:window-maximized="0"
     showguides="true"
     inkscape:guide-bbox="true" />
  <metadata
     id="metadata7">
    <rdf:RDF>
      <cc:Work
         rdf:about="">
        <dc:format>image/svg+xml</dc:format>
        <dc:type
           rdf:resource="http://purl.org/dc/dcmitype/StillImage" />
        <dc:title></dc:title>
      </cc:Work>
    </rdf:RDF>
  </metadata>
  <g
     inkscape:label="Layer 1"
     inkscape:groupmode="layer"
     id="layer1"
     transform="translate(0,-872.36218)" />
  <g
     inkscape:groupmode="layer"
     id="layer2"
     inkscape:label="Phone"
     style="display:inline"
     transform="translate(0,-872.36218)">
    <path
       style="fill:none;stroke:#000000;stroke-width:1.5;stroke-linecap:square;stroke-linejoin:miter;stroke-miterlimit:4;stroke-dasharray:none;stroke-opacity:1"
       d="m 14.250042,880.61218 22.5,0 c 4.155,0 7.5,3.345 7.5,7.5 l 0,22.5 c 0,4.155 -3.345,7.5 -7.5,7.5 l -22.5,0 c -4.155,0 -7.5,-3.345 -7.5,-7.5 l 0,-22.5 c 0,-4.155 3.345,-7.5 7.5,-7.5 z"
       id="rect13255" />
    <path
       style="fill:none;stroke:#000000;stroke-width:1.5;stroke-linecap:square;stroke-linejoin:miter;stroke-miterlimit:4;stroke-dasharray:none;stroke-opacity:1"
       d="m 56.250042,880.61218 22.5,0 c 4.155,0 7.5,3.345 7.5,7.5 l 0,22.5 c 0,4.155 -3.345,7.5 -7.5,7.5 l -22.5,0 c -4.155,0 -7.5,-3.345 -7.5,-7.5 l 0,-22.5 c 0,-4.155 3.345,-7.5 7.5,-7.5 z"
       id="rect13257" />
    <path
       style="fill:none;stroke:#000000;stroke-width:1.5;stroke-linecap:square;stroke-linejoin:miter;stroke-miterlimit:4;stroke-dasharray:none;stroke-opacity:1"
       d="m 98.250046,880.61218 22.500004,0 c 4.155,0 7.5,3.345 7.5,7.5 l 0,22.5 c 0,4.155 -3.345,7.5 -7.5,7.5 l -22.500004,0 c -4.155,0 -7.5,-3.345 -7.5,-7.5 l 0,-22.5 c 0,-4.155 3.345,-7.5 7.5,-7.5 z"
       id="rect13259" />
    <path
       style="fill:none;stroke:#000000;stroke-width:1.5;stroke-linecap:square;stroke-linejoin:miter;stroke-miterlimit:4;stroke-dasharray:none;stroke-opacity:1"
       d="m 14.250042,922.61218 22.5,0 c 4.155,0 7.5,3.345 7.5,7.5 l 0,22.5 c 0,4.155 -3.345,7.5 -7.5,7.5 l -22.5,0 c -4.155,0 -7.5,-3.345 -7.5,-7.5 l 0,-22.5 c 0,-4.155 3.345,-7.5 7.5,-7.5 z"
       id="rect13261" />
    <path
       style="fill:none;stroke:#000000;stroke-width:1.5;stroke-linecap:square;stroke-linejoin:miter;stroke-miterlimit:4;stroke-dasharray:none;stroke-opacity:1"
       d="m 56.250042,922.61218 22.5,0 c 4.155,0 7.5,3.345 7.5,7.5 l 0,22.5 c 0,4.155 -3.345,7.5 -7.5,7.5 l -22.5,0 c -4.155,0 -7.5,-3.345 -7.5,-7.5 l 0,-22.5 c 0,-4.155 3.345,-7.5 7.5,-7.5 z"
       id="rect13263" />
    <path
       style="fill:none;stroke:#000000;stroke-width:1.5;stroke-linecap:square;stroke-linejoin:miter;stroke-miterlimit:4;stroke-dasharray:none;stroke-opacity:1"
       d="m 98.250046,922.61218 22.500004,0 c 4.155,0 7.5,3.345 7.5,7.5 l 0,22.5 c 0,4.155 -3.345,7.5 -7.5,7.5 l -22.500004,0 c -4.155,0 -7.5,-3.345 -7.5,-7.5 l 0,-22.5 c 0,-4.155 3.345,-7.5 7.5,-7.5 z"
       id="rect13265" />
    <path
       style="fill:none;stroke:#000000;stroke-width:1.5;stroke-linecap:square;stroke-linejoin:miter;stroke-miterlimit:4;stroke-dasharray:none;stroke-opacity:1"
       d="m 14.250042,964.61218 22.5,0 c 4.155,0 7.5,3.345 7.5,7.5 l 0,22.5 c 0,4.155 -3.345,7.50002 -7.5,7.50002 l -22.5,0 c -4.155,0 -7.5,-3.34502 -7.5,-7.50002 l 0,-22.5 c 0,-4.155 3.345,-7.5 7.5,-7.5 z"
       id="rect13267" />
    <path
       style="fill:none;stroke:#000000;stroke-width:1.5;stroke-linecap:square;stroke-linejoin:miter;stroke-miterlimit:4;stroke-dasharray:none;stroke-opacity:1"
       d="m 56.250042,964.61218 22.5,0 c 4.155,0 7.5,3.345 7.5,7.5 l 0,22.5 c 0,4.155 -3.345,7.50002 -7.5,7.50002 l -22.5,0 c -4.155,0 -7.5,-3.34502 -7.5,-7.50002 l 0,-22.5 c 0,-4.155 3.345,-7.5 7.5,-7.5 z"
       id="rect13269" />
    <path
       style="fill:none;stroke:#000000;stroke-width:1.5;stroke-linecap:square;stroke-linejoin:miter;stroke-miterlimit:4;stroke-dasharray:none;stroke-opacity:1"
       d="m 98.250046,964.61218 22.500004,0 c 4.155,0 7.5,3.345 7.5,7.5 l 0,22.5 c 0,4.155 -3.345,7.50002 -7.5,7.50002 l -22.500004,0 c -4.155,0 -7.5,-3.34502 -7.5,-7.50002 l 0,-22.5 c 0,-4.155 3.345,-7.5 7.5,-7.5 z"
       id="rect13271" />
    <path
       style="fill:none;stroke:#000000;stroke-width:1.5;stroke-linecap:square;stroke-linejoin:miter;stroke-miterlimit:4;stroke-dasharray:none;stroke-opacity:1"
       d="m 14.250042,1006.6122 22.5,0 c 4.155,0 7.5,3.345 7.5,7.5 l 0,22.5 c 0,4.155 -3.345,7.5 -7.5,7.5 l -22.5,0 c -4.155,0 -7.5,-3.345 -7.5,-7.5 l 0,-22.5 c 0,-4.155 3.345,-7.5 7.5,-7.5 z"
       id="rect13273" />
    <path
       style="fill:none;stroke:#000000;stroke-width:1.5;stroke-linecap:square;stroke-linejoin:miter;stroke-miterlimit:4;stroke-dasharray:none;stroke-opacity:1"
       d="m 56.250042,1006.6122 22.5,0 c 4.155,0 7.5,3.345 7.5,7.5 l 0,22.5 c 0,4.155 -3.345,7.5 -7.5,7.5 l -22.5,0 c -4.155,0 -7.5,-3.345 -7.5,-7.5 l 0,-22.5 c 0,-4.155 3.345,-7.5 7.5,-7.5 z"
       id="rect13275" />
    <path
       style="fill:none;stroke:#000000;stroke-width:1.5;stroke-linecap:square;stroke-linejoin:miter;stroke-miterlimit:4;stroke-dasharray:none;stroke-opacity:1"
       d="m 98.250046,1006.6122 22.500004,0 c 4.155,0 7.5,3.345 7.5,7.5 l 0,22.5 c 0,4.155 -3.345,7.5 -7.5,7.5 l -22.500004,0 c -4.155,0 -7.5,-3.345 -7.5,-7.5 l 0,-22.5 c 0,-4.155 3.345,-7.5 7.5,-7.5 z"
       id="rect13277" />
    <g
       transform="matrix(1.5,0,0,1.5,-73.7509,194.02713)"
       style="font-style:normal;font-variant:normal;font-weight:bold;font-stretch:condensed;font-size:6.66666651px;line-height:125%;font-family:'Arial Narrow';-inkscape-font-specification:'Arial Narrow Bold Condensed';text-align:center;letter-spacing:0px;word-spacing:0px;text-anchor:middle;fill:#000000;fill-opacity:1;stroke:none"
       id="flowRoot13279">
      <path
         d="m 55.60905,468.44276 0,-4.77213 0.768229,0 1.601562,3.18685 0,-3.18685 0.735677,0 0,4.77213 -0.79427,0 -1.575521,-3.11198 0,3.11198 -0.735677,0 z"
         style=""
         id="path12591" />
      <path
         d="m 61.403321,468.44276 0,-0.51757 q -0.15625,0.27994 -0.410157,0.43945 -0.253906,0.15625 -0.530599,0.15625 -0.279948,0 -0.501302,-0.14649 -0.221354,-0.14648 -0.332031,-0.41666 -0.107422,-0.27018 -0.107422,-0.78451 l 0,-2.1875 0.751953,0 0,1.58854 q 0,0.68034 0.03255,0.86589 0.03581,0.18229 0.152995,0.2832 0.117188,0.10091 0.283203,0.10091 0.188802,0 0.348308,-0.1302 0.159505,-0.13347 0.208333,-0.33855 0.05208,-0.20833 0.05208,-0.91145 l 0,-1.45834 0.748698,0 0,3.45703 -0.696614,0 z"
         style=""
         id="path12593" />
      <path
         d="m 62.829102,464.98573 0.690104,0 0,0.47201 q 0.185547,-0.2767 0.406901,-0.41341 0.221354,-0.13672 0.478515,-0.13672 0.273438,0 0.472006,0.13672 0.201823,0.13671 0.328776,0.41341 0.188802,-0.2767 0.403646,-0.41341 0.218098,-0.13672 0.462239,-0.13672 0.289714,0 0.498047,0.13997 0.211588,0.13672 0.31901,0.39388 0.110677,0.25716 0.110677,0.79102 l 0,2.21028 -0.751953,0 0,-1.97591 q 0,-0.51758 -0.09115,-0.68685 -0.09114,-0.17252 -0.305989,-0.17252 -0.250651,0 -0.403646,0.24088 -0.152995,0.23763 -0.152995,0.93425 l 0,1.66015 -0.751953,0 0,-1.89453 q 0,-0.56315 -0.06185,-0.72591 -0.08138,-0.21484 -0.328776,-0.21484 -0.166015,0 -0.305989,0.11067 -0.139974,0.11068 -0.201823,0.32553 -0.06185,0.21158 -0.06185,0.7194 l 0,1.67968 -0.751953,0 0,-3.45703 z"
         style=""
         id="path12595" />
      <path
         d="m 67.72168,464.98573 0.69987,0 0,0.50781 q 0.143229,-0.27343 0.377604,-0.42968 0.234375,-0.15625 0.504557,-0.15625 0.485026,0 0.833333,0.46224 0.351563,0.46224 0.351563,1.31185 0,0.89192 -0.351563,1.36718 -0.351562,0.47201 -0.836588,0.47201 -0.224609,0 -0.419922,-0.10742 -0.192057,-0.11068 -0.406901,-0.39714 l 0,1.74154 -0.751953,0 0,-4.77214 z m 0.742187,1.66992 q 0,0.58594 0.188803,0.86263 0.192057,0.2767 0.462239,0.2767 0.257162,0 0.432943,-0.25391 0.175781,-0.25716 0.175781,-0.83659 0,-0.55013 -0.182292,-0.81054 -0.179036,-0.26368 -0.439453,-0.26368 -0.273437,0 -0.455729,0.25717 -0.182292,0.2539 -0.182292,0.76822 z"
         style=""
         id="path12597" />
      <path
         d="m 71.650716,466.04042 -0.680339,-0.14974 q 0.123698,-0.52409 0.406901,-0.75195 0.286459,-0.23112 0.820313,-0.23112 0.47526,0 0.725911,0.13346 0.250651,0.13346 0.358073,0.36458 0.107422,0.22787 0.107422,0.83334 l -0.0065,1.06771 q 0,0.44921 0.03581,0.67057 0.03581,0.2181 0.133463,0.46549 l -0.742187,0 -0.09766,-0.3776 q -0.192058,0.22786 -0.413412,0.3418 -0.218099,0.11393 -0.465495,0.11393 -0.413411,0 -0.677083,-0.27669 -0.263672,-0.27995 -0.263672,-0.74219 0,-0.29297 0.107422,-0.51107 0.107422,-0.2181 0.302734,-0.34831 0.195313,-0.1302 0.625,-0.23112 0.520834,-0.12044 0.725912,-0.22461 0,-0.28645 -0.04232,-0.37434 -0.03906,-0.0912 -0.149739,-0.14649 -0.107422,-0.0586 -0.30599,-0.0586 -0.201823,0 -0.31901,0.0911 -0.113933,0.0911 -0.185547,0.3418 z m 1.002604,0.74219 q -0.143229,0.0586 -0.445964,0.13672 -0.348307,0.0911 -0.455729,0.20182 -0.107422,0.11068 -0.107422,0.28646 0,0.19857 0.117188,0.33528 0.120443,0.13347 0.299479,0.13347 0.159505,0 0.315755,-0.10742 0.15625,-0.11068 0.214844,-0.26042 0.06185,-0.14974 0.06185,-0.54362 l 0,-0.18229 z"
         style=""
         id="path12599" />
      <path
         d="m 76.725585,468.44276 -0.69987,0 0,-0.50781 q -0.172526,0.29297 -0.406901,0.43945 -0.234375,0.14649 -0.481771,0.14649 -0.47526,0 -0.830078,-0.47201 -0.351562,-0.47526 -0.351562,-1.35416 0,-0.88542 0.345052,-1.33464 0.345052,-0.45247 0.849609,-0.45247 0.23763,0 0.442708,0.12044 0.208334,0.12044 0.38086,0.36133 l 0,-1.71875 0.751953,0 0,4.77213 z m -2.001953,-1.80338 q 0,0.46875 0.07813,0.69987 0.08138,0.22786 0.227864,0.34505 0.14974,0.11393 0.335287,0.11393 0.247396,0 0.429687,-0.26692 0.182292,-0.26693 0.182292,-0.80404 0,-0.5957 -0.179036,-0.85612 -0.175782,-0.26367 -0.449219,-0.26367 -0.260417,0 -0.442709,0.25716 -0.182291,0.25716 -0.182291,0.77474 z"
         style=""
         id="path12601" />
      <path
         d="m 66.767904,476.77611 -0.748698,0 0,-3.44727 q -0.419922,0.47201 -0.970052,0.69336 l 0,-0.83008 q 0.3125,-0.12695 0.647786,-0.45247 0.335287,-0.32878 0.465495,-0.75521 l 0.605469,0 0,4.79167 z"
         style=""
         id="path12603" />
    </g>
    <g
       transform="matrix(1.5,0,0,1.5,-28.5971,194.02713)"
       style="font-style:normal;font-variant:normal;font-weight:bold;font-stretch:condensed;font-size:6.66666651px;line-height:125%;font-family:'Arial Narrow';-inkscape-font-specification:'Arial Narrow Bold Condensed';text-align:center;letter-spacing:0px;word-spacing:0px;text-anchor:middle;fill:#000000;fill-opacity:1;stroke:none"
       id="flowRoot13289">
      <path
         d="m 53.506511,468.44276 0,-4.77213 0.768229,0 1.601562,3.18685 0,-3.18685 0.735677,0 0,4.77213 -0.79427,0 -1.575521,-3.11198 0,3.11198 -0.735677,0 z"
         style=""
         id="path12576" />
      <path
         d="m 59.300781,468.44276 0,-0.51757 q -0.15625,0.27994 -0.410156,0.43945 -0.253906,0.15625 -0.530599,0.15625 -0.279948,0 -0.501302,-0.14649 -0.221354,-0.14648 -0.332031,-0.41666 -0.107422,-0.27018 -0.107422,-0.78451 l 0,-2.1875 0.751953,0 0,1.58854 q 0,0.68034 0.03255,0.86589 0.03581,0.18229 0.152995,0.2832 0.117188,0.10091 0.283203,0.10091 0.188802,0 0.348307,-0.1302 0.159506,-0.13347 0.208334,-0.33855 0.05208,-0.20833 0.05208,-0.91145 l 0,-1.45834 0.748698,0 0,3.45703 -0.696615,0 z"
         style=""
         id="path12578" />
      <path
         d="m 60.726563,464.98573 0.690104,0 0,0.47201 q 0.185547,-0.2767 0.406901,-0.41341 0.221354,-0.13672 0.478515,-0.13672 0.273438,0 0.472006,0.13672 0.201822,0.13671 0.328776,0.41341 0.188802,-0.2767 0.403645,-0.41341 0.218099,-0.13672 0.46224,-0.13672 0.289714,0 0.498047,0.13997 0.211588,0.13672 0.31901,0.39388 0.110677,0.25716 0.110677,0.79102 l 0,2.21028 -0.751953,0 0,-1.97591 q 0,-0.51758 -0.09115,-0.68685 -0.09115,-0.17252 -0.305989,-0.17252 -0.250651,0 -0.403646,0.24088 -0.152995,0.23763 -0.152995,0.93425 l 0,1.66015 -0.751953,0 0,-1.89453 q 0,-0.56315 -0.06185,-0.72591 -0.08138,-0.21484 -0.328776,-0.21484 -0.166015,0 -0.305989,0.11067 -0.139974,0.11068 -0.201823,0.32553 -0.06185,0.21158 -0.06185,0.7194 l 0,1.67968 -0.751953,0 0,-3.45703 z"
         style=""
         id="path12580" />
      <path
         d="m 65.619141,464.98573 0.69987,0 0,0.50781 q 0.143229,-0.27343 0.377604,-0.42968 0.234375,-0.15625 0.504557,-0.15625 0.485026,0 0.833333,0.46224 0.351563,0.46224 0.351563,1.31185 0,0.89192 -0.351563,1.36718 -0.351562,0.47201 -0.836588,0.47201 -0.224609,0 -0.419922,-0.10742 -0.192057,-0.11068 -0.406901,-0.39714 l 0,1.74154 -0.751953,0 0,-4.77214 z m 0.742187,1.66992 q 0,0.58594 0.188802,0.86263 0.192058,0.2767 0.46224,0.2767 0.257161,0 0.432943,-0.25391 0.175781,-0.25716 0.175781,-0.83659 0,-0.55013 -0.182292,-0.81054 -0.179036,-0.26368 -0.439453,-0.26368 -0.273437,0 -0.455729,0.25717 -0.182292,0.2539 -0.182292,0.76822 z"
         style=""
         id="path12582" />
      <path
         d="m 69.548177,466.04042 -0.680339,-0.14974 q 0.123698,-0.52409 0.406901,-0.75195 0.286459,-0.23112 0.820313,-0.23112 0.47526,0 0.725911,0.13346 0.250651,0.13346 0.358073,0.36458 0.107422,0.22787 0.107422,0.83334 l -0.0065,1.06771 q 0,0.44921 0.03581,0.67057 0.03581,0.2181 0.133463,0.46549 l -0.742187,0 -0.09766,-0.3776 q -0.192058,0.22786 -0.413412,0.3418 -0.218099,0.11393 -0.465495,0.11393 -0.413411,0 -0.677083,-0.27669 -0.263672,-0.27995 -0.263672,-0.74219 0,-0.29297 0.107422,-0.51107 0.107422,-0.2181 0.302734,-0.34831 0.195313,-0.1302 0.625,-0.23112 0.520834,-0.12044 0.725912,-0.22461 0,-0.28645 -0.04232,-0.37434 -0.03906,-0.0912 -0.149739,-0.14649 -0.107422,-0.0586 -0.30599,-0.0586 -0.201823,0 -0.31901,0.0911 -0.113933,0.0911 -0.185547,0.3418 z m 1.002604,0.74219 q -0.143229,0.0586 -0.445964,0.13672 -0.348307,0.0911 -0.455729,0.20182 -0.107422,0.11068 -0.107422,0.28646 0,0.19857 0.117188,0.33528 0.120442,0.13347 0.299479,0.13347 0.159505,0 0.315755,-0.10742 0.15625,-0.11068 0.214844,-0.26042 0.06185,-0.14974 0.06185,-0.54362 l 0,-0.18229 z"
         style=""
         id="path12584" />
      <path
         d="m 74.623046,468.44276 -0.69987,0 0,-0.50781 q -0.172526,0.29297 -0.406901,0.43945 -0.234375,0.14649 -0.481771,0.14649 -0.47526,0 -0.830078,-0.47201 -0.351562,-0.47526 -0.351562,-1.35416 0,-0.88542 0.345052,-1.33464 0.345052,-0.45247 0.849609,-0.45247 0.23763,0 0.442708,0.12044 0.208334,0.12044 0.38086,0.36133 l 0,-1.71875 0.751953,0 0,4.77213 z m -2.001953,-1.80338 q 0,0.46875 0.07813,0.69987 0.08138,0.22786 0.227864,0.34505 0.14974,0.11393 0.335287,0.11393 0.247396,0 0.429687,-0.26692 0.182292,-0.26693 0.182292,-0.80404 0,-0.5957 -0.179037,-0.85612 -0.175781,-0.26367 -0.449218,-0.26367 -0.260417,0 -0.442709,0.25716 -0.182291,0.25716 -0.182291,0.77474 z"
         style=""
         id="path12586" />
      <path
         d="m 65.280599,475.9265 0,0.84961 -2.630208,0 q 0.04232,-0.48177 0.257161,-0.91472 0.218099,-0.43619 0.843099,-1.14257 0.494792,-0.56316 0.608724,-0.76172 0.169271,-0.28972 0.169271,-0.58269 0,-0.3125 -0.139974,-0.472 -0.139974,-0.15951 -0.367839,-0.15951 -0.498047,0 -0.537109,0.74545 l -0.745443,-0.0912 q 0.06836,-0.72917 0.403646,-1.07096 0.338542,-0.3418 0.898438,-0.3418 0.615234,0 0.927734,0.40039 0.3125,0.40039 0.3125,0.91797 0,0.29297 -0.08138,0.56966 -0.07813,0.27344 -0.244141,0.55339 -0.166016,0.27669 -0.553385,0.70963 -0.361328,0.4069 -0.458985,0.53711 -0.0944,0.13021 -0.152994,0.25391 l 1.490885,0 z"
         style=""
         id="path12588" />
    </g>
    <g
       transform="matrix(1.5,0,0,1.5,11.4195,193.9661)"
       style="font-style:normal;font-variant:normal;font-weight:bold;font-stretch:condensed;font-size:6.66666651px;line-height:125%;font-family:'Arial Narrow';-inkscape-font-specification:'Arial Narrow Bold Condensed';text-align:center;letter-spacing:0px;word-spacing:0px;text-anchor:middle;fill:#000000;fill-opacity:1;stroke:none"
       id="flowRoot13299">
      <path
         d="m 54.820964,468.44276 0,-4.77213 0.768229,0 1.601562,3.18685 0,-3.18685 0.735677,0 0,4.77213 -0.79427,0 -1.575521,-3.11198 0,3.11198 -0.735677,0 z"
         style=""
         id="path12561" />
      <path
         d="m 60.615235,468.44276 0,-0.51757 q -0.15625,0.27994 -0.410157,0.43945 -0.253906,0.15625 -0.530599,0.15625 -0.279948,0 -0.501302,-0.14649 -0.221354,-0.14648 -0.332031,-0.41666 -0.107422,-0.27018 -0.107422,-0.78451 l 0,-2.1875 0.751953,0 0,1.58854 q 0,0.68034 0.03255,0.86589 0.03581,0.18229 0.152995,0.2832 0.117188,0.10091 0.283203,0.10091 0.188802,0 0.348308,-0.1302 0.159505,-0.13347 0.208333,-0.33855 0.05208,-0.20833 0.05208,-0.91145 l 0,-1.45834 0.748698,0 0,3.45703 -0.696614,0 z"
         style=""
         id="path12563" />
      <path
         d="m 62.041016,464.98573 0.690104,0 0,0.47201 q 0.185547,-0.2767 0.406901,-0.41341 0.221354,-0.13672 0.478516,-0.13672 0.273437,0 0.472005,0.13672 0.201823,0.13671 0.328776,0.41341 0.188802,-0.2767 0.403646,-0.41341 0.218099,-0.13672 0.462239,-0.13672 0.289714,0 0.498047,0.13997 0.211589,0.13672 0.31901,0.39388 0.110677,0.25716 0.110677,0.79102 l 0,2.21028 -0.751953,0 0,-1.97591 q 0,-0.51758 -0.09114,-0.68685 -0.09115,-0.17252 -0.30599,-0.17252 -0.250651,0 -0.403646,0.24088 -0.152995,0.23763 -0.152995,0.93425 l 0,1.66015 -0.751953,0 0,-1.89453 q 0,-0.56315 -0.06185,-0.72591 -0.08138,-0.21484 -0.328776,-0.21484 -0.166015,0 -0.305989,0.11067 -0.139974,0.11068 -0.201823,0.32553 -0.06185,0.21158 -0.06185,0.7194 l 0,1.67968 -0.751953,0 0,-3.45703 z"
         style=""
         id="path12565" />
      <path
         d="m 66.933594,464.98573 0.69987,0 0,0.50781 q 0.143229,-0.27343 0.377604,-0.42968 0.234375,-0.15625 0.504557,-0.15625 0.485026,0 0.833334,0.46224 0.351562,0.46224 0.351562,1.31185 0,0.89192 -0.351562,1.36718 -0.351563,0.47201 -0.836589,0.47201 -0.224609,0 -0.419922,-0.10742 -0.192057,-0.11068 -0.406901,-0.39714 l 0,1.74154 -0.751953,0 0,-4.77214 z m 0.742187,1.66992 q 0,0.58594 0.188803,0.86263 0.192057,0.2767 0.462239,0.2767 0.257162,0 0.432943,-0.25391 0.175781,-0.25716 0.175781,-0.83659 0,-0.55013 -0.182292,-0.81054 -0.179036,-0.26368 -0.439453,-0.26368 -0.273437,0 -0.455729,0.25717 -0.182292,0.2539 -0.182292,0.76822 z"
         style=""
         id="path12567" />
      <path
         d="m 70.86263,466.04042 -0.680339,-0.14974 q 0.123698,-0.52409 0.406901,-0.75195 0.286459,-0.23112 0.820313,-0.23112 0.47526,0 0.725911,0.13346 0.250651,0.13346 0.358073,0.36458 0.107422,0.22787 0.107422,0.83334 l -0.0065,1.06771 q 0,0.44921 0.03581,0.67057 0.03581,0.2181 0.133463,0.46549 l -0.742187,0 -0.09766,-0.3776 q -0.192058,0.22786 -0.413412,0.3418 -0.218099,0.11393 -0.465495,0.11393 -0.413411,0 -0.677083,-0.27669 -0.263672,-0.27995 -0.263672,-0.74219 0,-0.29297 0.107422,-0.51107 0.107422,-0.2181 0.302735,-0.34831 0.195312,-0.1302 0.625,-0.23112 0.520833,-0.12044 0.725911,-0.22461 0,-0.28645 -0.04232,-0.37434 -0.03906,-0.0912 -0.149739,-0.14649 -0.107422,-0.0586 -0.30599,-0.0586 -0.201823,0 -0.31901,0.0911 -0.113933,0.0911 -0.185547,0.3418 z m 1.002604,0.74219 q -0.143229,0.0586 -0.445964,0.13672 -0.348307,0.0911 -0.455729,0.20182 -0.107422,0.11068 -0.107422,0.28646 0,0.19857 0.117188,0.33528 0.120443,0.13347 0.299479,0.13347 0.159505,0 0.315755,-0.10742 0.15625,-0.11068 0.214844,-0.26042 0.06185,-0.14974 0.06185,-0.54362 l 0,-0.18229 z"
         style=""
         id="path12569" />
      <path
         d="m 75.937499,468.44276 -0.69987,0 0,-0.50781 q -0.172526,0.29297 -0.406901,0.43945 -0.234375,0.14649 -0.481771,0.14649 -0.47526,0 -0.830078,-0.47201 -0.351562,-0.47526 -0.351562,-1.35416 0,-0.88542 0.345052,-1.33464 0.345052,-0.45247 0.849609,-0.45247 0.23763,0 0.442708,0.12044 0.208334,0.12044 0.38086,0.36133 l 0,-1.71875 0.751953,0 0,4.77213 z m -2.001953,-1.80338 q 0,0.46875 0.07813,0.69987 0.08138,0.22786 0.227864,0.34505 0.14974,0.11393 0.335287,0.11393 0.247396,0 0.429687,-0.26692 0.182292,-0.26693 0.182292,-0.80404 0,-0.5957 -0.179036,-0.85612 -0.175782,-0.26367 -0.449219,-0.26367 -0.260417,0 -0.442708,0.25716 -0.182292,0.25716 -0.182292,0.77474 z"
         style=""
         id="path12571" />
      <path
         d="m 64.033203,475.50983 0.725912,-0.10742 q 0.0293,0.33854 0.185546,0.51758 0.15625,0.17903 0.367839,0.17903 0.23112,0 0.390625,-0.21158 0.159505,-0.21159 0.159505,-0.58594 0,-0.34831 -0.152995,-0.54688 -0.152994,-0.19856 -0.371093,-0.19856 -0.143229,0 -0.341797,0.0684 l 0.08138,-0.74544 q 0.289714,0.007 0.458984,-0.15625 0.166016,-0.16276 0.166016,-0.45898 0,-0.2474 -0.120443,-0.38737 -0.120442,-0.13998 -0.309244,-0.13998 -0.188803,0 -0.328777,0.16276 -0.136718,0.15951 -0.16276,0.47526 l -0.693359,-0.14322 q 0.107422,-0.6543 0.419922,-0.95053 0.3125,-0.29622 0.78776,-0.29622 0.533854,0 0.846354,0.38086 0.315755,0.38086 0.315755,0.8431 0,0.3125 -0.143229,0.56315 -0.139974,0.25065 -0.423177,0.43945 0.328776,0.0879 0.533854,0.38737 0.208334,0.29948 0.208334,0.7487 0,0.6543 -0.390625,1.08399 -0.38737,0.42643 -0.92448,0.42643 -0.514322,0 -0.872395,-0.36133 -0.354818,-0.36133 -0.413412,-0.98633 z"
         style=""
         id="path12573" />
    </g>
    <g
       transform="matrix(1.5,0,0,1.5,-75.7211,236.02713)"
       style="font-style:normal;font-variant:normal;font-weight:bold;font-stretch:condensed;font-size:6.66666651px;line-height:125%;font-family:'Arial Narrow';-inkscape-font-specification:'Arial Narrow Bold Condensed';text-align:center;letter-spacing:0px;word-spacing:0px;text-anchor:middle;fill:#000000;fill-opacity:1;stroke:none"
       id="flowRoot13309">
      <path
         d="m 56.922526,468.44276 0,-4.77213 0.768229,0 1.601563,3.18685 0,-3.18685 0.735677,0 0,4.77213 -0.794271,0 -1.575521,-3.11198 0,3.11198 -0.735677,0 z"
         style=""
         id="path12546" />
      <path
         d="m 62.716797,468.44276 0,-0.51757 q -0.15625,0.27994 -0.410156,0.43945 -0.253906,0.15625 -0.530599,0.15625 -0.279948,0 -0.501302,-0.14649 -0.221354,-0.14648 -0.332031,-0.41666 -0.107422,-0.27018 -0.107422,-0.78451 l 0,-2.1875 0.751953,0 0,1.58854 q 0,0.68034 0.03255,0.86589 0.03581,0.18229 0.152995,0.2832 0.117187,0.10091 0.283203,0.10091 0.188802,0 0.348307,-0.1302 0.159505,-0.13347 0.208333,-0.33855 0.05208,-0.20833 0.05208,-0.91145 l 0,-1.45834 0.748698,0 0,3.45703 -0.696615,0 z"
         style=""
         id="path12548" />
      <path
         d="m 64.142578,464.98573 0.690104,0 0,0.47201 q 0.185547,-0.2767 0.406901,-0.41341 0.221355,-0.13672 0.478516,-0.13672 0.273438,0 0.472005,0.13672 0.201823,0.13671 0.328776,0.41341 0.188802,-0.2767 0.403646,-0.41341 0.218099,-0.13672 0.46224,-0.13672 0.289713,0 0.498047,0.13997 0.211588,0.13672 0.31901,0.39388 0.110677,0.25716 0.110677,0.79102 l 0,2.21028 -0.751953,0 0,-1.97591 q 0,-0.51758 -0.09115,-0.68685 -0.09115,-0.17252 -0.30599,-0.17252 -0.250651,0 -0.403645,0.24088 -0.152995,0.23763 -0.152995,0.93425 l 0,1.66015 -0.751953,0 0,-1.89453 q 0,-0.56315 -0.06185,-0.72591 -0.08138,-0.21484 -0.328776,-0.21484 -0.166016,0 -0.30599,0.11067 -0.139974,0.11068 -0.201823,0.32553 -0.06185,0.21158 -0.06185,0.7194 l 0,1.67968 -0.751953,0 0,-3.45703 z"
         style=""
         id="path12550" />
      <path
         d="m 69.035157,464.98573 0.699869,0 0,0.50781 q 0.143229,-0.27343 0.377604,-0.42968 0.234375,-0.15625 0.504558,-0.15625 0.485026,0 0.833333,0.46224 0.351563,0.46224 0.351563,1.31185 0,0.89192 -0.351563,1.36718 -0.351562,0.47201 -0.836588,0.47201 -0.22461,0 -0.419922,-0.10742 -0.192058,-0.11068 -0.406901,-0.39714 l 0,1.74154 -0.751953,0 0,-4.77214 z m 0.742187,1.66992 q 0,0.58594 0.188802,0.86263 0.192057,0.2767 0.46224,0.2767 0.257161,0 0.432942,-0.25391 0.175782,-0.25716 0.175782,-0.83659 0,-0.55013 -0.182292,-0.81054 -0.179037,-0.26368 -0.439453,-0.26368 -0.273438,0 -0.455729,0.25717 -0.182292,0.2539 -0.182292,0.76822 z"
         style=""
         id="path12552" />
      <path
         d="m 72.964192,466.04042 -0.680338,-0.14974 q 0.123698,-0.52409 0.406901,-0.75195 0.286458,-0.23112 0.820312,-0.23112 0.475261,0 0.725912,0.13346 0.250651,0.13346 0.358073,0.36458 0.107422,0.22787 0.107422,0.83334 l -0.0065,1.06771 q 0,0.44921 0.03581,0.67057 0.03581,0.2181 0.133464,0.46549 l -0.742188,0 -0.09766,-0.3776 q -0.192057,0.22786 -0.413411,0.3418 -0.218099,0.11393 -0.465495,0.11393 -0.413411,0 -0.677083,-0.27669 -0.263672,-0.27995 -0.263672,-0.74219 0,-0.29297 0.107422,-0.51107 0.107422,-0.2181 0.302734,-0.34831 0.195313,-0.1302 0.625,-0.23112 0.520833,-0.12044 0.725911,-0.22461 0,-0.28645 -0.04232,-0.37434 -0.03906,-0.0912 -0.14974,-0.14649 -0.107422,-0.0586 -0.305989,-0.0586 -0.201823,0 -0.319011,0.0911 -0.113932,0.0911 -0.185547,0.3418 z m 1.002604,0.74219 q -0.143229,0.0586 -0.445963,0.13672 -0.348307,0.0911 -0.455729,0.20182 -0.107422,0.11068 -0.107422,0.28646 0,0.19857 0.117187,0.33528 0.120443,0.13347 0.29948,0.13347 0.159505,0 0.315755,-0.10742 0.15625,-0.11068 0.214843,-0.26042 0.06185,-0.14974 0.06185,-0.54362 l 0,-0.18229 z"
         style=""
         id="path12554" />
      <path
         d="m 78.039061,468.44276 -0.699869,0 0,-0.50781 q -0.172526,0.29297 -0.406901,0.43945 -0.234375,0.14649 -0.481771,0.14649 -0.475261,0 -0.830078,-0.47201 -0.351563,-0.47526 -0.351563,-1.35416 0,-0.88542 0.345052,-1.33464 0.345052,-0.45247 0.84961,-0.45247 0.23763,0 0.442708,0.12044 0.208333,0.12044 0.380859,0.36133 l 0,-1.71875 0.751953,0 0,4.77213 z m -2.001953,-1.80338 q 0,0.46875 0.07813,0.69987 0.08138,0.22786 0.227865,0.34505 0.149739,0.11393 0.335286,0.11393 0.247396,0 0.429688,-0.26692 0.182292,-0.26693 0.182292,-0.80404 0,-0.5957 -0.179037,-0.85612 -0.175781,-0.26367 -0.449219,-0.26367 -0.260416,0 -0.442708,0.25716 -0.182292,0.25716 -0.182292,0.77474 z"
         style=""
         id="path12556" />
      <path
         d="m 67.632161,476.77611 0,-0.96029 -1.601562,0 0,-0.80078 1.695963,-3.0306 0.631511,0 0,3.02734 0.485026,0 0,0.80404 -0.485026,0 0,0.96029 -0.725912,0 z m 0,-1.76433 0,-1.63086 -0.898437,1.63086 0.898437,0 z"
         style=""
         id="path12558" />
    </g>
    <g
       transform="matrix(1.5,0,0,1.5,-30.1821,235.9661)"
       style="font-style:normal;font-variant:normal;font-weight:bold;font-stretch:condensed;font-size:6.66666651px;line-height:125%;font-family:'Arial Narrow';-inkscape-font-specification:'Arial Narrow Bold Condensed';text-align:center;letter-spacing:0px;word-spacing:0px;text-anchor:middle;fill:#000000;fill-opacity:1;stroke:none"
       id="flowRoot13319">
      <path
         d="m 54.558268,468.44276 0,-4.77213 0.76823,0 1.601562,3.18685 0,-3.18685 0.735677,0 0,4.77213 -0.794271,0 -1.57552,-3.11198 0,3.11198 -0.735678,0 z"
         style=""
         id="path12531" />
      <path
         d="m 60.352539,468.44276 0,-0.51757 q -0.15625,0.27994 -0.410156,0.43945 -0.253906,0.15625 -0.530599,0.15625 -0.279948,0 -0.501302,-0.14649 -0.221354,-0.14648 -0.332031,-0.41666 -0.107422,-0.27018 -0.107422,-0.78451 l 0,-2.1875 0.751953,0 0,1.58854 q 0,0.68034 0.03255,0.86589 0.03581,0.18229 0.152995,0.2832 0.117187,0.10091 0.283203,0.10091 0.188802,0 0.348307,-0.1302 0.159505,-0.13347 0.208334,-0.33855 0.05208,-0.20833 0.05208,-0.91145 l 0,-1.45834 0.748698,0 0,3.45703 -0.696615,0 z"
         style=""
         id="path12533" />
      <path
         d="m 61.77832,464.98573 0.690105,0 0,0.47201 q 0.185546,-0.2767 0.406901,-0.41341 0.221354,-0.13672 0.478515,-0.13672 0.273438,0 0.472005,0.13672 0.201823,0.13671 0.328776,0.41341 0.188803,-0.2767 0.403646,-0.41341 0.218099,-0.13672 0.46224,-0.13672 0.289713,0 0.498047,0.13997 0.211588,0.13672 0.31901,0.39388 0.110677,0.25716 0.110677,0.79102 l 0,2.21028 -0.751953,0 0,-1.97591 q 0,-0.51758 -0.09115,-0.68685 -0.09115,-0.17252 -0.305989,-0.17252 -0.250651,0 -0.403646,0.24088 -0.152995,0.23763 -0.152995,0.93425 l 0,1.66015 -0.751953,0 0,-1.89453 q 0,-0.56315 -0.06185,-0.72591 -0.08138,-0.21484 -0.328776,-0.21484 -0.166016,0 -0.30599,0.11067 -0.139974,0.11068 -0.201823,0.32553 -0.06185,0.21158 -0.06185,0.7194 l 0,1.67968 -0.751954,0 0,-3.45703 z"
         style=""
         id="path12535" />
      <path
         d="m 66.670899,464.98573 0.699869,0 0,0.50781 q 0.14323,-0.27343 0.377605,-0.42968 0.234375,-0.15625 0.504557,-0.15625 0.485026,0 0.833333,0.46224 0.351563,0.46224 0.351563,1.31185 0,0.89192 -0.351563,1.36718 -0.351562,0.47201 -0.836588,0.47201 -0.22461,0 -0.419922,-0.10742 -0.192057,-0.11068 -0.406901,-0.39714 l 0,1.74154 -0.751953,0 0,-4.77214 z m 0.742187,1.66992 q 0,0.58594 0.188802,0.86263 0.192058,0.2767 0.46224,0.2767 0.257161,0 0.432943,-0.25391 0.175781,-0.25716 0.175781,-0.83659 0,-0.55013 -0.182292,-0.81054 -0.179036,-0.26368 -0.439453,-0.26368 -0.273438,0 -0.455729,0.25717 -0.182292,0.2539 -0.182292,0.76822 z"
         style=""
         id="path12537" />
      <path
         d="m 70.599934,466.04042 -0.680338,-0.14974 q 0.123698,-0.52409 0.406901,-0.75195 0.286458,-0.23112 0.820312,-0.23112 0.475261,0 0.725912,0.13346 0.250651,0.13346 0.358073,0.36458 0.107422,0.22787 0.107422,0.83334 l -0.0065,1.06771 q 0,0.44921 0.03581,0.67057 0.03581,0.2181 0.133463,0.46549 l -0.742187,0 -0.09766,-0.3776 q -0.192057,0.22786 -0.413411,0.3418 -0.218099,0.11393 -0.465495,0.11393 -0.413411,0 -0.677083,-0.27669 -0.263672,-0.27995 -0.263672,-0.74219 0,-0.29297 0.107422,-0.51107 0.107422,-0.2181 0.302734,-0.34831 0.195313,-0.1302 0.625,-0.23112 0.520834,-0.12044 0.725912,-0.22461 0,-0.28645 -0.04232,-0.37434 -0.03906,-0.0912 -0.14974,-0.14649 -0.107422,-0.0586 -0.305989,-0.0586 -0.201823,0 -0.319011,0.0911 -0.113932,0.0911 -0.185547,0.3418 z m 1.002605,0.74219 q -0.14323,0.0586 -0.445964,0.13672 -0.348307,0.0911 -0.455729,0.20182 -0.107422,0.11068 -0.107422,0.28646 0,0.19857 0.117188,0.33528 0.120442,0.13347 0.299479,0.13347 0.159505,0 0.315755,-0.10742 0.15625,-0.11068 0.214844,-0.26042 0.06185,-0.14974 0.06185,-0.54362 l 0,-0.18229 z"
         style=""
         id="path12539" />
      <path
         d="m 75.674804,468.44276 -0.69987,0 0,-0.50781 q -0.172526,0.29297 -0.406901,0.43945 -0.234375,0.14649 -0.481771,0.14649 -0.47526,0 -0.830078,-0.47201 -0.351563,-0.47526 -0.351563,-1.35416 0,-0.88542 0.345052,-1.33464 0.345053,-0.45247 0.84961,-0.45247 0.23763,0 0.442708,0.12044 0.208333,0.12044 0.380859,0.36133 l 0,-1.71875 0.751954,0 0,4.77213 z m -2.001953,-1.80338 q 0,0.46875 0.07813,0.69987 0.08138,0.22786 0.227864,0.34505 0.14974,0.11393 0.335287,0.11393 0.247395,0 0.429687,-0.26692 0.182292,-0.26693 0.182292,-0.80404 0,-0.5957 -0.179037,-0.85612 -0.175781,-0.26367 -0.449218,-0.26367 -0.260417,0 -0.442709,0.25716 -0.182291,0.25716 -0.182291,0.77474 z"
         style=""
         id="path12541" />
      <path
         d="m 63.80957,475.54889 0.748698,-0.0944 q 0.0293,0.3125 0.192058,0.49154 0.16276,0.17904 0.358072,0.17904 0.23112,0 0.397136,-0.22787 0.166015,-0.23112 0.166015,-0.70638 0,-0.44922 -0.166015,-0.66406 -0.162761,-0.21485 -0.416667,-0.21485 -0.322265,0 -0.579427,0.34831 l -0.608724,-0.10742 0.384115,-2.48372 1.982422,0 0,0.85612 -1.412761,0 -0.120443,0.81054 q 0.253907,-0.15299 0.514323,-0.15299 0.46224,0 0.784506,0.36458 0.406901,0.4655 0.406901,1.22721 0,0.62826 -0.348308,1.1556 -0.345052,0.52735 -0.989583,0.52735 -0.520833,0 -0.872396,-0.33854 -0.348307,-0.3418 -0.419922,-0.97006 z"
         style=""
         id="path12543" />
    </g>
    <g
       transform="matrix(1.5,0,0,1.5,9.8492,235.9661)"
       style="font-style:normal;font-variant:normal;font-weight:bold;font-stretch:condensed;font-size:6.66666651px;line-height:125%;font-family:'Arial Narrow';-inkscape-font-specification:'Arial Narrow Bold Condensed';text-align:center;letter-spacing:0px;word-spacing:0px;text-anchor:middle;fill:#000000;fill-opacity:1;stroke:none"
       id="flowRoot13329">
      <path
         d="m 55.871745,468.44276 0,-4.77213 0.768229,0 1.601563,3.18685 0,-3.18685 0.735677,0 0,4.77213 -0.794271,0 -1.575521,-3.11198 0,3.11198 -0.735677,0 z"
         style=""
         id="path12516" />
      <path
         d="m 61.666016,468.44276 0,-0.51757 q -0.15625,0.27994 -0.410156,0.43945 -0.253907,0.15625 -0.530599,0.15625 -0.279948,0 -0.501302,-0.14649 -0.221355,-0.14648 -0.332032,-0.41666 -0.107422,-0.27018 -0.107422,-0.78451 l 0,-2.1875 0.751954,0 0,1.58854 q 0,0.68034 0.03255,0.86589 0.03581,0.18229 0.152994,0.2832 0.117188,0.10091 0.283204,0.10091 0.188802,0 0.348307,-0.1302 0.159505,-0.13347 0.208333,-0.33855 0.05208,-0.20833 0.05208,-0.91145 l 0,-1.45834 0.748698,0 0,3.45703 -0.696614,0 z"
         style=""
         id="path12518" />
      <path
         d="m 63.091797,464.98573 0.690104,0 0,0.47201 q 0.185547,-0.2767 0.406901,-0.41341 0.221354,-0.13672 0.478516,-0.13672 0.273437,0 0.472005,0.13672 0.201823,0.13671 0.328776,0.41341 0.188802,-0.2767 0.403646,-0.41341 0.218099,-0.13672 0.462239,-0.13672 0.289714,0 0.498047,0.13997 0.211589,0.13672 0.319011,0.39388 0.110677,0.25716 0.110677,0.79102 l 0,2.21028 -0.751953,0 0,-1.97591 q 0,-0.51758 -0.09115,-0.68685 -0.09115,-0.17252 -0.30599,-0.17252 -0.250651,0 -0.403646,0.24088 -0.152994,0.23763 -0.152994,0.93425 l 0,1.66015 -0.751953,0 0,-1.89453 q 0,-0.56315 -0.06185,-0.72591 -0.08138,-0.21484 -0.328776,-0.21484 -0.166016,0 -0.30599,0.11067 -0.139974,0.11068 -0.201823,0.32553 -0.06185,0.21158 -0.06185,0.7194 l 0,1.67968 -0.751953,0 0,-3.45703 z"
         style=""
         id="path12520" />
      <path
         d="m 67.984375,464.98573 0.69987,0 0,0.50781 q 0.143229,-0.27343 0.377604,-0.42968 0.234375,-0.15625 0.504557,-0.15625 0.485026,0 0.833334,0.46224 0.351562,0.46224 0.351562,1.31185 0,0.89192 -0.351562,1.36718 -0.351563,0.47201 -0.836589,0.47201 -0.224609,0 -0.419922,-0.10742 -0.192057,-0.11068 -0.406901,-0.39714 l 0,1.74154 -0.751953,0 0,-4.77214 z m 0.742188,1.66992 q 0,0.58594 0.188802,0.86263 0.192057,0.2767 0.462239,0.2767 0.257162,0 0.432943,-0.25391 0.175781,-0.25716 0.175781,-0.83659 0,-0.55013 -0.182291,-0.81054 -0.179037,-0.26368 -0.439453,-0.26368 -0.273438,0 -0.45573,0.25717 -0.182291,0.2539 -0.182291,0.76822 z"
         style=""
         id="path12522" />
      <path
         d="m 71.913411,466.04042 -0.680338,-0.14974 q 0.123697,-0.52409 0.406901,-0.75195 0.286458,-0.23112 0.820312,-0.23112 0.47526,0 0.725911,0.13346 0.250652,0.13346 0.358073,0.36458 0.107422,0.22787 0.107422,0.83334 l -0.0065,1.06771 q 0,0.44921 0.03581,0.67057 0.03581,0.2181 0.133464,0.46549 l -0.742188,0 -0.09766,-0.3776 q -0.192057,0.22786 -0.413411,0.3418 -0.218099,0.11393 -0.465495,0.11393 -0.413412,0 -0.677084,-0.27669 -0.263671,-0.27995 -0.263671,-0.74219 0,-0.29297 0.107421,-0.51107 0.107422,-0.2181 0.302735,-0.34831 0.195312,-0.1302 0.625,-0.23112 0.520833,-0.12044 0.725911,-0.22461 0,-0.28645 -0.04232,-0.37434 -0.03906,-0.0912 -0.149739,-0.14649 -0.107422,-0.0586 -0.30599,-0.0586 -0.201823,0 -0.31901,0.0911 -0.113932,0.0911 -0.185547,0.3418 z m 1.002604,0.74219 q -0.143229,0.0586 -0.445963,0.13672 -0.348308,0.0911 -0.455729,0.20182 -0.107422,0.11068 -0.107422,0.28646 0,0.19857 0.117187,0.33528 0.120443,0.13347 0.299479,0.13347 0.159506,0 0.315756,-0.10742 0.156249,-0.11068 0.214843,-0.26042 0.06185,-0.14974 0.06185,-0.54362 l 0,-0.18229 z"
         style=""
         id="path12524" />
      <path
         d="m 76.98828,468.44276 -0.69987,0 0,-0.50781 q -0.172526,0.29297 -0.406901,0.43945 -0.234375,0.14649 -0.48177,0.14649 -0.475261,0 -0.830079,-0.47201 -0.351562,-0.47526 -0.351562,-1.35416 0,-0.88542 0.345052,-1.33464 0.345052,-0.45247 0.849609,-0.45247 0.237631,0 0.442709,0.12044 0.208333,0.12044 0.380859,0.36133 l 0,-1.71875 0.751953,0 0,4.77213 z m -2.001953,-1.80338 q 0,0.46875 0.07813,0.69987 0.08138,0.22786 0.227865,0.34505 0.149739,0.11393 0.335286,0.11393 0.247396,0 0.429688,-0.26692 0.182291,-0.26693 0.182291,-0.80404 0,-0.5957 -0.179036,-0.85612 -0.175781,-0.26367 -0.449219,-0.26367 -0.260417,0 -0.442708,0.25716 -0.182292,0.25716 -0.182292,0.77474 z"
         style=""
         id="path12526" />
      <path
         d="m 67.652344,473.17259 -0.725912,0.0977 q -0.05208,-0.53386 -0.426432,-0.53386 -0.244141,0 -0.406901,0.26693 -0.159505,0.26693 -0.201823,1.07747 0.139974,-0.20182 0.3125,-0.30273 0.172526,-0.10091 0.380859,-0.10091 0.458985,0 0.800782,0.42969 0.341797,0.42643 0.341797,1.13606 0,0.75521 -0.361329,1.1849 -0.361328,0.42969 -0.895182,0.42969 -0.585937,0 -0.973307,-0.55664 -0.384115,-0.5599 -0.384115,-1.85222 0,-1.31185 0.400391,-1.88802 0.400391,-0.57617 1.028646,-0.57617 0.432942,0 0.729166,0.29622 0.29948,0.29297 0.38086,0.89193 z m -1.695964,1.99544 q 0,0.45248 0.166016,0.69336 0.169271,0.23763 0.384114,0.23763 0.208334,0 0.345052,-0.19856 0.139974,-0.19857 0.139974,-0.65105 0,-0.46875 -0.149739,-0.68359 -0.14974,-0.21484 -0.371094,-0.21484 -0.214844,0 -0.364583,0.20508 -0.14974,0.20507 -0.14974,0.61197 z"
         style=""
         id="path12528" />
    </g>
    <g
       transform="matrix(1.5,0,0,1.5,-71.7836,278.02713)"
       style="font-style:normal;font-variant:normal;font-weight:bold;font-stretch:condensed;font-size:6.66666651px;line-height:125%;font-family:'Arial Narrow';-inkscape-font-specification:'Arial Narrow Bold Condensed';text-align:center;letter-spacing:0px;word-spacing:0px;text-anchor:middle;fill:#000000;fill-opacity:1;stroke:none"
       id="flowRoot13339">
      <path
         d="m 54.295573,468.44276 0,-4.77213 0.768229,0 1.601563,3.18685 0,-3.18685 0.735677,0 0,4.77213 -0.794271,0 -1.575521,-3.11198 0,3.11198 -0.735677,0 z"
         style=""
         id="path12501" />
      <path
         d="m 60.089844,468.44276 0,-0.51757 q -0.15625,0.27994 -0.410156,0.43945 -0.253907,0.15625 -0.530599,0.15625 -0.279948,0 -0.501302,-0.14649 -0.221354,-0.14648 -0.332032,-0.41666 -0.107421,-0.27018 -0.107421,-0.78451 l 0,-2.1875 0.751953,0 0,1.58854 q 0,0.68034 0.03255,0.86589 0.03581,0.18229 0.152995,0.2832 0.117187,0.10091 0.283203,0.10091 0.188802,0 0.348307,-0.1302 0.159505,-0.13347 0.208333,-0.33855 0.05208,-0.20833 0.05208,-0.91145 l 0,-1.45834 0.748698,0 0,3.45703 -0.696615,0 z"
         style=""
         id="path12503" />
      <path
         d="m 61.515625,464.98573 0.690104,0 0,0.47201 q 0.185547,-0.2767 0.406901,-0.41341 0.221354,-0.13672 0.478516,-0.13672 0.273437,0 0.472005,0.13672 0.201823,0.13671 0.328776,0.41341 0.188802,-0.2767 0.403646,-0.41341 0.218099,-0.13672 0.46224,-0.13672 0.289713,0 0.498046,0.13997 0.211589,0.13672 0.319011,0.39388 0.110677,0.25716 0.110677,0.79102 l 0,2.21028 -0.751953,0 0,-1.97591 q 0,-0.51758 -0.09115,-0.68685 -0.09115,-0.17252 -0.30599,-0.17252 -0.250651,0 -0.403645,0.24088 -0.152995,0.23763 -0.152995,0.93425 l 0,1.66015 -0.751953,0 0,-1.89453 q 0,-0.56315 -0.06185,-0.72591 -0.08138,-0.21484 -0.328776,-0.21484 -0.166016,0 -0.30599,0.11067 -0.139974,0.11068 -0.201823,0.32553 -0.06185,0.21158 -0.06185,0.7194 l 0,1.67968 -0.751953,0 0,-3.45703 z"
         style=""
         id="path12505" />
      <path
         d="m 66.408203,464.98573 0.69987,0 0,0.50781 q 0.143229,-0.27343 0.377604,-0.42968 0.234375,-0.15625 0.504558,-0.15625 0.485026,0 0.833333,0.46224 0.351562,0.46224 0.351562,1.31185 0,0.89192 -0.351562,1.36718 -0.351563,0.47201 -0.836589,0.47201 -0.224609,0 -0.419921,-0.10742 -0.192058,-0.11068 -0.406902,-0.39714 l 0,1.74154 -0.751953,0 0,-4.77214 z m 0.742188,1.66992 q 0,0.58594 0.188802,0.86263 0.192057,0.2767 0.46224,0.2767 0.257161,0 0.432942,-0.25391 0.175781,-0.25716 0.175781,-0.83659 0,-0.55013 -0.182291,-0.81054 -0.179037,-0.26368 -0.439453,-0.26368 -0.273438,0 -0.455729,0.25717 -0.182292,0.2539 -0.182292,0.76822 z"
         style=""
         id="path12507" />
      <path
         d="m 70.337239,466.04042 -0.680338,-0.14974 q 0.123698,-0.52409 0.406901,-0.75195 0.286458,-0.23112 0.820312,-0.23112 0.475261,0 0.725912,0.13346 0.250651,0.13346 0.358073,0.36458 0.107421,0.22787 0.107421,0.83334 l -0.0065,1.06771 q 0,0.44921 0.03581,0.67057 0.03581,0.2181 0.133464,0.46549 l -0.742188,0 -0.09766,-0.3776 q -0.192057,0.22786 -0.413411,0.3418 -0.218099,0.11393 -0.465495,0.11393 -0.413412,0 -0.677083,-0.27669 -0.263672,-0.27995 -0.263672,-0.74219 0,-0.29297 0.107422,-0.51107 0.107421,-0.2181 0.302734,-0.34831 0.195312,-0.1302 0.625,-0.23112 0.520833,-0.12044 0.725911,-0.22461 0,-0.28645 -0.04232,-0.37434 -0.03906,-0.0912 -0.14974,-0.14649 -0.107422,-0.0586 -0.30599,-0.0586 -0.201822,0 -0.31901,0.0911 -0.113932,0.0911 -0.185547,0.3418 z m 1.002604,0.74219 q -0.143229,0.0586 -0.445963,0.13672 -0.348307,0.0911 -0.455729,0.20182 -0.107422,0.11068 -0.107422,0.28646 0,0.19857 0.117187,0.33528 0.120443,0.13347 0.299479,0.13347 0.159506,0 0.315756,-0.10742 0.15625,-0.11068 0.214843,-0.26042 0.06185,-0.14974 0.06185,-0.54362 l 0,-0.18229 z"
         style=""
         id="path12509" />
      <path
         d="m 75.412108,468.44276 -0.699869,0 0,-0.50781 q -0.172527,0.29297 -0.406902,0.43945 -0.234375,0.14649 -0.48177,0.14649 -0.475261,0 -0.830078,-0.47201 -0.351563,-0.47526 -0.351563,-1.35416 0,-0.88542 0.345052,-1.33464 0.345052,-0.45247 0.849609,-0.45247 0.237631,0 0.442709,0.12044 0.208333,0.12044 0.380859,0.36133 l 0,-1.71875 0.751953,0 0,4.77213 z m -2.001953,-1.80338 q 0,0.46875 0.07813,0.69987 0.08138,0.22786 0.227865,0.34505 0.149739,0.11393 0.335286,0.11393 0.247396,0 0.429688,-0.26692 0.182291,-0.26693 0.182291,-0.80404 0,-0.5957 -0.179036,-0.85612 -0.175781,-0.26367 -0.449219,-0.26367 -0.260416,0 -0.442708,0.25716 -0.182292,0.25716 -0.182292,0.77474 z"
         style=""
         id="path12511" />
      <path
         d="m 63.533854,472.91869 0,-0.84961 2.565104,0 0,0.66406 q -0.315755,0.38086 -0.641276,1.08398 -0.322265,0.69987 -0.501302,1.50391 -0.175781,0.80078 -0.175781,1.45508 l -0.722656,0 q 0.02604,-1.01563 0.338541,-2.028 0.3125,-1.01237 0.843099,-1.82942 l -1.705729,0 z"
         style=""
         id="path12513" />
    </g>
    <g
       transform="matrix(1.5,0,0,1.5,-36.0883,277.96366)"
       style="font-style:normal;font-variant:normal;font-weight:bold;font-stretch:condensed;font-size:6.66666651px;line-height:125%;font-family:'Arial Narrow';-inkscape-font-specification:'Arial Narrow Bold Condensed';text-align:center;letter-spacing:0px;word-spacing:0px;text-anchor:middle;fill:#000000;fill-opacity:1;stroke:none"
       id="flowRoot13349">
      <path
         d="m 58.498698,468.44276 0,-4.77213 0.768229,0 1.601563,3.18685 0,-3.18685 0.735677,0 0,4.77213 -0.794271,0 -1.575521,-3.11198 0,3.11198 -0.735677,0 z"
         style=""
         id="path12486" />
      <path
         d="m 64.292969,468.44276 0,-0.51757 q -0.15625,0.27994 -0.410156,0.43945 -0.253907,0.15625 -0.530599,0.15625 -0.279948,0 -0.501302,-0.14649 -0.221354,-0.14648 -0.332032,-0.41666 -0.107421,-0.27018 -0.107421,-0.78451 l 0,-2.1875 0.751953,0 0,1.58854 q 0,0.68034 0.03255,0.86589 0.03581,0.18229 0.152995,0.2832 0.117187,0.10091 0.283203,0.10091 0.188802,0 0.348307,-0.1302 0.159505,-0.13347 0.208333,-0.33855 0.05208,-0.20833 0.05208,-0.91145 l 0,-1.45834 0.748698,0 0,3.45703 -0.696615,0 z"
         style=""
         id="path12488" />
      <path
         d="m 65.71875,464.98573 0.690104,0 0,0.47201 q 0.185547,-0.2767 0.406901,-0.41341 0.221354,-0.13672 0.478516,-0.13672 0.273437,0 0.472005,0.13672 0.201823,0.13671 0.328776,0.41341 0.188802,-0.2767 0.403646,-0.41341 0.218099,-0.13672 0.46224,-0.13672 0.289713,0 0.498046,0.13997 0.211589,0.13672 0.319011,0.39388 0.110677,0.25716 0.110677,0.79102 l 0,2.21028 -0.751953,0 0,-1.97591 q 0,-0.51758 -0.09115,-0.68685 -0.09115,-0.17252 -0.30599,-0.17252 -0.250651,0 -0.403645,0.24088 -0.152995,0.23763 -0.152995,0.93425 l 0,1.66015 -0.751953,0 0,-1.89453 q 0,-0.56315 -0.06185,-0.72591 -0.08138,-0.21484 -0.328776,-0.21484 -0.166016,0 -0.30599,0.11067 -0.139974,0.11068 -0.201823,0.32553 -0.06185,0.21158 -0.06185,0.7194 l 0,1.67968 -0.751953,0 0,-3.45703 z"
         style=""
         id="path12490" />
      <path
         d="m 70.611328,464.98573 0.69987,0 0,0.50781 q 0.143229,-0.27343 0.377604,-0.42968 0.234375,-0.15625 0.504558,-0.15625 0.485026,0 0.833333,0.46224 0.351562,0.46224 0.351562,1.31185 0,0.89192 -0.351562,1.36718 -0.351563,0.47201 -0.836589,0.47201 -0.224609,0 -0.419921,-0.10742 -0.192058,-0.11068 -0.406902,-0.39714 l 0,1.74154 -0.751953,0 0,-4.77214 z m 0.742188,1.66992 q 0,0.58594 0.188802,0.86263 0.192057,0.2767 0.46224,0.2767 0.257161,0 0.432942,-0.25391 0.175781,-0.25716 0.175781,-0.83659 0,-0.55013 -0.182291,-0.81054 -0.179037,-0.26368 -0.439453,-0.26368 -0.273438,0 -0.455729,0.25717 -0.182292,0.2539 -0.182292,0.76822 z"
         style=""
         id="path12492" />
      <path
         d="m 74.540364,466.04042 -0.680338,-0.14974 q 0.123698,-0.52409 0.406901,-0.75195 0.286458,-0.23112 0.820312,-0.23112 0.475261,0 0.725912,0.13346 0.250651,0.13346 0.358073,0.36458 0.107421,0.22787 0.107421,0.83334 l -0.0065,1.06771 q 0,0.44921 0.03581,0.67057 0.03581,0.2181 0.133464,0.46549 l -0.742188,0 -0.09766,-0.3776 q -0.192057,0.22786 -0.413411,0.3418 -0.218099,0.11393 -0.465495,0.11393 -0.413412,0 -0.677083,-0.27669 -0.263672,-0.27995 -0.263672,-0.74219 0,-0.29297 0.107422,-0.51107 0.107421,-0.2181 0.302734,-0.34831 0.195312,-0.1302 0.625,-0.23112 0.520833,-0.12044 0.725911,-0.22461 0,-0.28645 -0.04232,-0.37434 -0.03906,-0.0912 -0.14974,-0.14649 -0.107422,-0.0586 -0.30599,-0.0586 -0.201822,0 -0.31901,0.0911 -0.113932,0.0911 -0.185547,0.3418 z m 1.002604,0.74219 q -0.143229,0.0586 -0.445963,0.13672 -0.348307,0.0911 -0.455729,0.20182 -0.107422,0.11068 -0.107422,0.28646 0,0.19857 0.117187,0.33528 0.120443,0.13347 0.299479,0.13347 0.159506,0 0.315756,-0.10742 0.15625,-0.11068 0.214843,-0.26042 0.06185,-0.14974 0.06185,-0.54362 l 0,-0.18229 z"
         style=""
         id="path12494" />
      <path
         d="m 79.615233,468.44276 -0.699869,0 0,-0.50781 q -0.172527,0.29297 -0.406902,0.43945 -0.234375,0.14649 -0.48177,0.14649 -0.475261,0 -0.830078,-0.47201 -0.351563,-0.47526 -0.351563,-1.35416 0,-0.88542 0.345052,-1.33464 0.345052,-0.45247 0.849609,-0.45247 0.237631,0 0.442709,0.12044 0.208333,0.12044 0.380859,0.36133 l 0,-1.71875 0.751953,0 0,4.77213 z m -2.001953,-1.80338 q 0,0.46875 0.07813,0.69987 0.08138,0.22786 0.227865,0.34505 0.149739,0.11393 0.335286,0.11393 0.247396,0 0.429688,-0.26692 0.182291,-0.26693 0.182291,-0.80404 0,-0.5957 -0.179036,-0.85612 -0.175781,-0.26367 -0.449219,-0.26367 -0.260416,0 -0.442708,0.25716 -0.182292,0.25716 -0.182292,0.77474 z"
         style=""
         id="path12496" />
      <path
         d="m 68.384766,474.20124 q -0.276693,-0.14323 -0.416667,-0.39063 -0.139974,-0.24739 -0.139974,-0.5957 0,-0.56315 0.31901,-0.89518 0.319011,-0.33529 0.859375,-0.33529 0.572917,0 0.872396,0.35807 0.299479,0.35482 0.299479,0.86589 0,0.34831 -0.146484,0.60547 -0.143229,0.2539 -0.39388,0.38737 0.335286,0.16276 0.501302,0.45898 0.166016,0.29297 0.166016,0.72266 0,0.44271 -0.166016,0.78125 -0.162761,0.33854 -0.452474,0.51758 -0.289714,0.17903 -0.651042,0.17903 -0.566406,0 -0.9375,-0.39062 -0.367838,-0.39388 -0.367838,-1.05795 0,-0.42968 0.169271,-0.73893 0.16927,-0.30924 0.485026,-0.472 z m 0.152994,-0.92123 q 0,0.27995 0.130209,0.42969 0.133463,0.14974 0.335286,0.14974 0.205078,0 0.338542,-0.14974 0.133463,-0.14974 0.133463,-0.42969 0,-0.27018 -0.133463,-0.41992 -0.130208,-0.14974 -0.328776,-0.14974 -0.208333,0 -0.341797,0.153 -0.133464,0.14974 -0.133464,0.41666 z m -0.06836,2.04427 q 0,0.38412 0.16276,0.59245 0.162761,0.20834 0.390625,0.20834 0.227865,0 0.38086,-0.19857 0.15625,-0.19857 0.15625,-0.59571 0,-0.34179 -0.159505,-0.54036 -0.15625,-0.19857 -0.38737,-0.19857 -0.227865,0 -0.38737,0.20183 -0.15625,0.19856 -0.15625,0.53059 z"
         style=""
         id="path12498" />
    </g>
    <g
       transform="translate(-804.0732,1086.659)"
       style="font-style:normal;font-variant:normal;font-weight:bold;font-stretch:condensed;font-size:10px;line-height:125%;font-family:'Arial Narrow';-inkscape-font-specification:'Arial Narrow Bold Condensed';text-align:center;letter-spacing:0px;word-spacing:0px;text-anchor:middle;fill:#000000;fill-opacity:1;stroke:none"
       id="flowRoot13359">
      <path
         d="m 897.73828,-106.03117 0,-7.1582 1.15234,0 2.40235,4.78027 0,-4.78027 1.10351,0 0,7.1582 -1.1914,0 -2.36328,-4.66797 0,4.66797 -1.10352,0 z"
         style=""
         id="path12471" />
      <path
         d="m 906.42969,-106.03117 0,-0.77636 q -0.23438,0.41992 -0.61524,0.65918 -0.38086,0.23437 -0.7959,0.23437 -0.41992,0 -0.75195,-0.21973 -0.33203,-0.21972 -0.49805,-0.625 -0.16113,-0.40527 -0.16113,-1.17675 l 0,-3.28125 1.12793,0 0,2.38281 q 0,1.02051 0.0488,1.29883 0.0537,0.27343 0.22949,0.4248 0.17578,0.15137 0.42481,0.15137 0.2832,0 0.52246,-0.19531 0.23926,-0.2002 0.3125,-0.50782 0.0781,-0.3125 0.0781,-1.36718 l 0,-2.1875 1.12305,0 0,5.18554 -1.04492,0 z"
         style=""
         id="path12473" />
      <path
         d="m 908.56836,-111.21671 1.03516,0 0,0.708 q 0.27832,-0.41504 0.61035,-0.62011 0.33203,-0.20508 0.71777,-0.20508 0.41016,0 0.70801,0.20508 0.30273,0.20507 0.49316,0.62011 0.28321,-0.41504 0.60547,-0.62011 0.32715,-0.20508 0.69336,-0.20508 0.43457,0 0.74707,0.20996 0.31738,0.20508 0.47852,0.59082 0.16601,0.38574 0.16601,1.18652 l 0,3.31543 -1.12793,0 0,-2.96386 q 0,-0.77637 -0.13672,-1.03028 -0.13672,-0.25879 -0.45898,-0.25879 -0.37598,0 -0.60547,0.36133 -0.22949,0.35645 -0.22949,1.40137 l 0,2.49023 -1.12793,0 0,-2.84179 q 0,-0.84473 -0.0928,-1.08887 -0.12208,-0.32227 -0.49317,-0.32227 -0.24902,0 -0.45898,0.16602 -0.20996,0.16601 -0.30274,0.48828 -0.0928,0.31738 -0.0928,1.0791 l 0,2.51953 -1.12793,0 0,-5.18554 z"
         style=""
         id="path12475" />
      <path
         d="m 915.90723,-111.21671 1.0498,0 0,0.76171 q 0.21484,-0.41015 0.56641,-0.64453 0.35156,-0.23437 0.75683,-0.23437 0.72754,0 1.25,0.69336 0.52735,0.69336 0.52735,1.96777 0,1.33789 -0.52735,2.05078 -0.52734,0.70801 -1.25488,0.70801 -0.33691,0 -0.62988,-0.16113 -0.28809,-0.16602 -0.61035,-0.59571 l 0,2.61231 -1.12793,0 0,-7.1582 z m 1.11328,2.50488 q 0,0.87891 0.2832,1.29394 0.28809,0.41504 0.69336,0.41504 0.38574,0 0.64941,-0.38086 0.26368,-0.38574 0.26368,-1.25488 0,-0.82519 -0.27344,-1.21582 -0.26856,-0.39551 -0.65918,-0.39551 -0.41016,0 -0.68359,0.38575 -0.27344,0.38085 -0.27344,1.15234 z"
         style=""
         id="path12477" />
      <path
         d="m 921.80078,-109.63468 -1.02051,-0.22461 q 0.18555,-0.78613 0.61035,-1.12793 0.42969,-0.34668 1.23047,-0.34668 0.71289,0 1.08887,0.20019 0.37598,0.2002 0.53711,0.54688 0.16113,0.3418 0.16113,1.25 l -0.01,1.60156 q 0,0.67383 0.0537,1.00586 0.0537,0.32715 0.20019,0.69824 l -1.11328,0 -0.14648,-0.5664 q -0.28809,0.34179 -0.62012,0.51269 -0.32715,0.1709 -0.69824,0.1709 -0.62012,0 -1.01563,-0.41504 -0.3955,-0.41992 -0.3955,-1.11328 0,-0.43945 0.16113,-0.7666 0.16113,-0.32715 0.4541,-0.52246 0.29297,-0.19531 0.9375,-0.34668 0.78125,-0.18067 1.08887,-0.33692 0,-0.42968 -0.0635,-0.56152 -0.0586,-0.13672 -0.22461,-0.21973 -0.16113,-0.0879 -0.45898,-0.0879 -0.30274,0 -0.47852,0.13672 -0.1709,0.13672 -0.27832,0.5127 z m 1.50391,1.11328 q -0.21485,0.0879 -0.66895,0.20508 -0.52246,0.13672 -0.68359,0.30273 -0.16113,0.16602 -0.16113,0.42969 0,0.29785 0.17578,0.50293 0.18066,0.20019 0.44922,0.20019 0.23925,0 0.47363,-0.16113 0.23437,-0.16601 0.32226,-0.39062 0.0928,-0.22461 0.0928,-0.81543 l 0,-0.27344 z"
         style=""
         id="path12479" />
      <path
         d="m 929.41309,-106.03117 -1.04981,0 0,-0.76172 q -0.25879,0.43946 -0.61035,0.65918 -0.35156,0.21973 -0.72266,0.21973 -0.71289,0 -1.24511,-0.70801 -0.52735,-0.71289 -0.52735,-2.03125 0,-1.32812 0.51758,-2.00195 0.51758,-0.67871 1.27441,-0.67871 0.35645,0 0.66407,0.18066 0.3125,0.18067 0.57129,0.54199 l 0,-2.57812 1.12793,0 0,7.1582 z m -3.00293,-2.70508 q 0,0.70313 0.11718,1.04981 0.12207,0.3418 0.3418,0.51758 0.22461,0.1709 0.50293,0.1709 0.37109,0 0.64453,-0.40039 0.27344,-0.4004 0.27344,-1.20606 0,-0.89355 -0.26856,-1.28418 -0.26367,-0.39551 -0.67382,-0.39551 -0.39063,0 -0.66407,0.38575 -0.27343,0.38574 -0.27343,1.1621 z"
         style=""
         id="path12481" />
      <path
         d="m 911.62012,-95.18644 1.08886,-0.146485 q 0.0781,0.795899 0.63477,0.795899 0.37598,0 0.61523,-0.395508 0.23926,-0.400391 0.30762,-1.616211 -0.20996,0.297852 -0.47363,0.449219 -0.26367,0.151367 -0.58594,0.151367 -0.66894,0 -1.18652,-0.639649 -0.5127,-0.639648 -0.5127,-1.699218 0,-1.132813 0.54199,-1.782224 0.542,-0.64942 1.3379,-0.64942 0.88867,0 1.46484,0.839847 0.57617,0.834961 0.57617,2.773437 0,1.972657 -0.60059,2.836914 -0.60058,0.864258 -1.55761,0.864258 -0.66406,0 -1.09864,-0.43457 -0.42968,-0.439453 -0.55175,-1.347656 z m 2.54883,-2.998047 q 0,-0.673828 -0.25391,-1.035156 -0.25391,-0.361329 -0.57617,-0.361329 -0.3125,0 -0.52246,0.297852 -0.20508,0.297852 -0.20508,0.991211 0,0.693359 0.22461,1.015625 0.22949,0.322266 0.56152,0.322266 0.31738,0 0.54199,-0.307618 0.2295,-0.307617 0.2295,-0.922851 z"
         style=""
         id="path12483" />
    </g>
    <g
       transform="translate(-846.06783,1170.66)"
       style="font-style:normal;font-variant:normal;font-weight:bold;font-stretch:condensed;font-size:10px;line-height:125%;font-family:'Arial Narrow';-inkscape-font-specification:'Arial Narrow Bold Condensed';text-align:center;letter-spacing:0px;word-spacing:0px;text-anchor:middle;fill:#000000;fill-opacity:1;stroke:none"
       id="flowRoot13369">
      <path
         d="m 855.73047,-148.02726 0,-7.1582 1.15234,0 2.40235,4.78027 0,-4.78027 1.10351,0 0,7.1582 -1.1914,0 -2.36329,-4.66797 0,4.66797 -1.10351,0 z"
         style=""
         id="path12450" />
      <path
         d="m 864.42187,-148.02726 0,-0.77637 q -0.23437,0.41992 -0.61523,0.65918 -0.38086,0.23438 -0.7959,0.23438 -0.41992,0 -0.75195,-0.21973 -0.33203,-0.21973 -0.49805,-0.625 -0.16113,-0.40527 -0.16113,-1.17676 l 0,-3.28125 1.12793,0 0,2.38281 q 0,1.02051 0.0488,1.29883 0.0537,0.27344 0.22949,0.42481 0.17578,0.15136 0.4248,0.15136 0.28321,0 0.52246,-0.19531 0.23926,-0.20019 0.3125,-0.50781 0.0781,-0.3125 0.0781,-1.36719 l 0,-2.1875 1.12305,0 0,5.18555 -1.04493,0 z"
         style=""
         id="path12452" />
      <path
         d="m 866.56055,-153.21281 1.03515,0 0,0.70801 q 0.27832,-0.41504 0.61035,-0.62012 0.33204,-0.20508 0.71778,-0.20508 0.41015,0 0.70801,0.20508 0.30273,0.20508 0.49316,0.62012 0.2832,-0.41504 0.60547,-0.62012 0.32715,-0.20508 0.69336,-0.20508 0.43457,0 0.74707,0.20997 0.31738,0.20507 0.47851,0.59082 0.16602,0.38574 0.16602,1.18652 l 0,3.31543 -1.12793,0 0,-2.96387 q 0,-0.77637 -0.13672,-1.03027 -0.13672,-0.25879 -0.45898,-0.25879 -0.37598,0 -0.60547,0.36133 -0.22949,0.35644 -0.22949,1.40136 l 0,2.49024 -1.12793,0 0,-2.8418 q 0,-0.84472 -0.0928,-1.08886 -0.12207,-0.32227 -0.49316,-0.32227 -0.24902,0 -0.45899,0.16602 -0.20996,0.16601 -0.30273,0.48828 -0.0928,0.31738 -0.0928,1.0791 l 0,2.51953 -1.12793,0 0,-5.18555 z"
         style=""
         id="path12454" />
      <path
         d="m 873.89941,-153.21281 1.04981,0 0,0.76172 q 0.21484,-0.41016 0.5664,-0.64453 0.35157,-0.23438 0.75684,-0.23438 0.72754,0 1.25,0.69336 0.52734,0.69336 0.52734,1.96778 0,1.33789 -0.52734,2.05078 -0.52734,0.70801 -1.25488,0.70801 -0.33692,0 -0.62988,-0.16114 -0.28809,-0.16601 -0.61036,-0.5957 l 0,2.61231 -1.12793,0 0,-7.15821 z m 1.11329,2.50489 q 0,0.8789 0.2832,1.29394 0.28808,0.41504 0.69336,0.41504 0.38574,0 0.64941,-0.38086 0.26367,-0.38574 0.26367,-1.25488 0,-0.8252 -0.27343,-1.21582 -0.26856,-0.39551 -0.65918,-0.39551 -0.41016,0 -0.6836,0.38574 -0.27343,0.38086 -0.27343,1.15235 z"
         style=""
         id="path12456" />
      <path
         d="m 879.79297,-151.63078 -1.02051,-0.22461 q 0.18555,-0.78613 0.61035,-1.12793 0.42969,-0.34668 1.23047,-0.34668 0.71289,0 1.08887,0.2002 0.37597,0.2002 0.53711,0.54688 0.16113,0.34179 0.16113,1.25 l -0.01,1.60156 q 0,0.67383 0.0537,1.00586 0.0537,0.32715 0.20019,0.69824 l -1.11328,0 -0.14648,-0.56641 q -0.28809,0.3418 -0.62012,0.5127 -0.32715,0.1709 -0.69824,0.1709 -0.62012,0 -1.01563,-0.41504 -0.39551,-0.41992 -0.39551,-1.11328 0,-0.43946 0.16114,-0.76661 0.16113,-0.32714 0.4541,-0.52246 0.29297,-0.19531 0.9375,-0.34668 0.78125,-0.18066 1.08886,-0.33691 0,-0.42969 -0.0635,-0.56152 -0.0586,-0.13672 -0.22461,-0.21973 -0.16113,-0.0879 -0.45899,-0.0879 -0.30273,0 -0.47851,0.13672 -0.1709,0.13672 -0.27832,0.51269 z m 1.5039,1.11328 q -0.21484,0.0879 -0.66894,0.20508 -0.52246,0.13672 -0.68359,0.30274 -0.16114,0.16601 -0.16114,0.42968 0,0.29786 0.17578,0.50293 0.18067,0.2002 0.44922,0.2002 0.23926,0 0.47364,-0.16113 0.23437,-0.16602 0.32226,-0.39063 0.0928,-0.22461 0.0928,-0.81543 l 0,-0.27344 z"
         style=""
         id="path12458" />
      <path
         d="m 887.40527,-148.02726 -1.0498,0 0,-0.76172 q -0.25879,0.43945 -0.61035,0.65918 -0.35157,0.21973 -0.72266,0.21973 -0.71289,0 -1.24512,-0.70801 -0.52734,-0.71289 -0.52734,-2.03125 0,-1.32813 0.51758,-2.00195 0.51758,-0.67872 1.27441,-0.67872 0.35645,0 0.66406,0.18067 0.3125,0.18066 0.57129,0.54199 l 0,-2.57812 1.12793,0 0,7.1582 z m -3.00293,-2.70508 q 0,0.70313 0.11719,1.04981 0.12207,0.34179 0.3418,0.51757 0.22461,0.1709 0.50293,0.1709 0.37109,0 0.64453,-0.40039 0.27344,-0.40039 0.27344,-1.20605 0,-0.89356 -0.26856,-1.28418 -0.26367,-0.39551 -0.67383,-0.39551 -0.39062,0 -0.66406,0.38574 -0.27344,0.38574 -0.27344,1.16211 z"
         style=""
         id="path12460" />
      <path
         d="m 863.8457,-137.85636 1.15723,-0.13672 q 0.19531,1.37207 1.2793,1.37207 0.53711,0 0.84472,-0.27832 0.30762,-0.2832 0.30762,-0.69824 0,-0.24414 -0.10742,-0.41504 -0.10742,-0.1709 -0.32715,-0.27832 -0.21973,-0.11231 -1.06445,-0.3711 -0.75684,-0.22949 -1.1084,-0.49804 -0.35156,-0.26856 -0.56153,-0.70313 -0.20507,-0.43945 -0.20507,-0.94238 0,-0.58594 0.26367,-1.05469 0.26855,-0.46875 0.7373,-0.70801 0.46875,-0.23925 1.15723,-0.23925 1.03516,0 1.61621,0.56152 0.58106,0.56152 0.61524,1.60644 l -1.18653,0.0635 q -0.0781,-0.57617 -0.33691,-0.80566 -0.25879,-0.2295 -0.73731,-0.2295 -0.47851,0 -0.7373,0.2002 -0.25879,0.2002 -0.25879,0.49805 0,0.29297 0.23437,0.49316 0.23438,0.2002 1.07911,0.43945 0.89355,0.25879 1.28906,0.54688 0.40039,0.2832 0.61035,0.7373 0.20996,0.44922 0.20996,1.09375 0,0.93262 -0.57617,1.56739 -0.57129,0.63476 -1.79199,0.63476 -2.15821,0 -2.40235,-2.45605 z"
         style=""
         id="path12462" />
      <path
         d="m 871.55078,-140.71281 0,1.09375 -0.7666,0 0,2.08985 q 0,0.67871 0.0342,0.78613 0.0684,0.19531 0.27832,0.19531 0.15625,0 0.44922,-0.13183 l 0.0977,1.06445 q -0.39062,0.20508 -0.88378,0.20508 -0.42969,0 -0.68848,-0.20508 -0.25879,-0.20508 -0.34668,-0.59082 -0.0684,-0.2832 -0.0684,-1.15235 l 0,-2.26074 -0.51758,0 0,-1.09375 0.51758,0 0,-1.03027 1.12793,-0.80078 0,1.83105 0.7666,0 z"
         style=""
         id="path12464" />
      <path
         d="m 873.18164,-139.13078 -1.02051,-0.22461 q 0.18555,-0.78613 0.61035,-1.12793 0.42969,-0.34668 1.23047,-0.34668 0.71289,0 1.08887,0.2002 0.37598,0.2002 0.53711,0.54688 0.16113,0.34179 0.16113,1.25 l -0.01,1.60156 q 0,0.67383 0.0537,1.00586 0.0537,0.32715 0.20019,0.69824 l -1.11328,0 -0.14648,-0.56641 q -0.28809,0.3418 -0.62012,0.5127 -0.32715,0.1709 -0.69824,0.1709 -0.62012,0 -1.01563,-0.41504 -0.3955,-0.41992 -0.3955,-1.11328 0,-0.43946 0.16113,-0.76661 0.16113,-0.32714 0.4541,-0.52246 0.29297,-0.19531 0.9375,-0.34668 0.78125,-0.18066 1.08887,-0.33691 0,-0.42969 -0.0635,-0.56152 -0.0586,-0.13672 -0.22461,-0.21973 -0.16113,-0.0879 -0.45898,-0.0879 -0.30274,0 -0.47852,0.13672 -0.1709,0.13672 -0.27832,0.51269 z m 1.50391,1.11328 q -0.21485,0.0879 -0.66895,0.20508 -0.52246,0.13672 -0.68359,0.30274 -0.16114,0.16601 -0.16114,0.42968 0,0.29786 0.17579,0.50293 0.18066,0.2002 0.44921,0.2002 0.23926,0 0.47364,-0.16113 0.23437,-0.16602 0.32226,-0.39063 0.0928,-0.22461 0.0928,-0.81543 l 0,-0.27344 z"
         style=""
         id="path12466" />
      <path
         d="m 877.97168,-135.52726 -1.12793,0 0,-5.18555 1.04492,0 0,0.73731 q 0.26856,-0.51758 0.47852,-0.6836 0.21484,-0.1709 0.49316,-0.1709 0.38574,0 0.73731,0.25879 l -0.35157,1.19629 q -0.27832,-0.22461 -0.52734,-0.22461 -0.23438,0 -0.41504,0.17578 -0.17578,0.1709 -0.25391,0.625 -0.0781,0.45411 -0.0781,1.66993 l 0,1.60156 z"
         style=""
         id="path12468" />
    </g>
    <g
       transform="matrix(1.5,0,0,1.5,9.855,319.96854)"
       style="font-style:normal;font-variant:normal;font-weight:bold;font-stretch:condensed;font-size:6.66666651px;line-height:125%;font-family:'Arial Narrow';-inkscape-font-specification:'Arial Narrow Bold Condensed';text-align:center;letter-spacing:0px;word-spacing:0px;text-anchor:middle;fill:#000000;fill-opacity:1;stroke:none"
       id="flowRoot13379">
      <path
         d="m 55.871745,468.44276 0,-4.77213 0.768229,0 1.601563,3.18685 0,-3.18685 0.735677,0 0,4.77213 -0.794271,0 -1.575521,-3.11198 0,3.11198 -0.735677,0 z"
         style=""
         id="path12429" />
      <path
         d="m 61.666016,468.44276 0,-0.51757 q -0.15625,0.27994 -0.410156,0.43945 -0.253907,0.15625 -0.530599,0.15625 -0.279948,0 -0.501302,-0.14649 -0.221355,-0.14648 -0.332032,-0.41666 -0.107422,-0.27018 -0.107422,-0.78451 l 0,-2.1875 0.751954,0 0,1.58854 q 0,0.68034 0.03255,0.86589 0.03581,0.18229 0.152994,0.2832 0.117188,0.10091 0.283204,0.10091 0.188802,0 0.348307,-0.1302 0.159505,-0.13347 0.208333,-0.33855 0.05208,-0.20833 0.05208,-0.91145 l 0,-1.45834 0.748698,0 0,3.45703 -0.696614,0 z"
         style=""
         id="path12431" />
      <path
         d="m 63.091797,464.98573 0.690104,0 0,0.47201 q 0.185547,-0.2767 0.406901,-0.41341 0.221354,-0.13672 0.478516,-0.13672 0.273437,0 0.472005,0.13672 0.201823,0.13671 0.328776,0.41341 0.188802,-0.2767 0.403646,-0.41341 0.218099,-0.13672 0.462239,-0.13672 0.289714,0 0.498047,0.13997 0.211589,0.13672 0.319011,0.39388 0.110677,0.25716 0.110677,0.79102 l 0,2.21028 -0.751953,0 0,-1.97591 q 0,-0.51758 -0.09115,-0.68685 -0.09115,-0.17252 -0.30599,-0.17252 -0.250651,0 -0.403646,0.24088 -0.152994,0.23763 -0.152994,0.93425 l 0,1.66015 -0.751953,0 0,-1.89453 q 0,-0.56315 -0.06185,-0.72591 -0.08138,-0.21484 -0.328776,-0.21484 -0.166016,0 -0.30599,0.11067 -0.139974,0.11068 -0.201823,0.32553 -0.06185,0.21158 -0.06185,0.7194 l 0,1.67968 -0.751953,0 0,-3.45703 z"
         style=""
         id="path12433" />
      <path
         d="m 67.984375,464.98573 0.69987,0 0,0.50781 q 0.143229,-0.27343 0.377604,-0.42968 0.234375,-0.15625 0.504557,-0.15625 0.485026,0 0.833334,0.46224 0.351562,0.46224 0.351562,1.31185 0,0.89192 -0.351562,1.36718 -0.351563,0.47201 -0.836589,0.47201 -0.224609,0 -0.419922,-0.10742 -0.192057,-0.11068 -0.406901,-0.39714 l 0,1.74154 -0.751953,0 0,-4.77214 z m 0.742188,1.66992 q 0,0.58594 0.188802,0.86263 0.192057,0.2767 0.462239,0.2767 0.257162,0 0.432943,-0.25391 0.175781,-0.25716 0.175781,-0.83659 0,-0.55013 -0.182291,-0.81054 -0.179037,-0.26368 -0.439453,-0.26368 -0.273438,0 -0.45573,0.25717 -0.182291,0.2539 -0.182291,0.76822 z"
         style=""
         id="path12435" />
      <path
         d="m 71.913411,466.04042 -0.680338,-0.14974 q 0.123697,-0.52409 0.406901,-0.75195 0.286458,-0.23112 0.820312,-0.23112 0.47526,0 0.725911,0.13346 0.250652,0.13346 0.358073,0.36458 0.107422,0.22787 0.107422,0.83334 l -0.0065,1.06771 q 0,0.44921 0.03581,0.67057 0.03581,0.2181 0.133464,0.46549 l -0.742188,0 -0.09766,-0.3776 q -0.192057,0.22786 -0.413411,0.3418 -0.218099,0.11393 -0.465495,0.11393 -0.413412,0 -0.677084,-0.27669 -0.263671,-0.27995 -0.263671,-0.74219 0,-0.29297 0.107421,-0.51107 0.107422,-0.2181 0.302735,-0.34831 0.195312,-0.1302 0.625,-0.23112 0.520833,-0.12044 0.725911,-0.22461 0,-0.28645 -0.04232,-0.37434 -0.03906,-0.0912 -0.149739,-0.14649 -0.107422,-0.0586 -0.30599,-0.0586 -0.201823,0 -0.31901,0.0911 -0.113932,0.0911 -0.185547,0.3418 z m 1.002604,0.74219 q -0.143229,0.0586 -0.445963,0.13672 -0.348308,0.0911 -0.455729,0.20182 -0.107422,0.11068 -0.107422,0.28646 0,0.19857 0.117187,0.33528 0.120443,0.13347 0.299479,0.13347 0.159506,0 0.315756,-0.10742 0.156249,-0.11068 0.214843,-0.26042 0.06185,-0.14974 0.06185,-0.54362 l 0,-0.18229 z"
         style=""
         id="path12437" />
      <path
         d="m 76.98828,468.44276 -0.69987,0 0,-0.50781 q -0.172526,0.29297 -0.406901,0.43945 -0.234375,0.14649 -0.48177,0.14649 -0.475261,0 -0.830079,-0.47201 -0.351562,-0.47526 -0.351562,-1.35416 0,-0.88542 0.345052,-1.33464 0.345052,-0.45247 0.849609,-0.45247 0.237631,0 0.442709,0.12044 0.208333,0.12044 0.380859,0.36133 l 0,-1.71875 0.751953,0 0,4.77213 z m -2.001953,-1.80338 q 0,0.46875 0.07813,0.69987 0.08138,0.22786 0.227865,0.34505 0.149739,0.11393 0.335286,0.11393 0.247396,0 0.429688,-0.26692 0.182291,-0.26693 0.182291,-0.80404 0,-0.5957 -0.179036,-0.85612 -0.175781,-0.26367 -0.449219,-0.26367 -0.260417,0 -0.442708,0.25716 -0.182292,0.25716 -0.182292,0.77474 z"
         style=""
         id="path12439" />
      <path
         d="m 60.123047,476.77611 0,-4.77214 0.78776,0 0,1.87826 1.54948,0 0,-1.87826 0.791015,0 0,4.77214 -0.791015,0 0,-2.08659 -1.54948,0 0,2.08659 -0.78776,0 z"
         style=""
         id="path12441" />
      <path
         d="m 64.621745,474.37376 -0.680339,-0.14974 q 0.123698,-0.52408 0.406901,-0.75195 0.286459,-0.23112 0.820313,-0.23112 0.47526,0 0.725911,0.13346 0.250651,0.13347 0.358073,0.36459 0.107422,0.22786 0.107422,0.83333 l -0.0065,1.06771 q 0,0.44922 0.03581,0.67057 0.03581,0.2181 0.133464,0.4655 l -0.742188,0 -0.09766,-0.37761 q -0.192057,0.22787 -0.413412,0.3418 -0.218099,0.11393 -0.465494,0.11393 -0.413412,0 -0.677084,-0.27669 -0.263672,-0.27995 -0.263672,-0.74219 0,-0.29297 0.107422,-0.51107 0.107422,-0.21809 0.302735,-0.3483 0.195312,-0.13021 0.625,-0.23112 0.520833,-0.12045 0.725911,-0.22461 0,-0.28646 -0.04232,-0.37435 -0.03906,-0.0911 -0.149739,-0.14649 -0.107422,-0.0586 -0.30599,-0.0586 -0.201823,0 -0.31901,0.0912 -0.113932,0.0911 -0.185547,0.34179 z m 1.002604,0.74219 q -0.143229,0.0586 -0.445963,0.13672 -0.348308,0.0911 -0.45573,0.20182 -0.107421,0.11068 -0.107421,0.28646 0,0.19857 0.117187,0.33529 0.120443,0.13346 0.299479,0.13346 0.159505,0 0.315755,-0.10742 0.15625,-0.11068 0.214844,-0.26042 0.06185,-0.14974 0.06185,-0.54362 l 0,-0.18229 z"
         style=""
         id="path12443" />
      <path
         d="m 66.832031,475.78978 0.751953,-0.13997 q 0.09766,0.54361 0.605469,0.54361 0.270182,0 0.403646,-0.10416 0.133463,-0.10417 0.133463,-0.27018 0,-0.11394 -0.05859,-0.17904 -0.06185,-0.0651 -0.244141,-0.11393 -0.924479,-0.24414 -1.17513,-0.4655 -0.3125,-0.27669 -0.3125,-0.75846 0,-0.48177 0.305989,-0.77149 0.30599,-0.28971 0.888672,-0.28971 0.556641,0 0.846354,0.2181 0.289714,0.21484 0.406902,0.69661 l -0.706381,0.15951 q -0.0944,-0.41667 -0.533854,-0.41667 -0.276693,0 -0.39388,0.0814 -0.117188,0.0781 -0.117188,0.20508 0,0.11393 0.107422,0.1888 0.107422,0.0781 0.667318,0.23438 0.628255,0.17578 0.852865,0.42643 0.221354,0.25065 0.221354,0.66732 0,0.5013 -0.345052,0.82682 -0.341797,0.32552 -0.947266,0.32552 -0.55013,0 -0.898437,-0.27018 -0.348308,-0.27344 -0.458985,-0.79427 z"
         style=""
         id="path12445" />
      <path
         d="m 70.891276,472.00397 0,1.75456 q 0.179036,-0.26042 0.39388,-0.38737 0.218099,-0.13021 0.472005,-0.13021 0.338542,0 0.566406,0.17904 0.227865,0.17903 0.325521,0.50781 0.07161,0.24089 0.07161,0.82031 l 0,2.028 -0.748698,0 0,-1.82617 q 0,-0.63477 -0.08138,-0.79428 -0.113932,-0.21484 -0.387369,-0.21484 -0.289714,0 -0.452474,0.23438 -0.159505,0.23112 -0.159505,0.86914 l 0,1.73177 -0.751954,0 0,-4.77214 0.751954,0 z"
         style=""
         id="path12447" />
    </g>
    <g
       transform="matrix(1.5,0,0,1.5,-36.0854,319.96366)"
       style="font-style:normal;font-variant:normal;font-weight:bold;font-stretch:condensed;font-size:6.66666651px;line-height:125%;font-family:'Arial Narrow';-inkscape-font-specification:'Arial Narrow Bold Condensed';text-align:center;letter-spacing:0px;word-spacing:0px;text-anchor:middle;fill:#000000;fill-opacity:1;stroke:none"
       id="flowRoot13399">
      <path
         d="m 58.498698,468.44276 0,-4.77213 0.768229,0 1.601563,3.18685 0,-3.18685 0.735677,0 0,4.77213 -0.794271,0 -1.575521,-3.11198 0,3.11198 -0.735677,0 z"
         style=""
         id="path12414" />
      <path
         d="m 64.292969,468.44276 0,-0.51757 q -0.15625,0.27994 -0.410156,0.43945 -0.253907,0.15625 -0.530599,0.15625 -0.279948,0 -0.501302,-0.14649 -0.221354,-0.14648 -0.332032,-0.41666 -0.107421,-0.27018 -0.107421,-0.78451 l 0,-2.1875 0.751953,0 0,1.58854 q 0,0.68034 0.03255,0.86589 0.03581,0.18229 0.152995,0.2832 0.117187,0.10091 0.283203,0.10091 0.188802,0 0.348307,-0.1302 0.159505,-0.13347 0.208333,-0.33855 0.05208,-0.20833 0.05208,-0.91145 l 0,-1.45834 0.748698,0 0,3.45703 -0.696615,0 z"
         style=""
         id="path12416" />
      <path
         d="m 65.71875,464.98573 0.690104,0 0,0.47201 q 0.185547,-0.2767 0.406901,-0.41341 0.221354,-0.13672 0.478516,-0.13672 0.273437,0 0.472005,0.13672 0.201823,0.13671 0.328776,0.41341 0.188802,-0.2767 0.403646,-0.41341 0.218099,-0.13672 0.46224,-0.13672 0.289713,0 0.498046,0.13997 0.211589,0.13672 0.319011,0.39388 0.110677,0.25716 0.110677,0.79102 l 0,2.21028 -0.751953,0 0,-1.97591 q 0,-0.51758 -0.09115,-0.68685 -0.09115,-0.17252 -0.30599,-0.17252 -0.250651,0 -0.403645,0.24088 -0.152995,0.23763 -0.152995,0.93425 l 0,1.66015 -0.751953,0 0,-1.89453 q 0,-0.56315 -0.06185,-0.72591 -0.08138,-0.21484 -0.328776,-0.21484 -0.166016,0 -0.30599,0.11067 -0.139974,0.11068 -0.201823,0.32553 -0.06185,0.21158 -0.06185,0.7194 l 0,1.67968 -0.751953,0 0,-3.45703 z"
         style=""
         id="path12418" />
      <path
         d="m 70.611328,464.98573 0.69987,0 0,0.50781 q 0.143229,-0.27343 0.377604,-0.42968 0.234375,-0.15625 0.504558,-0.15625 0.485026,0 0.833333,0.46224 0.351562,0.46224 0.351562,1.31185 0,0.89192 -0.351562,1.36718 -0.351563,0.47201 -0.836589,0.47201 -0.224609,0 -0.419921,-0.10742 -0.192058,-0.11068 -0.406902,-0.39714 l 0,1.74154 -0.751953,0 0,-4.77214 z m 0.742188,1.66992 q 0,0.58594 0.188802,0.86263 0.192057,0.2767 0.46224,0.2767 0.257161,0 0.432942,-0.25391 0.175781,-0.25716 0.175781,-0.83659 0,-0.55013 -0.182291,-0.81054 -0.179037,-0.26368 -0.439453,-0.26368 -0.273438,0 -0.455729,0.25717 -0.182292,0.2539 -0.182292,0.76822 z"
         style=""
         id="path12420" />
      <path
         d="m 74.540364,466.04042 -0.680338,-0.14974 q 0.123698,-0.52409 0.406901,-0.75195 0.286458,-0.23112 0.820312,-0.23112 0.475261,0 0.725912,0.13346 0.250651,0.13346 0.358073,0.36458 0.107421,0.22787 0.107421,0.83334 l -0.0065,1.06771 q 0,0.44921 0.03581,0.67057 0.03581,0.2181 0.133464,0.46549 l -0.742188,0 -0.09766,-0.3776 q -0.192057,0.22786 -0.413411,0.3418 -0.218099,0.11393 -0.465495,0.11393 -0.413412,0 -0.677083,-0.27669 -0.263672,-0.27995 -0.263672,-0.74219 0,-0.29297 0.107422,-0.51107 0.107421,-0.2181 0.302734,-0.34831 0.195312,-0.1302 0.625,-0.23112 0.520833,-0.12044 0.725911,-0.22461 0,-0.28645 -0.04232,-0.37434 -0.03906,-0.0912 -0.14974,-0.14649 -0.107422,-0.0586 -0.30599,-0.0586 -0.201822,0 -0.31901,0.0911 -0.113932,0.0911 -0.185547,0.3418 z m 1.002604,0.74219 q -0.143229,0.0586 -0.445963,0.13672 -0.348307,0.0911 -0.455729,0.20182 -0.107422,0.11068 -0.107422,0.28646 0,0.19857 0.117187,0.33528 0.120443,0.13347 0.299479,0.13347 0.159506,0 0.315756,-0.10742 0.15625,-0.11068 0.214843,-0.26042 0.06185,-0.14974 0.06185,-0.54362 l 0,-0.18229 z"
         style=""
         id="path12422" />
      <path
         d="m 79.615233,468.44276 -0.699869,0 0,-0.50781 q -0.172527,0.29297 -0.406902,0.43945 -0.234375,0.14649 -0.48177,0.14649 -0.475261,0 -0.830078,-0.47201 -0.351563,-0.47526 -0.351563,-1.35416 0,-0.88542 0.345052,-1.33464 0.345052,-0.45247 0.849609,-0.45247 0.237631,0 0.442709,0.12044 0.208333,0.12044 0.380859,0.36133 l 0,-1.71875 0.751953,0 0,4.77213 z m -2.001953,-1.80338 q 0,0.46875 0.07813,0.69987 0.08138,0.22786 0.227865,0.34505 0.149739,0.11393 0.335286,0.11393 0.247396,0 0.429688,-0.26692 0.182291,-0.26693 0.182291,-0.80404 0,-0.5957 -0.179036,-0.85612 -0.175781,-0.26367 -0.449219,-0.26367 -0.260416,0 -0.442708,0.25716 -0.182292,0.25716 -0.182292,0.77474 z"
         style=""
         id="path12424" />
      <path
         d="m 69.00651,471.98444 q 0.569662,0 0.921224,0.54362 0.351563,0.54036 0.351563,1.89453 0,1.35091 -0.351563,1.89453 -0.351562,0.54037 -0.917968,0.54037 -0.569662,0 -0.921224,-0.53711 -0.351563,-0.53711 -0.351563,-1.90755 0,-1.34441 0.351563,-1.88477 0.351562,-0.54362 0.917968,-0.54362 z m 0,0.75846 q -0.221354,0 -0.354817,0.29297 -0.130209,0.29297 -0.130209,1.38672 0,1.09375 0.130209,1.38672 0.133463,0.28971 0.354817,0.28971 0.22461,0 0.354818,-0.29296 0.130208,-0.29297 0.130208,-1.38347 0,-1.09375 -0.130208,-1.38672 -0.130208,-0.29297 -0.354818,-0.29297 z"
         style=""
         id="path12426" />
    </g>
    <g
       transform="translate(-35.981831,-407.88173)"
       id="g12320">
      <flowRoot
         transform="translate(1530.1556,-91.194451)"
         style="font-style:normal;font-variant:normal;font-weight:bold;font-stretch:condensed;font-size:8px;line-height:125%;font-family:'Arial Narrow';-inkscape-font-specification:'Arial Narrow Bold Condensed';text-align:center;letter-spacing:0px;word-spacing:0px;text-anchor:middle;fill:#000000;fill-opacity:1;stroke:none"
         id="flowRoot12332"
         xml:space="preserve"><flowRegion
           id="flowRegion12334"><rect
             style="font-style:normal;font-variant:normal;font-weight:bold;font-stretch:condensed;font-size:8px;font-family:'Arial Narrow';-inkscape-font-specification:'Arial Narrow Bold Condensed';text-align:center;text-anchor:middle"
             y="461.64789"
             x="51.42857"
             height="12.142853"
             width="16.071419"
             id="rect12336" /></flowRegion><flowPara
           id="flowPara12338" /></flowRoot>    </g>
  </g>
  <flowRoot
     xml:space="preserve"
     id="flowRoot12022-8"
     style="font-style:normal;font-variant:normal;font-weight:bold;font-stretch:condensed;font-size:8px;line-height:125%;font-family:'Arial Narrow';-inkscape-font-specification:'Arial Narrow Bold Condensed';text-align:center;letter-spacing:0px;word-spacing:0px;text-anchor:middle;fill:#000000;fill-opacity:1;stroke:none"
     transform="matrix(1.2809392,0,0,1.2809392,1418.5886,-1559.2536)"><flowRegion
       id="flowRegion12024-5"><rect
         id="rect12026-7"
         width="16.071419"
         height="12.142853"
         x="51.42857"
         y="461.64789"
         style="font-style:normal;font-variant:normal;font-weight:bold;font-stretch:condensed;font-size:8px;font-family:'Arial Narrow';-inkscape-font-specification:'Arial Narrow Bold Condensed';text-align:center;text-anchor:middle" /></flowRegion><flowPara
       id="flowPara12028-2" /></flowRoot>  <flowRoot
     style="font-style:normal;font-variant:normal;font-weight:bold;font-stretch:condensed;font-size:10.24751377px;line-height:125%;font-family:'Arial Narrow';-inkscape-font-specification:'Arial Narrow Bold Condensed';text-align:center;letter-spacing:0px;word-spacing:0px;text-anchor:middle;fill:#000000;fill-opacity:1;stroke:none"
     id="flowRoot12272"
     xml:space="preserve"
     transform="translate(0,-872.36218)"><flowRegion
       id="flowRegion12274"><rect
         style="font-style:normal;font-variant:normal;font-weight:bold;font-stretch:condensed;font-size:10.24751377px;font-family:'Arial Narrow';-inkscape-font-specification:'Arial Narrow Bold Condensed';text-align:center;text-anchor:middle"
         y="-19.871933"
         x="1484.4655"
         height="15.554256"
         width="20.58651"
         id="rect12276" /></flowRegion><flowPara
       id="flowPara12278" /></flowRoot>  <flowRoot
     transform="matrix(1.2809392,0,0,1.2809392,1459.5787,-1483.577)"
     style="font-style:normal;font-variant:normal;font-weight:bold;font-stretch:condensed;font-size:8px;line-height:125%;font-family:'Arial Narrow';-inkscape-font-specification:'Arial Narrow Bold Condensed';text-align:center;letter-spacing:0px;word-spacing:0px;text-anchor:middle;fill:#000000;fill-opacity:1;stroke:none"
     id="flowRoot12352"
     xml:space="preserve"><flowRegion
       id="flowRegion12354"><rect
         style="font-style:normal;font-variant:normal;font-weight:bold;font-stretch:condensed;font-size:8px;font-family:'Arial Narrow';-inkscape-font-specification:'Arial Narrow Bold Condensed';text-align:center;text-anchor:middle"
         y="461.64789"
         x="51.42857"
         height="12.142853"
         width="16.071419"
         id="rect12356" /></flowRegion><flowPara
       id="flowPara12358" /></flowRoot></svg>
